ISO-10303-21;
HEADER;
FILE_DESCRIPTION(('STEP AP242'),
    '1');
FILE_NAME('крепеж энкодера элевация',
    '',
    ('UNSPECIFIED'),
    ('UNSPECIFIED'),
    'C3D Converter',
    'C3D Toolkit',
    '');
FILE_SCHEMA(('AP242_MANAGED_MODEL_BASED_3D_ENGINEERING_MIM_LF { 1 0 10303 442 1 1 4 }'));
ENDSEC;

DATA;
#1=PRODUCT_DEFINITION('','UNSPECIFIED',#28,#31);
#2=SHAPE_DEFINITION_REPRESENTATION(#26,#3);
#3=SHAPE_REPRESENTATION('NONE',(#4),#8);
#4=AXIS2_PLACEMENT_3D('',#5,#6,#7);
#5=CARTESIAN_POINT('',(0.,0.,0.));
#6=DIRECTION('',(0.,0.,1.));
#7=DIRECTION('',(1.,0.,0.));
#8=(GEOMETRIC_REPRESENTATION_CONTEXT(3)GLOBAL_UNCERTAINTY_ASSIGNED_CONTEXT((#10))
GLOBAL_UNIT_ASSIGNED_CONTEXT((#9,#11,#12))REPRESENTATION_CONTEXT('NONE','NONE'));
#9=(LENGTH_UNIT()NAMED_UNIT(*)SI_UNIT(.MILLI.,.METRE.));
#10=UNCERTAINTY_MEASURE_WITH_UNIT(LENGTH_MEASURE(1.E-5),#9,'NONE','NONE');
#11=(NAMED_UNIT(*)PLANE_ANGLE_UNIT()SI_UNIT($,.RADIAN.));
#12=(NAMED_UNIT(*)SI_UNIT($,.STERADIAN.)SOLID_ANGLE_UNIT());
#13=MANIFOLD_SOLID_BREP('',#14);
#14=CLOSED_SHELL('',(#53,#54,#55,#56,#57,#58,#59,#60,#61,#62,#63,#64,#65,#66,#67,
#68,#69,#70,#71,#72,#73,#74,#75,#76,#77,#78,#79,#80,#81,#82,#83,#84,#85,#86,#87,
#88,#89,#90,#91,#92,#93,#94,#95,#96,#97));
#15=COLOUR_RGB('',0.4,0.4,0.);
#16=FILL_AREA_STYLE_COLOUR('',#15);
#17=FILL_AREA_STYLE($,(#16));
#18=SURFACE_STYLE_FILL_AREA(#17);
#19=SURFACE_SIDE_STYLE('',(#18));
#20=SURFACE_STYLE_USAGE(.BOTH.,#19);
#21=PRESENTATION_STYLE_ASSIGNMENT((#20));
#22=MECHANICAL_DESIGN_GEOMETRIC_PRESENTATION_REPRESENTATION('NONE',(#23),#8);
#23=STYLED_ITEM('',(#21),#13);
#24=ADVANCED_BREP_SHAPE_REPRESENTATION('NONE',(#13),#8);
#25=SHAPE_REPRESENTATION_RELATIONSHIP('','',#3,#24);
#26=PRODUCT_DEFINITION_SHAPE('NONE','NONE',#1);
#27=MECHANICAL_CONTEXT('NONE',#32,'mechanical');
#28=PRODUCT_DEFINITION_FORMATION_WITH_SPECIFIED_SOURCE('ANY','UNSPECIFIED',#29,.NOT_KNOWN.);
#29=PRODUCT('','\X2\043A04400435043F04350436\X0\ \X2\044D043D043A043E0434043504400430\X0\',
'NONE',(#27));
#30=PRODUCT_RELATED_PRODUCT_CATEGORY('detail','',(#29));
#31=DESIGN_CONTEXT('detailed design',#32,'design');
#32=APPLICATION_CONTEXT('configuration controlled 3d designs of mechanical parts and assemblies');
#33=APPLICATION_PROTOCOL_DEFINITION('international standard','config_control_design',
1994,#32);
#34=CC_DESIGN_DATE_AND_TIME_ASSIGNMENT(#35,#39,(#1));
#35=DATE_AND_TIME(#36,#37);
#36=CALENDAR_DATE(0,1,1);
#37=LOCAL_TIME(0,0,0.,#38);
#38=COORDINATED_UNIVERSAL_TIME_OFFSET(0,0,.AHEAD.);
#39=DATE_TIME_ROLE('creation_date');
#40=CC_DESIGN_APPROVAL(#41,(#1));
#41=APPROVAL(#42,'UNSPECIFIED');
#42=APPROVAL_STATUS('not_yet_approved');
#43=APPROVAL_DATE_TIME(#44,#41);
#44=DATE_AND_TIME(#45,#46);
#45=CALENDAR_DATE(0,1,1);
#46=LOCAL_TIME(0,0,0.,#47);
#47=COORDINATED_UNIVERSAL_TIME_OFFSET(0,0,.AHEAD.);
#48=PERSON('UNSPECIFIED','yaros','UNSPECIFIED',('UNSPECIFIED'),('UNSPECIFIED'),(
'UNSPECIFIED'));
#49=ORGANIZATION('UNSPECIFIED','UNSPECIFIED','UNSPECIFIED');
#50=PERSON_AND_ORGANIZATION(#48,#49);
#51=PERSON_AND_ORGANIZATION_ROLE('creator');
#52=CC_DESIGN_PERSON_AND_ORGANIZATION_ASSIGNMENT(#50,#51,(#28,#1));
#53=ADVANCED_FACE('',(#98),#100,.T.);
#54=ADVANCED_FACE('',(#105),#107,.T.);
#55=ADVANCED_FACE('',(#112),#114,.T.);
#56=ADVANCED_FACE('',(#119),#121,.T.);
#57=ADVANCED_FACE('',(#126),#128,.T.);
#58=ADVANCED_FACE('',(#133),#135,.T.);
#59=ADVANCED_FACE('',(#140),#142,.T.);
#60=ADVANCED_FACE('',(#147),#149,.T.);
#61=ADVANCED_FACE('',(#154),#156,.T.);
#62=ADVANCED_FACE('',(#161),#163,.T.);
#63=ADVANCED_FACE('',(#168,#170),#172,.F.);
#64=ADVANCED_FACE('',(#177,#179),#181,.F.);
#65=ADVANCED_FACE('',(#186,#188),#190,.T.);
#66=ADVANCED_FACE('',(#195,#197),#199,.T.);
#67=ADVANCED_FACE('',(#204,#206),#208,.T.);
#68=ADVANCED_FACE('',(#213,#215,#217,#219,#221,#223,#225,#227,#229,#231),#233,.T.);
#69=ADVANCED_FACE('',(#238,#240),#242,.F.);
#70=ADVANCED_FACE('',(#247),#249,.T.);
#71=ADVANCED_FACE('',(#254),#256,.F.);
#72=ADVANCED_FACE('',(#261),#263,.T.);
#73=ADVANCED_FACE('',(#268),#270,.T.);
#74=ADVANCED_FACE('',(#275),#277,.T.);
#75=ADVANCED_FACE('',(#282),#284,.F.);
#76=ADVANCED_FACE('',(#289),#291,.T.);
#77=ADVANCED_FACE('',(#296,#298),#300,.F.);
#78=ADVANCED_FACE('',(#305),#307,.T.);
#79=ADVANCED_FACE('',(#312),#314,.F.);
#80=ADVANCED_FACE('',(#319),#321,.T.);
#81=ADVANCED_FACE('',(#326),#328,.T.);
#82=ADVANCED_FACE('',(#333),#335,.T.);
#83=ADVANCED_FACE('',(#340),#342,.F.);
#84=ADVANCED_FACE('',(#347),#349,.T.);
#85=ADVANCED_FACE('',(#354),#356,.T.);
#86=ADVANCED_FACE('',(#361),#363,.T.);
#87=ADVANCED_FACE('',(#368),#370,.T.);
#88=ADVANCED_FACE('',(#375),#377,.T.);
#89=ADVANCED_FACE('',(#382),#384,.T.);
#90=ADVANCED_FACE('',(#389),#391,.T.);
#91=ADVANCED_FACE('',(#396),#398,.T.);
#92=ADVANCED_FACE('',(#403),#405,.T.);
#93=ADVANCED_FACE('',(#410,#412),#414,.F.);
#94=ADVANCED_FACE('',(#419,#421),#423,.F.);
#95=ADVANCED_FACE('',(#428,#430),#432,.F.);
#96=ADVANCED_FACE('',(#437,#439),#441,.F.);
#97=ADVANCED_FACE('',(#446,#448,#450,#452,#454,#456),#458,.F.);
#98=FACE_BOUND('',#99,.T.);
#99=EDGE_LOOP('',(#463,#464,#465,#466));
#100=PLANE('',#101);
#101=AXIS2_PLACEMENT_3D('',#102,#103,#104);
#102=CARTESIAN_POINT('',(-1.,5.,12.));
#103=DIRECTION('',(0.,1.,5.07530525542929E-17));
#104=DIRECTION('',(1.77635683940025E-16,-5.07530525542929E-17,1.));
#105=FACE_BOUND('',#106,.T.);
#106=EDGE_LOOP('',(#467,#468,#469,#470));
#107=PLANE('',#108);
#108=AXIS2_PLACEMENT_3D('',#109,#110,#111);
#109=CARTESIAN_POINT('',(-1.,-5.,29.5));
#110=DIRECTION('',(0.,-1.,-5.07530525542929E-17));
#111=DIRECTION('',(-1.77635683940025E-16,5.07530525542929E-17,-1.));
#112=FACE_BOUND('',#113,.T.);
#113=EDGE_LOOP('',(#471,#472,#473,#474));
#114=PLANE('',#115);
#115=AXIS2_PLACEMENT_3D('',#116,#117,#118);
#116=CARTESIAN_POINT('',(-1.00000000000001,5.,-29.5));
#117=DIRECTION('',(1.3684555315672E-48,1.,5.07530525542929E-17));
#118=DIRECTION('',(1.77635683940025E-16,-5.07530525542929E-17,1.));
#119=FACE_BOUND('',#120,.T.);
#120=EDGE_LOOP('',(#475,#476,#477,#478));
#121=PLANE('',#122);
#122=AXIS2_PLACEMENT_3D('',#123,#124,#125);
#123=CARTESIAN_POINT('',(-1.00000000000001,-5.,-12.));
#124=DIRECTION('',(-1.3684555315672E-48,-1.,-5.07530525542929E-17));
#125=DIRECTION('',(-1.77635683940025E-16,5.07530525542929E-17,-1.));
#126=FACE_BOUND('',#127,.T.);
#127=EDGE_LOOP('',(#479,#480,#481,#482));
#128=CYLINDRICAL_SURFACE('',#129,3.5);
#129=AXIS2_PLACEMENT_3D('',#130,#131,#132);
#130=CARTESIAN_POINT('',(-14.,1.5,26.));
#131=DIRECTION('',(-1.,5.9211894646675E-17,2.368475785867E-16));
#132=DIRECTION('',(2.368475785867E-16,5.07530525542929E-16,1.));
#133=FACE_BOUND('',#134,.T.);
#134=EDGE_LOOP('',(#483,#484,#485,#486));
#135=PLANE('',#136);
#136=AXIS2_PLACEMENT_3D('',#137,#138,#139);
#137=CARTESIAN_POINT('',(-1.,5.,29.5));
#138=DIRECTION('',(0.,0.,1.));
#139=DIRECTION('',(0.,-1.,0.));
#140=FACE_BOUND('',#141,.T.);
#141=EDGE_LOOP('',(#487,#488,#489,#490));
#142=CYLINDRICAL_SURFACE('',#143,3.5);
#143=AXIS2_PLACEMENT_3D('',#144,#145,#146);
#144=CARTESIAN_POINT('',(-14.,-1.5,26.));
#145=DIRECTION('',(-1.,0.,0.));
#146=DIRECTION('',(0.,-1.,0.));
#147=FACE_BOUND('',#148,.T.);
#148=EDGE_LOOP('',(#491,#492,#493,#494));
#149=CYLINDRICAL_SURFACE('',#150,3.5);
#150=AXIS2_PLACEMENT_3D('',#151,#152,#153);
#151=CARTESIAN_POINT('',(-14.,-1.5,-26.));
#152=DIRECTION('',(-1.,0.,1.1842378929335E-16));
#153=DIRECTION('',(-1.1842378929335E-16,0.,-1.));
#154=FACE_BOUND('',#155,.T.);
#155=EDGE_LOOP('',(#495,#496,#497,#498));
#156=PLANE('',#157);
#157=AXIS2_PLACEMENT_3D('',#158,#159,#160);
#158=CARTESIAN_POINT('',(-1.00000000000001,-5.,-29.5));
#159=DIRECTION('',(0.,0.,-1.));
#160=DIRECTION('',(0.,1.,0.));
#161=FACE_BOUND('',#162,.T.);
#162=EDGE_LOOP('',(#499,#500,#501,#502));
#163=CYLINDRICAL_SURFACE('',#164,3.5);
#164=AXIS2_PLACEMENT_3D('',#165,#166,#167);
#165=CARTESIAN_POINT('',(-14.,1.5,-26.));
#166=DIRECTION('',(-1.,0.,0.));
#167=DIRECTION('',(0.,1.,0.));
#168=FACE_OUTER_BOUND('',#169,.T.);
#169=EDGE_LOOP('',(#503));
#170=FACE_OUTER_BOUND('',#171,.T.);
#171=EDGE_LOOP('',(#504));
#172=CYLINDRICAL_SURFACE('',#173,1.6);
#173=AXIS2_PLACEMENT_3D('',#174,#175,#176);
#174=CARTESIAN_POINT('',(-1.,1.22464679914735E-16,24.5));
#175=DIRECTION('',(1.,0.,-1.83697019872103E-16));
#176=DIRECTION('',(1.12481983699639E-32,1.,6.12323399573677E-17));
#177=FACE_OUTER_BOUND('',#178,.T.);
#178=EDGE_LOOP('',(#505));
#179=FACE_OUTER_BOUND('',#180,.T.);
#180=EDGE_LOOP('',(#506));
#181=CYLINDRICAL_SURFACE('',#182,1.6);
#182=AXIS2_PLACEMENT_3D('',#183,#184,#185);
#183=CARTESIAN_POINT('',(-1.00000000000001,-1.22464679914735E-16,-24.5));
#184=DIRECTION('',(1.,0.,-1.83697019872103E-16));
#185=DIRECTION('',(1.12481983699639E-32,1.,6.12323399573677E-17));
#186=FACE_BOUND('',#187,.T.);
#187=EDGE_LOOP('',(#507,#508,#509,#510,#511,#512,#513,#514,#515));
#188=FACE_OUTER_BOUND('',#189,.T.);
#189=EDGE_LOOP('',(#516));
#190=CYLINDRICAL_SURFACE('',#191,18.25);
#191=AXIS2_PLACEMENT_3D('',#192,#193,#194);
#192=CARTESIAN_POINT('',(-5.,0.,9.18485099360515E-16));
#193=DIRECTION('',(1.,0.,-1.83697019872103E-16));
#194=DIRECTION('',(1.12481983699639E-32,1.,6.12323399573677E-17));
#195=FACE_BOUND('',#196,.T.);
#196=EDGE_LOOP('',(#517,#518,#519,#520,#521,#522));
#197=FACE_BOUND('',#198,.T.);
#198=EDGE_LOOP('',(#523));
#199=PLANE('',#200);
#200=AXIS2_PLACEMENT_3D('',#201,#202,#203);
#201=CARTESIAN_POINT('',(-1.,0.,1.83697019872103E-16));
#202=DIRECTION('',(-1.,0.,1.83697019872103E-16));
#203=DIRECTION('',(-1.12481983699639E-32,-1.,-6.12323399573677E-17));
#204=FACE_BOUND('',#205,.T.);
#205=EDGE_LOOP('',(#524,#525,#526,#527,#528,#529));
#206=FACE_BOUND('',#207,.T.);
#207=EDGE_LOOP('',(#530));
#208=PLANE('',#209);
#209=AXIS2_PLACEMENT_3D('',#210,#211,#212);
#210=CARTESIAN_POINT('',(-1.,0.,1.83697019872103E-16));
#211=DIRECTION('',(-1.,0.,1.83697019872103E-16));
#212=DIRECTION('',(-1.12481983699639E-32,-1.,-6.12323399573677E-17));
#213=FACE_BOUND('',#214,.T.);
#214=EDGE_LOOP('',(#531,#532,#533,#534,#535,#536,#537,#538,#539,#540,#541,#542,#543));
#215=FACE_BOUND('',#216,.T.);
#216=EDGE_LOOP('',(#544,#545,#546,#547,#548,#549,#550,#551));
#217=FACE_BOUND('',#218,.T.);
#218=EDGE_LOOP('',(#552,#553,#554,#555,#556,#557,#558,#559,#560));
#219=FACE_BOUND('',#220,.T.);
#220=EDGE_LOOP('',(#561,#562,#563,#564,#565,#566,#567,#568));
#221=FACE_BOUND('',#222,.T.);
#222=EDGE_LOOP('',(#569));
#223=FACE_BOUND('',#224,.T.);
#224=EDGE_LOOP('',(#570));
#225=FACE_BOUND('',#226,.T.);
#226=EDGE_LOOP('',(#571));
#227=FACE_BOUND('',#228,.T.);
#228=EDGE_LOOP('',(#572));
#229=FACE_BOUND('',#230,.T.);
#230=EDGE_LOOP('',(#573));
#231=FACE_BOUND('',#232,.T.);
#232=EDGE_LOOP('',(#574));
#233=PLANE('',#234);
#234=AXIS2_PLACEMENT_3D('',#235,#236,#237);
#235=CARTESIAN_POINT('',(2.,0.,-3.67394039744206E-16));
#236=DIRECTION('',(1.,0.,-1.83697019872103E-16));
#237=DIRECTION('',(1.12481983699639E-32,1.,6.12323399573677E-17));
#238=FACE_BOUND('',#239,.T.);
#239=EDGE_LOOP('',(#575));
#240=FACE_BOUND('',#241,.T.);
#241=EDGE_LOOP('',(#576));
#242=PLANE('',#243);
#243=AXIS2_PLACEMENT_3D('',#244,#245,#246);
#244=CARTESIAN_POINT('',(-5.,0.,9.18485099360515E-16));
#245=DIRECTION('',(1.,0.,-1.83697019872103E-16));
#246=DIRECTION('',(1.12481983699639E-32,1.,6.12323399573677E-17));
#247=FACE_BOUND('',#248,.T.);
#248=EDGE_LOOP('',(#577,#578,#579,#580));
#249=PLANE('',#250);
#250=AXIS2_PLACEMENT_3D('',#251,#252,#253);
#251=CARTESIAN_POINT('',(-1.,-5.,29.5));
#252=DIRECTION('',(0.,-1.,-5.07530525542929E-17));
#253=DIRECTION('',(-1.77635683940025E-16,5.07530525542929E-17,-1.));
#254=FACE_BOUND('',#255,.T.);
#255=EDGE_LOOP('',(#581,#582,#583,#584));
#256=CYLINDRICAL_SURFACE('',#257,3.5);
#257=AXIS2_PLACEMENT_3D('',#258,#259,#260);
#258=CARTESIAN_POINT('',(-14.,-8.5,15.5));
#259=DIRECTION('',(-1.,0.,1.1842378929335E-16));
#260=DIRECTION('',(-5.63472075157865E-32,1.,-5.07530525542929E-16));
#261=FACE_BOUND('',#262,.T.);
#262=EDGE_LOOP('',(#585,#586,#587,#588));
#263=CYLINDRICAL_SURFACE('',#264,3.5);
#264=AXIS2_PLACEMENT_3D('',#265,#266,#267);
#265=CARTESIAN_POINT('',(1.56142466891287E-15,-8.5,8.5));
#266=DIRECTION('',(1.,0.,-1.83697019872103E-16));
#267=DIRECTION('',(1.83697019872103E-16,-6.12323399573677E-17,1.));
#268=FACE_BOUND('',#269,.T.);
#269=EDGE_LOOP('',(#589,#590,#591,#592));
#270=PLANE('',#271);
#271=AXIS2_PLACEMENT_3D('',#272,#273,#274);
#272=CARTESIAN_POINT('',(1.56142466891287E-15,-12.,8.49999999999999));
#273=DIRECTION('',(-1.85614330640238E-31,-1.,-2.089831575765E-16));
#274=DIRECTION('',(-1.83697019872103E-16,2.089831575765E-16,-1.));
#275=FACE_BOUND('',#276,.T.);
#276=EDGE_LOOP('',(#593,#594,#595,#596));
#277=CYLINDRICAL_SURFACE('',#278,3.5);
#278=AXIS2_PLACEMENT_3D('',#279,#280,#281);
#279=CARTESIAN_POINT('',(1.56142466891287E-15,-8.5,-8.5));
#280=DIRECTION('',(1.,1.83697019872103E-16,-1.12481983699639E-32));
#281=DIRECTION('',(1.83697019872103E-16,-1.,0.));
#282=FACE_BOUND('',#283,.T.);
#283=EDGE_LOOP('',(#597,#598,#599,#600));
#284=CYLINDRICAL_SURFACE('',#285,3.5);
#285=AXIS2_PLACEMENT_3D('',#286,#287,#288);
#286=CARTESIAN_POINT('',(16.,-8.5,-15.5));
#287=DIRECTION('',(1.,-2.36847578586701E-16,0.));
#288=DIRECTION('',(2.36847578586701E-16,1.,0.));
#289=FACE_BOUND('',#290,.T.);
#290=EDGE_LOOP('',(#601,#602,#603,#604));
#291=PLANE('',#292);
#292=AXIS2_PLACEMENT_3D('',#293,#294,#295);
#293=CARTESIAN_POINT('',(-1.00000000000001,-5.,-12.));
#294=DIRECTION('',(-1.3684555315672E-48,-1.,-5.07530525542929E-17));
#295=DIRECTION('',(-1.77635683940025E-16,5.07530525542929E-17,-1.));
#296=FACE_BOUND('',#297,.T.);
#297=EDGE_LOOP('',(#605,#606,#607,#608,#609,#610,#611,#612,#613));
#298=FACE_OUTER_BOUND('',#299,.T.);
#299=EDGE_LOOP('',(#614));
#300=CYLINDRICAL_SURFACE('',#301,16.5);
#301=AXIS2_PLACEMENT_3D('',#302,#303,#304);
#302=CARTESIAN_POINT('',(-5.,0.,9.18485099360515E-16));
#303=DIRECTION('',(1.,0.,-1.83697019872103E-16));
#304=DIRECTION('',(1.12481983699639E-32,1.,6.12323399573677E-17));
#305=FACE_BOUND('',#306,.T.);
#306=EDGE_LOOP('',(#615,#616,#617,#618));
#307=PLANE('',#308);
#308=AXIS2_PLACEMENT_3D('',#309,#310,#311);
#309=CARTESIAN_POINT('',(-1.00000000000001,5.,-29.5));
#310=DIRECTION('',(1.3684555315672E-48,1.,5.07530525542929E-17));
#311=DIRECTION('',(1.77635683940025E-16,-5.07530525542929E-17,1.));
#312=FACE_BOUND('',#313,.T.);
#313=EDGE_LOOP('',(#619,#620,#621,#622));
#314=CYLINDRICAL_SURFACE('',#315,3.5);
#315=AXIS2_PLACEMENT_3D('',#316,#317,#318);
#316=CARTESIAN_POINT('',(-14.,8.5,-15.5));
#317=DIRECTION('',(-1.,-1.1842378929335E-16,1.1842378929335E-16));
#318=DIRECTION('',(1.1842378929335E-16,-1.,-5.07530525542928E-16));
#319=FACE_BOUND('',#320,.T.);
#320=EDGE_LOOP('',(#623,#624,#625,#626));
#321=CYLINDRICAL_SURFACE('',#322,3.5);
#322=AXIS2_PLACEMENT_3D('',#323,#324,#325);
#323=CARTESIAN_POINT('',(1.56142466891287E-15,8.5,-8.5));
#324=DIRECTION('',(1.,2.24963967399279E-32,1.83697019872103E-16));
#325=DIRECTION('',(1.83697019872103E-16,-6.12323399573677E-17,-1.));
#326=FACE_BOUND('',#327,.T.);
#327=EDGE_LOOP('',(#627,#628,#629,#630));
#328=PLANE('',#329);
#329=AXIS2_PLACEMENT_3D('',#330,#331,#332);
#330=CARTESIAN_POINT('',(1.56142466891287E-15,12.,-8.5));
#331=DIRECTION('',(-1.85614330640238E-31,1.,8.65184776617648E-17));
#332=DIRECTION('',(-1.83697019872103E-16,-8.65184776617648E-17,1.));
#333=FACE_BOUND('',#334,.T.);
#334=EDGE_LOOP('',(#631,#632,#633,#634));
#335=CYLINDRICAL_SURFACE('',#336,3.5);
#336=AXIS2_PLACEMENT_3D('',#337,#338,#339);
#337=CARTESIAN_POINT('',(1.56142466891287E-15,8.5,8.5));
#338=DIRECTION('',(1.,-1.83697019872103E-16,3.37445951098918E-32));
#339=DIRECTION('',(1.83697019872103E-16,1.,-1.22464679914735E-16));
#340=FACE_BOUND('',#341,.T.);
#341=EDGE_LOOP('',(#635,#636,#637,#638));
#342=CYLINDRICAL_SURFACE('',#343,3.5);
#343=AXIS2_PLACEMENT_3D('',#344,#345,#346);
#344=CARTESIAN_POINT('',(16.,8.5,15.5));
#345=DIRECTION('',(1.,0.,0.));
#346=DIRECTION('',(0.,-1.,5.07530525542929E-16));
#347=FACE_BOUND('',#348,.T.);
#348=EDGE_LOOP('',(#639,#640,#641,#642));
#349=PLANE('',#350);
#350=AXIS2_PLACEMENT_3D('',#351,#352,#353);
#351=CARTESIAN_POINT('',(-1.,5.,12.));
#352=DIRECTION('',(0.,1.,5.07530525542929E-17));
#353=DIRECTION('',(1.77635683940025E-16,-5.07530525542929E-17,1.));
#354=FACE_BOUND('',#355,.T.);
#355=EDGE_LOOP('',(#643,#644,#645,#646));
#356=PLANE('',#357);
#357=AXIS2_PLACEMENT_3D('',#358,#359,#360);
#358=CARTESIAN_POINT('',(1.56142466891287E-15,-5.,8.5));
#359=DIRECTION('',(0.,0.,-1.));
#360=DIRECTION('',(0.,1.,0.));
#361=FACE_BOUND('',#362,.T.);
#362=EDGE_LOOP('',(#647,#648,#649,#650));
#363=CYLINDRICAL_SURFACE('',#364,3.5);
#364=AXIS2_PLACEMENT_3D('',#365,#366,#367);
#365=CARTESIAN_POINT('',(1.56142466891287E-15,8.5,8.5));
#366=DIRECTION('',(1.,-1.83697019872103E-16,3.37445951098918E-32));
#367=DIRECTION('',(-1.83697019872103E-16,-1.,1.22464679914735E-16));
#368=FACE_BOUND('',#369,.T.);
#369=EDGE_LOOP('',(#651,#652,#653,#654));
#370=PLANE('',#371);
#371=AXIS2_PLACEMENT_3D('',#372,#373,#374);
#372=CARTESIAN_POINT('',(-9.56096861446934E-32,8.5,-5.20474889637625E-16));
#373=DIRECTION('',(0.,-1.,1.22464679914735E-16));
#374=DIRECTION('',(1.83697019872103E-16,-1.22464679914735E-16,-1.));
#375=FACE_BOUND('',#376,.T.);
#376=EDGE_LOOP('',(#655,#656,#657,#658));
#377=CYLINDRICAL_SURFACE('',#378,3.5);
#378=AXIS2_PLACEMENT_3D('',#379,#380,#381);
#379=CARTESIAN_POINT('',(1.56142466891287E-15,8.5,-8.5));
#380=DIRECTION('',(1.,2.24963967399279E-32,1.83697019872103E-16));
#381=DIRECTION('',(-1.83697019872103E-16,6.12323399573677E-17,1.));
#382=FACE_BOUND('',#383,.T.);
#383=EDGE_LOOP('',(#659,#660,#661,#662));
#384=PLANE('',#385);
#385=AXIS2_PLACEMENT_3D('',#386,#387,#388);
#386=CARTESIAN_POINT('',(-9.56096861446934E-32,0.,-8.5));
#387=DIRECTION('',(0.,6.12323399573677E-17,1.));
#388=DIRECTION('',(1.83697019872103E-16,-1.,6.12323399573677E-17));
#389=FACE_BOUND('',#390,.T.);
#390=EDGE_LOOP('',(#663,#664,#665,#666));
#391=CYLINDRICAL_SURFACE('',#392,3.5);
#392=AXIS2_PLACEMENT_3D('',#393,#394,#395);
#393=CARTESIAN_POINT('',(1.56142466891287E-15,-8.5,-8.5));
#394=DIRECTION('',(1.,1.83697019872103E-16,-1.12481983699639E-32));
#395=DIRECTION('',(-1.83697019872103E-16,1.,0.));
#396=FACE_BOUND('',#397,.T.);
#397=EDGE_LOOP('',(#667,#668,#669,#670));
#398=PLANE('',#399);
#399=AXIS2_PLACEMENT_3D('',#400,#401,#402);
#400=CARTESIAN_POINT('',(-9.56096861446934E-32,-8.5,-5.20474889637625E-16));
#401=DIRECTION('',(0.,1.,0.));
#402=DIRECTION('',(1.83697019872103E-16,0.,1.));
#403=FACE_BOUND('',#404,.T.);
#404=EDGE_LOOP('',(#671,#672,#673,#674));
#405=CYLINDRICAL_SURFACE('',#406,3.5);
#406=AXIS2_PLACEMENT_3D('',#407,#408,#409);
#407=CARTESIAN_POINT('',(1.56142466891287E-15,-8.5,8.5));
#408=DIRECTION('',(1.,0.,-1.83697019872103E-16));
#409=DIRECTION('',(-1.83697019872103E-16,6.12323399573677E-17,-1.));
#410=FACE_OUTER_BOUND('',#411,.T.);
#411=EDGE_LOOP('',(#675));
#412=FACE_OUTER_BOUND('',#413,.T.);
#413=EDGE_LOOP('',(#676));
#414=CYLINDRICAL_SURFACE('',#415,1.6);
#415=AXIS2_PLACEMENT_3D('',#416,#417,#418);
#416=CARTESIAN_POINT('',(1.56142466891287E-15,-8.5,8.5));
#417=DIRECTION('',(1.,0.,-1.83697019872103E-16));
#418=DIRECTION('',(1.12481983699639E-32,1.,6.12323399573677E-17));
#419=FACE_OUTER_BOUND('',#420,.T.);
#420=EDGE_LOOP('',(#677));
#421=FACE_OUTER_BOUND('',#422,.T.);
#422=EDGE_LOOP('',(#678));
#423=CYLINDRICAL_SURFACE('',#424,1.6);
#424=AXIS2_PLACEMENT_3D('',#425,#426,#427);
#425=CARTESIAN_POINT('',(1.56142466891287E-15,-8.5,-8.5));
#426=DIRECTION('',(1.,1.83697019872103E-16,-1.12481983699639E-32));
#427=DIRECTION('',(1.12481983699639E-32,0.,1.));
#428=FACE_OUTER_BOUND('',#429,.T.);
#429=EDGE_LOOP('',(#679));
#430=FACE_OUTER_BOUND('',#431,.T.);
#431=EDGE_LOOP('',(#680));
#432=CYLINDRICAL_SURFACE('',#433,1.6);
#433=AXIS2_PLACEMENT_3D('',#434,#435,#436);
#434=CARTESIAN_POINT('',(1.56142466891287E-15,8.5,-8.5));
#435=DIRECTION('',(1.,2.24963967399279E-32,1.83697019872103E-16));
#436=DIRECTION('',(1.12481983699639E-32,-1.,6.12323399573677E-17));
#437=FACE_OUTER_BOUND('',#438,.T.);
#438=EDGE_LOOP('',(#681));
#439=FACE_OUTER_BOUND('',#440,.T.);
#440=EDGE_LOOP('',(#682));
#441=CYLINDRICAL_SURFACE('',#442,1.6);
#442=AXIS2_PLACEMENT_3D('',#443,#444,#445);
#443=CARTESIAN_POINT('',(1.56142466891287E-15,8.5,8.5));
#444=DIRECTION('',(1.,-1.83697019872103E-16,3.37445951098918E-32));
#445=DIRECTION('',(1.12481983699639E-32,-1.22464679914735E-16,-1.));
#446=FACE_BOUND('',#447,.T.);
#447=EDGE_LOOP('',(#683,#684,#685,#686,#687,#688,#689,#690,#691,#692,#693,#694,#695,
#696,#697,#698));
#448=FACE_BOUND('',#449,.T.);
#449=EDGE_LOOP('',(#699));
#450=FACE_BOUND('',#451,.T.);
#451=EDGE_LOOP('',(#700));
#452=FACE_BOUND('',#453,.T.);
#453=EDGE_LOOP('',(#701));
#454=FACE_BOUND('',#455,.T.);
#455=EDGE_LOOP('',(#702));
#456=FACE_BOUND('',#457,.T.);
#457=EDGE_LOOP('',(#703,#704,#705,#706,#707,#708,#709,#710));
#458=PLANE('',#459);
#459=AXIS2_PLACEMENT_3D('',#460,#461,#462);
#460=CARTESIAN_POINT('',(0.,0.,0.));
#461=DIRECTION('',(1.,0.,-1.83697019872103E-16));
#462=DIRECTION('',(1.12481983699639E-32,1.,6.12323399573677E-17));
#463=ORIENTED_EDGE('',*,*,#711,.F.);
#464=ORIENTED_EDGE('',*,*,#712,.F.);
#465=ORIENTED_EDGE('',*,*,#713,.T.);
#466=ORIENTED_EDGE('',*,*,#714,.F.);
#467=ORIENTED_EDGE('',*,*,#715,.F.);
#468=ORIENTED_EDGE('',*,*,#716,.F.);
#469=ORIENTED_EDGE('',*,*,#717,.F.);
#470=ORIENTED_EDGE('',*,*,#718,.F.);
#471=ORIENTED_EDGE('',*,*,#719,.F.);
#472=ORIENTED_EDGE('',*,*,#720,.F.);
#473=ORIENTED_EDGE('',*,*,#721,.F.);
#474=ORIENTED_EDGE('',*,*,#722,.F.);
#475=ORIENTED_EDGE('',*,*,#723,.F.);
#476=ORIENTED_EDGE('',*,*,#724,.F.);
#477=ORIENTED_EDGE('',*,*,#725,.T.);
#478=ORIENTED_EDGE('',*,*,#726,.F.);
#479=ORIENTED_EDGE('',*,*,#713,.F.);
#480=ORIENTED_EDGE('',*,*,#727,.F.);
#481=ORIENTED_EDGE('',*,*,#728,.T.);
#482=ORIENTED_EDGE('',*,*,#729,.T.);
#483=ORIENTED_EDGE('',*,*,#728,.F.);
#484=ORIENTED_EDGE('',*,*,#730,.F.);
#485=ORIENTED_EDGE('',*,*,#731,.T.);
#486=ORIENTED_EDGE('',*,*,#732,.F.);
#487=ORIENTED_EDGE('',*,*,#731,.F.);
#488=ORIENTED_EDGE('',*,*,#733,.F.);
#489=ORIENTED_EDGE('',*,*,#717,.T.);
#490=ORIENTED_EDGE('',*,*,#734,.T.);
#491=ORIENTED_EDGE('',*,*,#725,.F.);
#492=ORIENTED_EDGE('',*,*,#735,.F.);
#493=ORIENTED_EDGE('',*,*,#736,.T.);
#494=ORIENTED_EDGE('',*,*,#737,.T.);
#495=ORIENTED_EDGE('',*,*,#738,.T.);
#496=ORIENTED_EDGE('',*,*,#739,.F.);
#497=ORIENTED_EDGE('',*,*,#736,.F.);
#498=ORIENTED_EDGE('',*,*,#740,.F.);
#499=ORIENTED_EDGE('',*,*,#738,.F.);
#500=ORIENTED_EDGE('',*,*,#741,.F.);
#501=ORIENTED_EDGE('',*,*,#721,.T.);
#502=ORIENTED_EDGE('',*,*,#742,.T.);
#503=ORIENTED_EDGE('',*,*,#743,.F.);
#504=ORIENTED_EDGE('',*,*,#744,.F.);
#505=ORIENTED_EDGE('',*,*,#745,.F.);
#506=ORIENTED_EDGE('',*,*,#746,.F.);
#507=ORIENTED_EDGE('',*,*,#747,.F.);
#508=ORIENTED_EDGE('',*,*,#719,.T.);
#509=ORIENTED_EDGE('',*,*,#748,.F.);
#510=ORIENTED_EDGE('',*,*,#723,.T.);
#511=ORIENTED_EDGE('',*,*,#749,.F.);
#512=ORIENTED_EDGE('',*,*,#715,.T.);
#513=ORIENTED_EDGE('',*,*,#750,.F.);
#514=ORIENTED_EDGE('',*,*,#711,.T.);
#515=ORIENTED_EDGE('',*,*,#751,.F.);
#516=ORIENTED_EDGE('',*,*,#752,.T.);
#517=ORIENTED_EDGE('',*,*,#748,.T.);
#518=ORIENTED_EDGE('',*,*,#722,.T.);
#519=ORIENTED_EDGE('',*,*,#741,.T.);
#520=ORIENTED_EDGE('',*,*,#740,.T.);
#521=ORIENTED_EDGE('',*,*,#735,.T.);
#522=ORIENTED_EDGE('',*,*,#724,.T.);
#523=ORIENTED_EDGE('',*,*,#746,.T.);
#524=ORIENTED_EDGE('',*,*,#750,.T.);
#525=ORIENTED_EDGE('',*,*,#718,.T.);
#526=ORIENTED_EDGE('',*,*,#733,.T.);
#527=ORIENTED_EDGE('',*,*,#730,.T.);
#528=ORIENTED_EDGE('',*,*,#727,.T.);
#529=ORIENTED_EDGE('',*,*,#712,.T.);
#530=ORIENTED_EDGE('',*,*,#744,.T.);
#531=ORIENTED_EDGE('',*,*,#729,.F.);
#532=ORIENTED_EDGE('',*,*,#732,.T.);
#533=ORIENTED_EDGE('',*,*,#734,.F.);
#534=ORIENTED_EDGE('',*,*,#716,.T.);
#535=ORIENTED_EDGE('',*,*,#749,.T.);
#536=ORIENTED_EDGE('',*,*,#726,.T.);
#537=ORIENTED_EDGE('',*,*,#737,.F.);
#538=ORIENTED_EDGE('',*,*,#739,.T.);
#539=ORIENTED_EDGE('',*,*,#742,.F.);
#540=ORIENTED_EDGE('',*,*,#720,.T.);
#541=ORIENTED_EDGE('',*,*,#747,.T.);
#542=ORIENTED_EDGE('',*,*,#751,.T.);
#543=ORIENTED_EDGE('',*,*,#714,.T.);
#544=ORIENTED_EDGE('',*,*,#753,.T.);
#545=ORIENTED_EDGE('',*,*,#754,.F.);
#546=ORIENTED_EDGE('',*,*,#755,.T.);
#547=ORIENTED_EDGE('',*,*,#756,.T.);
#548=ORIENTED_EDGE('',*,*,#757,.T.);
#549=ORIENTED_EDGE('',*,*,#758,.F.);
#550=ORIENTED_EDGE('',*,*,#759,.T.);
#551=ORIENTED_EDGE('',*,*,#760,.T.);
#552=ORIENTED_EDGE('',*,*,#761,.T.);
#553=ORIENTED_EDGE('',*,*,#762,.F.);
#554=ORIENTED_EDGE('',*,*,#763,.T.);
#555=ORIENTED_EDGE('',*,*,#764,.T.);
#556=ORIENTED_EDGE('',*,*,#765,.T.);
#557=ORIENTED_EDGE('',*,*,#766,.F.);
#558=ORIENTED_EDGE('',*,*,#767,.T.);
#559=ORIENTED_EDGE('',*,*,#768,.T.);
#560=ORIENTED_EDGE('',*,*,#769,.T.);
#561=ORIENTED_EDGE('',*,*,#770,.T.);
#562=ORIENTED_EDGE('',*,*,#771,.T.);
#563=ORIENTED_EDGE('',*,*,#772,.T.);
#564=ORIENTED_EDGE('',*,*,#773,.T.);
#565=ORIENTED_EDGE('',*,*,#774,.T.);
#566=ORIENTED_EDGE('',*,*,#775,.T.);
#567=ORIENTED_EDGE('',*,*,#776,.T.);
#568=ORIENTED_EDGE('',*,*,#777,.T.);
#569=ORIENTED_EDGE('',*,*,#778,.T.);
#570=ORIENTED_EDGE('',*,*,#779,.T.);
#571=ORIENTED_EDGE('',*,*,#780,.T.);
#572=ORIENTED_EDGE('',*,*,#781,.T.);
#573=ORIENTED_EDGE('',*,*,#743,.T.);
#574=ORIENTED_EDGE('',*,*,#745,.T.);
#575=ORIENTED_EDGE('',*,*,#752,.F.);
#576=ORIENTED_EDGE('',*,*,#782,.T.);
#577=ORIENTED_EDGE('',*,*,#783,.F.);
#578=ORIENTED_EDGE('',*,*,#784,.F.);
#579=ORIENTED_EDGE('',*,*,#785,.T.);
#580=ORIENTED_EDGE('',*,*,#753,.F.);
#581=ORIENTED_EDGE('',*,*,#786,.T.);
#582=ORIENTED_EDGE('',*,*,#754,.T.);
#583=ORIENTED_EDGE('',*,*,#785,.F.);
#584=ORIENTED_EDGE('',*,*,#787,.T.);
#585=ORIENTED_EDGE('',*,*,#788,.T.);
#586=ORIENTED_EDGE('',*,*,#789,.T.);
#587=ORIENTED_EDGE('',*,*,#755,.F.);
#588=ORIENTED_EDGE('',*,*,#786,.F.);
#589=ORIENTED_EDGE('',*,*,#790,.T.);
#590=ORIENTED_EDGE('',*,*,#791,.T.);
#591=ORIENTED_EDGE('',*,*,#756,.F.);
#592=ORIENTED_EDGE('',*,*,#789,.F.);
#593=ORIENTED_EDGE('',*,*,#792,.T.);
#594=ORIENTED_EDGE('',*,*,#793,.T.);
#595=ORIENTED_EDGE('',*,*,#757,.F.);
#596=ORIENTED_EDGE('',*,*,#791,.F.);
#597=ORIENTED_EDGE('',*,*,#793,.F.);
#598=ORIENTED_EDGE('',*,*,#794,.T.);
#599=ORIENTED_EDGE('',*,*,#795,.F.);
#600=ORIENTED_EDGE('',*,*,#758,.T.);
#601=ORIENTED_EDGE('',*,*,#796,.F.);
#602=ORIENTED_EDGE('',*,*,#759,.F.);
#603=ORIENTED_EDGE('',*,*,#795,.T.);
#604=ORIENTED_EDGE('',*,*,#797,.F.);
#605=ORIENTED_EDGE('',*,*,#768,.F.);
#606=ORIENTED_EDGE('',*,*,#798,.T.);
#607=ORIENTED_EDGE('',*,*,#799,.T.);
#608=ORIENTED_EDGE('',*,*,#783,.T.);
#609=ORIENTED_EDGE('',*,*,#760,.F.);
#610=ORIENTED_EDGE('',*,*,#796,.T.);
#611=ORIENTED_EDGE('',*,*,#800,.T.);
#612=ORIENTED_EDGE('',*,*,#801,.T.);
#613=ORIENTED_EDGE('',*,*,#769,.F.);
#614=ORIENTED_EDGE('',*,*,#782,.F.);
#615=ORIENTED_EDGE('',*,*,#801,.F.);
#616=ORIENTED_EDGE('',*,*,#802,.F.);
#617=ORIENTED_EDGE('',*,*,#803,.T.);
#618=ORIENTED_EDGE('',*,*,#761,.F.);
#619=ORIENTED_EDGE('',*,*,#804,.T.);
#620=ORIENTED_EDGE('',*,*,#762,.T.);
#621=ORIENTED_EDGE('',*,*,#803,.F.);
#622=ORIENTED_EDGE('',*,*,#805,.T.);
#623=ORIENTED_EDGE('',*,*,#806,.T.);
#624=ORIENTED_EDGE('',*,*,#807,.T.);
#625=ORIENTED_EDGE('',*,*,#763,.F.);
#626=ORIENTED_EDGE('',*,*,#804,.F.);
#627=ORIENTED_EDGE('',*,*,#808,.T.);
#628=ORIENTED_EDGE('',*,*,#809,.T.);
#629=ORIENTED_EDGE('',*,*,#764,.F.);
#630=ORIENTED_EDGE('',*,*,#807,.F.);
#631=ORIENTED_EDGE('',*,*,#810,.T.);
#632=ORIENTED_EDGE('',*,*,#811,.T.);
#633=ORIENTED_EDGE('',*,*,#765,.F.);
#634=ORIENTED_EDGE('',*,*,#809,.F.);
#635=ORIENTED_EDGE('',*,*,#811,.F.);
#636=ORIENTED_EDGE('',*,*,#812,.T.);
#637=ORIENTED_EDGE('',*,*,#813,.F.);
#638=ORIENTED_EDGE('',*,*,#766,.T.);
#639=ORIENTED_EDGE('',*,*,#798,.F.);
#640=ORIENTED_EDGE('',*,*,#767,.F.);
#641=ORIENTED_EDGE('',*,*,#813,.T.);
#642=ORIENTED_EDGE('',*,*,#814,.F.);
#643=ORIENTED_EDGE('',*,*,#815,.T.);
#644=ORIENTED_EDGE('',*,*,#816,.T.);
#645=ORIENTED_EDGE('',*,*,#770,.F.);
#646=ORIENTED_EDGE('',*,*,#817,.F.);
#647=ORIENTED_EDGE('',*,*,#818,.T.);
#648=ORIENTED_EDGE('',*,*,#819,.T.);
#649=ORIENTED_EDGE('',*,*,#771,.F.);
#650=ORIENTED_EDGE('',*,*,#816,.F.);
#651=ORIENTED_EDGE('',*,*,#820,.T.);
#652=ORIENTED_EDGE('',*,*,#772,.F.);
#653=ORIENTED_EDGE('',*,*,#819,.F.);
#654=ORIENTED_EDGE('',*,*,#821,.T.);
#655=ORIENTED_EDGE('',*,*,#822,.T.);
#656=ORIENTED_EDGE('',*,*,#823,.T.);
#657=ORIENTED_EDGE('',*,*,#773,.F.);
#658=ORIENTED_EDGE('',*,*,#820,.F.);
#659=ORIENTED_EDGE('',*,*,#824,.T.);
#660=ORIENTED_EDGE('',*,*,#774,.F.);
#661=ORIENTED_EDGE('',*,*,#823,.F.);
#662=ORIENTED_EDGE('',*,*,#825,.T.);
#663=ORIENTED_EDGE('',*,*,#826,.T.);
#664=ORIENTED_EDGE('',*,*,#827,.T.);
#665=ORIENTED_EDGE('',*,*,#775,.F.);
#666=ORIENTED_EDGE('',*,*,#824,.F.);
#667=ORIENTED_EDGE('',*,*,#828,.T.);
#668=ORIENTED_EDGE('',*,*,#776,.F.);
#669=ORIENTED_EDGE('',*,*,#827,.F.);
#670=ORIENTED_EDGE('',*,*,#829,.T.);
#671=ORIENTED_EDGE('',*,*,#830,.T.);
#672=ORIENTED_EDGE('',*,*,#817,.T.);
#673=ORIENTED_EDGE('',*,*,#777,.F.);
#674=ORIENTED_EDGE('',*,*,#828,.F.);
#675=ORIENTED_EDGE('',*,*,#778,.F.);
#676=ORIENTED_EDGE('',*,*,#831,.F.);
#677=ORIENTED_EDGE('',*,*,#779,.F.);
#678=ORIENTED_EDGE('',*,*,#832,.F.);
#679=ORIENTED_EDGE('',*,*,#780,.F.);
#680=ORIENTED_EDGE('',*,*,#833,.F.);
#681=ORIENTED_EDGE('',*,*,#781,.F.);
#682=ORIENTED_EDGE('',*,*,#834,.F.);
#683=ORIENTED_EDGE('',*,*,#799,.F.);
#684=ORIENTED_EDGE('',*,*,#814,.T.);
#685=ORIENTED_EDGE('',*,*,#812,.F.);
#686=ORIENTED_EDGE('',*,*,#810,.F.);
#687=ORIENTED_EDGE('',*,*,#808,.F.);
#688=ORIENTED_EDGE('',*,*,#806,.F.);
#689=ORIENTED_EDGE('',*,*,#805,.F.);
#690=ORIENTED_EDGE('',*,*,#802,.T.);
#691=ORIENTED_EDGE('',*,*,#800,.F.);
#692=ORIENTED_EDGE('',*,*,#797,.T.);
#693=ORIENTED_EDGE('',*,*,#794,.F.);
#694=ORIENTED_EDGE('',*,*,#792,.F.);
#695=ORIENTED_EDGE('',*,*,#790,.F.);
#696=ORIENTED_EDGE('',*,*,#788,.F.);
#697=ORIENTED_EDGE('',*,*,#787,.F.);
#698=ORIENTED_EDGE('',*,*,#784,.T.);
#699=ORIENTED_EDGE('',*,*,#834,.T.);
#700=ORIENTED_EDGE('',*,*,#833,.T.);
#701=ORIENTED_EDGE('',*,*,#832,.T.);
#702=ORIENTED_EDGE('',*,*,#831,.T.);
#703=ORIENTED_EDGE('',*,*,#830,.F.);
#704=ORIENTED_EDGE('',*,*,#829,.F.);
#705=ORIENTED_EDGE('',*,*,#826,.F.);
#706=ORIENTED_EDGE('',*,*,#825,.F.);
#707=ORIENTED_EDGE('',*,*,#822,.F.);
#708=ORIENTED_EDGE('',*,*,#821,.F.);
#709=ORIENTED_EDGE('',*,*,#818,.F.);
#710=ORIENTED_EDGE('',*,*,#815,.F.);
#711=EDGE_CURVE('',#835,#836,#837,.T.);
#712=EDGE_CURVE('',#838,#835,#839,.T.);
#713=EDGE_CURVE('',#838,#840,#841,.T.);
#714=EDGE_CURVE('',#836,#840,#842,.T.);
#715=EDGE_CURVE('',#843,#844,#845,.F.);
#716=EDGE_CURVE('',#846,#843,#847,.T.);
#717=EDGE_CURVE('',#848,#846,#849,.T.);
#718=EDGE_CURVE('',#844,#848,#850,.T.);
#719=EDGE_CURVE('',#851,#852,#853,.F.);
#720=EDGE_CURVE('',#854,#851,#855,.T.);
#721=EDGE_CURVE('',#856,#854,#857,.T.);
#722=EDGE_CURVE('',#852,#856,#858,.T.);
#723=EDGE_CURVE('',#859,#860,#861,.T.);
#724=EDGE_CURVE('',#862,#859,#863,.T.);
#725=EDGE_CURVE('',#862,#864,#865,.T.);
#726=EDGE_CURVE('',#860,#864,#866,.T.);
#727=EDGE_CURVE('',#867,#838,#868,.T.);
#728=EDGE_CURVE('',#867,#869,#870,.T.);
#729=EDGE_CURVE('',#869,#840,#871,.F.);
#730=EDGE_CURVE('',#872,#867,#873,.T.);
#731=EDGE_CURVE('',#872,#874,#875,.T.);
#732=EDGE_CURVE('',#869,#874,#876,.T.);
#733=EDGE_CURVE('',#848,#872,#877,.T.);
#734=EDGE_CURVE('',#846,#874,#878,.F.);
#735=EDGE_CURVE('',#879,#862,#880,.T.);
#736=EDGE_CURVE('',#879,#881,#882,.T.);
#737=EDGE_CURVE('',#881,#864,#883,.F.);
#738=EDGE_CURVE('',#884,#885,#886,.T.);
#739=EDGE_CURVE('',#881,#885,#887,.T.);
#740=EDGE_CURVE('',#884,#879,#888,.T.);
#741=EDGE_CURVE('',#856,#884,#889,.T.);
#742=EDGE_CURVE('',#854,#885,#890,.F.);
#743=EDGE_CURVE('',#891,#891,#892,.F.);
#744=EDGE_CURVE('',#893,#893,#894,.F.);
#745=EDGE_CURVE('',#895,#895,#896,.F.);
#746=EDGE_CURVE('',#897,#897,#898,.F.);
#747=EDGE_CURVE('',#851,#899,#900,.T.);
#748=EDGE_CURVE('',#859,#852,#901,.T.);
#749=EDGE_CURVE('',#843,#860,#902,.T.);
#750=EDGE_CURVE('',#835,#844,#903,.T.);
#751=EDGE_CURVE('',#899,#836,#904,.T.);
#752=EDGE_CURVE('',#905,#905,#906,.T.);
#753=EDGE_CURVE('',#907,#908,#909,.T.);
#754=EDGE_CURVE('',#910,#908,#911,.F.);
#755=EDGE_CURVE('',#910,#912,#913,.T.);
#756=EDGE_CURVE('',#912,#914,#915,.T.);
#757=EDGE_CURVE('',#914,#916,#917,.T.);
#758=EDGE_CURVE('',#918,#916,#919,.F.);
#759=EDGE_CURVE('',#918,#920,#921,.T.);
#760=EDGE_CURVE('',#920,#907,#922,.F.);
#761=EDGE_CURVE('',#923,#924,#925,.T.);
#762=EDGE_CURVE('',#926,#924,#927,.F.);
#763=EDGE_CURVE('',#926,#928,#929,.T.);
#764=EDGE_CURVE('',#928,#930,#931,.T.);
#765=EDGE_CURVE('',#930,#932,#933,.T.);
#766=EDGE_CURVE('',#934,#932,#935,.F.);
#767=EDGE_CURVE('',#934,#936,#937,.T.);
#768=EDGE_CURVE('',#936,#938,#939,.F.);
#769=EDGE_CURVE('',#938,#923,#940,.F.);
#770=EDGE_CURVE('',#941,#942,#943,.T.);
#771=EDGE_CURVE('',#942,#944,#945,.T.);
#772=EDGE_CURVE('',#944,#946,#947,.T.);
#773=EDGE_CURVE('',#946,#948,#949,.T.);
#774=EDGE_CURVE('',#948,#950,#951,.T.);
#775=EDGE_CURVE('',#950,#952,#953,.T.);
#776=EDGE_CURVE('',#952,#954,#955,.T.);
#777=EDGE_CURVE('',#954,#941,#956,.T.);
#778=EDGE_CURVE('',#957,#957,#958,.F.);
#779=EDGE_CURVE('',#959,#959,#960,.F.);
#780=EDGE_CURVE('',#961,#961,#962,.F.);
#781=EDGE_CURVE('',#963,#963,#964,.F.);
#782=EDGE_CURVE('',#965,#965,#966,.T.);
#783=EDGE_CURVE('',#967,#907,#968,.T.);
#784=EDGE_CURVE('',#969,#967,#970,.F.);
#785=EDGE_CURVE('',#969,#908,#971,.T.);
#786=EDGE_CURVE('',#972,#910,#973,.T.);
#787=EDGE_CURVE('',#969,#972,#974,.F.);
#788=EDGE_CURVE('',#972,#975,#976,.T.);
#789=EDGE_CURVE('',#975,#912,#977,.T.);
#790=EDGE_CURVE('',#975,#978,#979,.T.);
#791=EDGE_CURVE('',#978,#914,#980,.T.);
#792=EDGE_CURVE('',#978,#981,#982,.T.);
#793=EDGE_CURVE('',#981,#916,#983,.T.);
#794=EDGE_CURVE('',#981,#984,#985,.F.);
#795=EDGE_CURVE('',#918,#984,#986,.T.);
#796=EDGE_CURVE('',#920,#987,#988,.F.);
#797=EDGE_CURVE('',#987,#984,#989,.F.);
#798=EDGE_CURVE('',#936,#990,#991,.F.);
#799=EDGE_CURVE('',#990,#967,#992,.T.);
#800=EDGE_CURVE('',#987,#993,#994,.T.);
#801=EDGE_CURVE('',#993,#923,#995,.T.);
#802=EDGE_CURVE('',#996,#993,#997,.F.);
#803=EDGE_CURVE('',#996,#924,#998,.T.);
#804=EDGE_CURVE('',#999,#926,#1000,.T.);
#805=EDGE_CURVE('',#996,#999,#1001,.F.);
#806=EDGE_CURVE('',#999,#1002,#1003,.T.);
#807=EDGE_CURVE('',#1002,#928,#1004,.T.);
#808=EDGE_CURVE('',#1002,#1005,#1006,.T.);
#809=EDGE_CURVE('',#1005,#930,#1007,.T.);
#810=EDGE_CURVE('',#1005,#1008,#1009,.T.);
#811=EDGE_CURVE('',#1008,#932,#1010,.T.);
#812=EDGE_CURVE('',#1008,#1011,#1012,.F.);
#813=EDGE_CURVE('',#934,#1011,#1013,.T.);
#814=EDGE_CURVE('',#990,#1011,#1014,.F.);
#815=EDGE_CURVE('',#1015,#1016,#1017,.T.);
#816=EDGE_CURVE('',#1016,#942,#1018,.T.);
#817=EDGE_CURVE('',#1015,#941,#1019,.T.);
#818=EDGE_CURVE('',#1016,#1020,#1021,.T.);
#819=EDGE_CURVE('',#1020,#944,#1022,.T.);
#820=EDGE_CURVE('',#1023,#946,#1024,.T.);
#821=EDGE_CURVE('',#1020,#1023,#1025,.T.);
#822=EDGE_CURVE('',#1023,#1026,#1027,.T.);
#823=EDGE_CURVE('',#1026,#948,#1028,.T.);
#824=EDGE_CURVE('',#1029,#950,#1030,.T.);
#825=EDGE_CURVE('',#1026,#1029,#1031,.T.);
#826=EDGE_CURVE('',#1029,#1032,#1033,.T.);
#827=EDGE_CURVE('',#1032,#952,#1034,.T.);
#828=EDGE_CURVE('',#1035,#954,#1036,.T.);
#829=EDGE_CURVE('',#1032,#1035,#1037,.T.);
#830=EDGE_CURVE('',#1035,#1015,#1038,.T.);
#831=EDGE_CURVE('',#1039,#1039,#1040,.T.);
#832=EDGE_CURVE('',#1041,#1041,#1042,.T.);
#833=EDGE_CURVE('',#1043,#1043,#1044,.T.);
#834=EDGE_CURVE('',#1045,#1045,#1046,.T.);
#835=VERTEX_POINT('',#1047);
#836=VERTEX_POINT('',#1048);
#837=LINE('',#1049,#1050);
#838=VERTEX_POINT('',#1052);
#839=LINE('',#1053,#1054);
#840=VERTEX_POINT('',#1056);
#841=LINE('',#1057,#1058);
#842=LINE('',#1060,#1061);
#843=VERTEX_POINT('',#1063);
#844=VERTEX_POINT('',#1064);
#845=LINE('',#1065,#1066);
#846=VERTEX_POINT('',#1068);
#847=LINE('',#1069,#1070);
#848=VERTEX_POINT('',#1072);
#849=LINE('',#1073,#1074);
#850=LINE('',#1076,#1077);
#851=VERTEX_POINT('',#1079);
#852=VERTEX_POINT('',#1080);
#853=LINE('',#1081,#1082);
#854=VERTEX_POINT('',#1084);
#855=LINE('',#1085,#1086);
#856=VERTEX_POINT('',#1088);
#857=LINE('',#1089,#1090);
#858=LINE('',#1092,#1093);
#859=VERTEX_POINT('',#1095);
#860=VERTEX_POINT('',#1096);
#861=LINE('',#1097,#1098);
#862=VERTEX_POINT('',#1100);
#863=LINE('',#1101,#1102);
#864=VERTEX_POINT('',#1104);
#865=LINE('',#1105,#1106);
#866=LINE('',#1108,#1109);
#867=VERTEX_POINT('',#1111);
#868=CIRCLE('',#1112,3.5);
#869=VERTEX_POINT('',#1116);
#870=LINE('',#1117,#1118);
#871=CIRCLE('',#1120,3.5);
#872=VERTEX_POINT('',#1124);
#873=LINE('',#1125,#1126);
#874=VERTEX_POINT('',#1128);
#875=LINE('',#1129,#1130);
#876=LINE('',#1132,#1133);
#877=CIRCLE('',#1135,3.5);
#878=CIRCLE('',#1139,3.5);
#879=VERTEX_POINT('',#1143);
#880=CIRCLE('',#1144,3.5);
#881=VERTEX_POINT('',#1148);
#882=LINE('',#1149,#1150);
#883=CIRCLE('',#1152,3.5);
#884=VERTEX_POINT('',#1156);
#885=VERTEX_POINT('',#1157);
#886=LINE('',#1158,#1159);
#887=LINE('',#1161,#1162);
#888=LINE('',#1164,#1165);
#889=CIRCLE('',#1167,3.5);
#890=CIRCLE('',#1171,3.5);
#891=VERTEX_POINT('',#1175);
#892=CIRCLE('',#1176,1.6);
#893=VERTEX_POINT('',#1180);
#894=CIRCLE('',#1181,1.6);
#895=VERTEX_POINT('',#1185);
#896=CIRCLE('',#1186,1.6);
#897=VERTEX_POINT('',#1190);
#898=CIRCLE('',#1191,1.6);
#899=VERTEX_POINT('',#1195);
#900=CIRCLE('',#1196,18.25);
#901=CIRCLE('',#1200,18.25);
#902=CIRCLE('',#1204,18.25);
#903=CIRCLE('',#1208,18.25);
#904=CIRCLE('',#1212,18.25);
#905=VERTEX_POINT('',#1216);
#906=CIRCLE('',#1217,18.25);
#907=VERTEX_POINT('',#1221);
#908=VERTEX_POINT('',#1222);
#909=LINE('',#1223,#1224);
#910=VERTEX_POINT('',#1226);
#911=CIRCLE('',#1227,3.5);
#912=VERTEX_POINT('',#1231);
#913=CIRCLE('',#1232,3.5);
#914=VERTEX_POINT('',#1236);
#915=LINE('',#1237,#1238);
#916=VERTEX_POINT('',#1240);
#917=CIRCLE('',#1241,3.5);
#918=VERTEX_POINT('',#1245);
#919=CIRCLE('',#1246,3.5);
#920=VERTEX_POINT('',#1250);
#921=LINE('',#1251,#1252);
#922=CIRCLE('',#1254,16.5);
#923=VERTEX_POINT('',#1258);
#924=VERTEX_POINT('',#1259);
#925=LINE('',#1260,#1261);
#926=VERTEX_POINT('',#1263);
#927=CIRCLE('',#1264,3.5);
#928=VERTEX_POINT('',#1268);
#929=CIRCLE('',#1269,3.5);
#930=VERTEX_POINT('',#1273);
#931=LINE('',#1274,#1275);
#932=VERTEX_POINT('',#1277);
#933=CIRCLE('',#1278,3.5);
#934=VERTEX_POINT('',#1282);
#935=CIRCLE('',#1283,3.5);
#936=VERTEX_POINT('',#1287);
#937=LINE('',#1288,#1289);
#938=VERTEX_POINT('',#1291);
#939=CIRCLE('',#1292,16.5);
#940=CIRCLE('',#1296,16.5);
#941=VERTEX_POINT('',#1300);
#942=VERTEX_POINT('',#1301);
#943=LINE('',#1302,#1303);
#944=VERTEX_POINT('',#1305);
#945=CIRCLE('',#1306,3.5);
#946=VERTEX_POINT('',#1310);
#947=LINE('',#1311,#1312);
#948=VERTEX_POINT('',#1314);
#949=CIRCLE('',#1315,3.5);
#950=VERTEX_POINT('',#1319);
#951=LINE('',#1320,#1321);
#952=VERTEX_POINT('',#1323);
#953=CIRCLE('',#1324,3.5);
#954=VERTEX_POINT('',#1328);
#955=LINE('',#1329,#1330);
#956=CIRCLE('',#1332,3.5);
#957=VERTEX_POINT('',#1336);
#958=CIRCLE('',#1337,1.6);
#959=VERTEX_POINT('',#1341);
#960=CIRCLE('',#1342,1.6);
#961=VERTEX_POINT('',#1346);
#962=CIRCLE('',#1347,1.6);
#963=VERTEX_POINT('',#1351);
#964=CIRCLE('',#1352,1.6);
#965=VERTEX_POINT('',#1356);
#966=CIRCLE('',#1357,16.5);
#967=VERTEX_POINT('',#1361);
#968=LINE('',#1362,#1363);
#969=VERTEX_POINT('',#1365);
#970=LINE('',#1366,#1367);
#971=LINE('',#1369,#1370);
#972=VERTEX_POINT('',#1372);
#973=LINE('',#1373,#1374);
#974=CIRCLE('',#1376,3.5);
#975=VERTEX_POINT('',#1380);
#976=CIRCLE('',#1381,3.5);
#977=LINE('',#1385,#1386);
#978=VERTEX_POINT('',#1388);
#979=LINE('',#1389,#1390);
#980=LINE('',#1392,#1393);
#981=VERTEX_POINT('',#1395);
#982=CIRCLE('',#1396,3.5);
#983=LINE('',#1400,#1401);
#984=VERTEX_POINT('',#1403);
#985=CIRCLE('',#1404,3.50000000000001);
#986=LINE('',#1408,#1409);
#987=VERTEX_POINT('',#1411);
#988=LINE('',#1412,#1413);
#989=LINE('',#1415,#1416);
#990=VERTEX_POINT('',#1418);
#991=LINE('',#1419,#1420);
#992=CIRCLE('',#1422,16.5);
#993=VERTEX_POINT('',#1426);
#994=CIRCLE('',#1427,16.5);
#995=LINE('',#1431,#1432);
#996=VERTEX_POINT('',#1434);
#997=LINE('',#1435,#1436);
#998=LINE('',#1438,#1439);
#999=VERTEX_POINT('',#1441);
#1000=LINE('',#1442,#1443);
#1001=CIRCLE('',#1445,3.50000000000001);
#1002=VERTEX_POINT('',#1449);
#1003=CIRCLE('',#1450,3.5);
#1004=LINE('',#1454,#1455);
#1005=VERTEX_POINT('',#1457);
#1006=LINE('',#1458,#1459);
#1007=LINE('',#1461,#1462);
#1008=VERTEX_POINT('',#1464);
#1009=CIRCLE('',#1465,3.5);
#1010=LINE('',#1469,#1470);
#1011=VERTEX_POINT('',#1472);
#1012=CIRCLE('',#1473,3.5);
#1013=LINE('',#1477,#1478);
#1014=LINE('',#1480,#1481);
#1015=VERTEX_POINT('',#1483);
#1016=VERTEX_POINT('',#1484);
#1017=LINE('',#1485,#1486);
#1018=LINE('',#1488,#1489);
#1019=LINE('',#1491,#1492);
#1020=VERTEX_POINT('',#1494);
#1021=CIRCLE('',#1495,3.5);
#1022=LINE('',#1499,#1500);
#1023=VERTEX_POINT('',#1502);
#1024=LINE('',#1503,#1504);
#1025=LINE('',#1506,#1507);
#1026=VERTEX_POINT('',#1509);
#1027=CIRCLE('',#1510,3.5);
#1028=LINE('',#1514,#1515);
#1029=VERTEX_POINT('',#1517);
#1030=LINE('',#1518,#1519);
#1031=LINE('',#1521,#1522);
#1032=VERTEX_POINT('',#1524);
#1033=CIRCLE('',#1525,3.5);
#1034=LINE('',#1529,#1530);
#1035=VERTEX_POINT('',#1532);
#1036=LINE('',#1533,#1534);
#1037=LINE('',#1536,#1537);
#1038=CIRCLE('',#1539,3.5);
#1039=VERTEX_POINT('',#1543);
#1040=CIRCLE('',#1544,1.6);
#1041=VERTEX_POINT('',#1548);
#1042=CIRCLE('',#1549,1.6);
#1043=VERTEX_POINT('',#1553);
#1044=CIRCLE('',#1554,1.6);
#1045=VERTEX_POINT('',#1558);
#1046=CIRCLE('',#1559,1.6);
#1047=CARTESIAN_POINT('',(-0.999999999999997,5.,17.5517093184681));
#1048=CARTESIAN_POINT('',(2.,5.,17.5517093184681));
#1049=CARTESIAN_POINT('',(-0.999999999999997,5.,17.5517093184681));
#1050=VECTOR('',#1051,1.);
#1051=DIRECTION('',(1.,-5.9211894646675E-16,1.1842378929335E-15));
#1052=CARTESIAN_POINT('',(-0.999999999999995,5.,26.));
#1053=CARTESIAN_POINT('',(-0.999999999999995,5.,26.));
#1054=VECTOR('',#1055,1.);
#1055=DIRECTION('',(-1.8397949278343E-16,2.10262277466778E-16,-1.));
#1056=CARTESIAN_POINT('',(2.,5.,26.));
#1057=CARTESIAN_POINT('',(-0.999999999999998,5.,26.));
#1058=VECTOR('',#1059,1.);
#1059=DIRECTION('',(1.,0.,0.));
#1060=CARTESIAN_POINT('',(2.,5.,17.5517093184681));
#1061=VECTOR('',#1062,1.);
#1062=DIRECTION('',(2.10262277466778E-16,-1.05131138733389E-16,1.));
#1063=CARTESIAN_POINT('',(2.,-5.,17.5517093184681));
#1064=CARTESIAN_POINT('',(-0.999999999999997,-5.,17.5517093184681));
#1065=CARTESIAN_POINT('',(-0.999999999999997,-5.,17.5517093184681));
#1066=VECTOR('',#1067,1.);
#1067=DIRECTION('',(1.,0.,0.));
#1068=CARTESIAN_POINT('',(2.,-5.,26.));
#1069=CARTESIAN_POINT('',(2.,-5.,26.));
#1070=VECTOR('',#1071,1.);
#1071=DIRECTION('',(-1.57696708100083E-16,1.05131138733389E-16,-1.));
#1072=CARTESIAN_POINT('',(-0.999999999999995,-5.,26.));
#1073=CARTESIAN_POINT('',(-0.999999999999995,-5.,26.));
#1074=VECTOR('',#1075,1.);
#1075=DIRECTION('',(1.,0.,0.));
#1076=CARTESIAN_POINT('',(-0.999999999999997,-5.,17.5517093184681));
#1077=VECTOR('',#1078,1.);
#1078=DIRECTION('',(1.8397949278343E-16,-1.05131138733389E-16,1.));
#1079=CARTESIAN_POINT('',(2.,5.,-17.5517093184681));
#1080=CARTESIAN_POINT('',(-1.,5.,-17.5517093184681));
#1081=CARTESIAN_POINT('',(-1.00000000000001,5.,-17.5517093184681));
#1082=VECTOR('',#1083,1.);
#1083=DIRECTION('',(1.,0.,0.));
#1084=CARTESIAN_POINT('',(1.99999999999999,5.,-26.));
#1085=CARTESIAN_POINT('',(2.,5.,-26.));
#1086=VECTOR('',#1087,1.);
#1087=DIRECTION('',(1.57696708100083E-16,0.,1.));
#1088=CARTESIAN_POINT('',(-1.,5.,-26.));
#1089=CARTESIAN_POINT('',(-1.00000000000001,5.,-26.));
#1090=VECTOR('',#1091,1.);
#1091=DIRECTION('',(1.,0.,0.));
#1092=CARTESIAN_POINT('',(-1.,5.,-17.5517093184681));
#1093=VECTOR('',#1094,1.);
#1094=DIRECTION('',(-1.8397949278343E-16,0.,-1.));
#1095=CARTESIAN_POINT('',(-1.,-5.,-17.5517093184681));
#1096=CARTESIAN_POINT('',(2.,-5.,-17.5517093184681));
#1097=CARTESIAN_POINT('',(-1.00000000000001,-5.,-17.5517093184681));
#1098=VECTOR('',#1099,1.);
#1099=DIRECTION('',(1.,0.,0.));
#1100=CARTESIAN_POINT('',(-1.,-5.,-26.));
#1101=CARTESIAN_POINT('',(-1.,-5.,-26.));
#1102=VECTOR('',#1103,1.);
#1103=DIRECTION('',(1.8397949278343E-16,-1.05131138733389E-16,1.));
#1104=CARTESIAN_POINT('',(1.99999999999999,-5.,-26.));
#1105=CARTESIAN_POINT('',(-1.00000000000001,-5.,-26.));
#1106=VECTOR('',#1107,1.);
#1107=DIRECTION('',(1.,0.,-2.368475785867E-15));
#1108=CARTESIAN_POINT('',(2.,-5.,-17.5517093184681));
#1109=VECTOR('',#1110,1.);
#1110=DIRECTION('',(-2.10262277466778E-16,1.05131138733389E-16,-1.));
#1111=CARTESIAN_POINT('',(-0.999999999999994,1.5,29.5));
#1112=AXIS2_PLACEMENT_3D('',#1113,#1114,#1115);
#1113=CARTESIAN_POINT('',(-0.999999999999995,1.5,26.));
#1114=DIRECTION('',(-1.,0.,1.83697019872103E-16));
#1115=DIRECTION('',(1.83697019872103E-16,-2.53765262771464E-16,1.));
#1116=CARTESIAN_POINT('',(2.,1.5,29.5));
#1117=CARTESIAN_POINT('',(-0.999999999999998,1.5,29.5));
#1118=VECTOR('',#1119,1.);
#1119=DIRECTION('',(1.,1.48029736616688E-16,0.));
#1120=AXIS2_PLACEMENT_3D('',#1121,#1122,#1123);
#1121=CARTESIAN_POINT('',(2.,1.5,26.));
#1122=DIRECTION('',(1.,0.,-1.83697019872103E-16));
#1123=DIRECTION('',(0.,1.,0.));
#1124=CARTESIAN_POINT('',(-0.999999999999994,-1.5,29.5));
#1125=CARTESIAN_POINT('',(-0.999999999999995,-1.5,29.5));
#1126=VECTOR('',#1127,1.);
#1127=DIRECTION('',(0.,1.,0.));
#1128=CARTESIAN_POINT('',(2.,-1.5,29.5));
#1129=CARTESIAN_POINT('',(-0.999999999999995,-1.5,29.5));
#1130=VECTOR('',#1131,1.);
#1131=DIRECTION('',(1.,2.96059473233375E-16,0.));
#1132=CARTESIAN_POINT('',(2.00000000000001,1.5,29.5));
#1133=VECTOR('',#1134,1.);
#1134=DIRECTION('',(0.,-1.,0.));
#1135=AXIS2_PLACEMENT_3D('',#1136,#1137,#1138);
#1136=CARTESIAN_POINT('',(-0.999999999999995,-1.5,26.));
#1137=DIRECTION('',(-1.,2.18952885050753E-47,1.83697019872103E-16));
#1138=DIRECTION('',(1.86463690072716E-31,-1.,1.01506105108586E-15));
#1139=AXIS2_PLACEMENT_3D('',#1140,#1141,#1142);
#1140=CARTESIAN_POINT('',(2.,-1.5,26.));
#1141=DIRECTION('',(1.,0.,-1.83697019872103E-16));
#1142=DIRECTION('',(1.83697019872103E-16,4.44089209850062E-16,1.));
#1143=CARTESIAN_POINT('',(-1.00000000000001,-1.5,-29.5));
#1144=AXIS2_PLACEMENT_3D('',#1145,#1146,#1147);
#1145=CARTESIAN_POINT('',(-1.,-1.5,-26.));
#1146=DIRECTION('',(-1.,0.,1.83697019872103E-16));
#1147=DIRECTION('',(-1.83697019872103E-16,-1.26882631385732E-16,-1.));
#1148=CARTESIAN_POINT('',(1.99999999999999,-1.5,-29.5));
#1149=CARTESIAN_POINT('',(-1.00000000000001,-1.5,-29.5));
#1150=VECTOR('',#1151,1.);
#1151=DIRECTION('',(1.,0.,0.));
#1152=AXIS2_PLACEMENT_3D('',#1153,#1154,#1155);
#1153=CARTESIAN_POINT('',(2.,-1.5,-26.));
#1154=DIRECTION('',(1.,0.,-1.83697019872103E-16));
#1155=DIRECTION('',(3.72927380145433E-31,-1.,2.03012210217171E-15));
#1156=CARTESIAN_POINT('',(-1.00000000000001,1.5,-29.5));
#1157=CARTESIAN_POINT('',(1.99999999999999,1.5,-29.5));
#1158=CARTESIAN_POINT('',(-1.00000000000001,1.5,-29.5));
#1159=VECTOR('',#1160,1.);
#1160=DIRECTION('',(1.,6.66133814775094E-16,0.));
#1161=CARTESIAN_POINT('',(1.99999999999999,-1.5,-29.5));
#1162=VECTOR('',#1163,1.);
#1163=DIRECTION('',(7.40148683083438E-17,1.,0.));
#1164=CARTESIAN_POINT('',(-1.00000000000001,1.5,-29.5));
#1165=VECTOR('',#1166,1.);
#1166=DIRECTION('',(0.,-1.,0.));
#1167=AXIS2_PLACEMENT_3D('',#1168,#1169,#1170);
#1168=CARTESIAN_POINT('',(-1.,1.5,-26.));
#1169=DIRECTION('',(-1.,0.,1.83697019872103E-16));
#1170=DIRECTION('',(0.,1.,0.));
#1171=AXIS2_PLACEMENT_3D('',#1172,#1173,#1174);
#1172=CARTESIAN_POINT('',(2.,1.5,-26.));
#1173=DIRECTION('',(1.,0.,-1.83697019872103E-16));
#1174=DIRECTION('',(-1.83697019872103E-16,-1.01506105108586E-15,-1.));
#1175=CARTESIAN_POINT('',(2.,1.6,24.5));
#1176=AXIS2_PLACEMENT_3D('',#1177,#1178,#1179);
#1177=CARTESIAN_POINT('',(2.,1.22464679914735E-16,24.5));
#1178=DIRECTION('',(1.,0.,-1.83697019872103E-16));
#1179=DIRECTION('',(1.12481983699639E-32,1.,6.12323399573677E-17));
#1180=CARTESIAN_POINT('',(-0.999999999999995,1.6,24.5));
#1181=AXIS2_PLACEMENT_3D('',#1182,#1183,#1184);
#1182=CARTESIAN_POINT('',(-0.999999999999995,1.22464679914735E-16,24.5));
#1183=DIRECTION('',(-1.,0.,1.83697019872103E-16));
#1184=DIRECTION('',(1.12481983699639E-32,1.,6.12323399573677E-17));
#1185=CARTESIAN_POINT('',(2.,1.6,-24.5));
#1186=AXIS2_PLACEMENT_3D('',#1187,#1188,#1189);
#1187=CARTESIAN_POINT('',(2.,-1.22464679914735E-16,-24.5));
#1188=DIRECTION('',(1.,0.,-1.83697019872103E-16));
#1189=DIRECTION('',(1.12481983699639E-32,1.,6.12323399573677E-17));
#1190=CARTESIAN_POINT('',(-1.,1.6,-24.5));
#1191=AXIS2_PLACEMENT_3D('',#1192,#1193,#1194);
#1192=CARTESIAN_POINT('',(-1.,-1.22464679914735E-16,-24.5));
#1193=DIRECTION('',(-1.,0.,1.83697019872103E-16));
#1194=DIRECTION('',(1.12481983699639E-32,1.,6.12323399573677E-17));
#1195=CARTESIAN_POINT('',(2.,18.25,-1.48488424396617E-15));
#1196=AXIS2_PLACEMENT_3D('',#1197,#1198,#1199);
#1197=CARTESIAN_POINT('',(2.,0.,-3.67394039744206E-16));
#1198=DIRECTION('',(1.,0.,-1.83697019872103E-16));
#1199=DIRECTION('',(-1.7666831208022E-16,0.273972602739726,-0.961737496902362));
#1200=AXIS2_PLACEMENT_3D('',#1201,#1202,#1203);
#1201=CARTESIAN_POINT('',(-1.,0.,1.83697019872103E-16));
#1202=DIRECTION('',(1.,0.,-1.83697019872103E-16));
#1203=DIRECTION('',(-1.7666831208022E-16,-0.273972602739726,-0.961737496902362));
#1204=AXIS2_PLACEMENT_3D('',#1205,#1206,#1207);
#1205=CARTESIAN_POINT('',(2.,0.,-3.67394039744206E-16));
#1206=DIRECTION('',(1.,0.,-1.83697019872103E-16));
#1207=DIRECTION('',(1.7666831208022E-16,-0.273972602739726,0.961737496902362));
#1208=AXIS2_PLACEMENT_3D('',#1209,#1210,#1211);
#1209=CARTESIAN_POINT('',(-1.,0.,1.83697019872103E-16));
#1210=DIRECTION('',(1.,0.,-1.83697019872103E-16));
#1211=DIRECTION('',(1.7666831208022E-16,0.273972602739726,0.961737496902362));
#1212=AXIS2_PLACEMENT_3D('',#1213,#1214,#1215);
#1213=CARTESIAN_POINT('',(2.,0.,-3.67394039744206E-16));
#1214=DIRECTION('',(1.,0.,-1.83697019872103E-16));
#1215=DIRECTION('',(1.12481983699639E-32,1.,6.12323399573677E-17));
#1216=CARTESIAN_POINT('',(-5.,18.25,-1.99005104861445E-16));
#1217=AXIS2_PLACEMENT_3D('',#1218,#1219,#1220);
#1218=CARTESIAN_POINT('',(-5.,0.,9.18485099360515E-16));
#1219=DIRECTION('',(1.,0.,-1.83697019872103E-16));
#1220=DIRECTION('',(1.12481983699639E-32,1.,6.12323399573677E-17));
#1221=CARTESIAN_POINT('',(2.,-5.,15.7241851935164));
#1222=CARTESIAN_POINT('',(2.,-5.,15.5));
#1223=CARTESIAN_POINT('',(2.,-5.,15.7241851935164));
#1224=VECTOR('',#1225,1.);
#1225=DIRECTION('',(0.,0.,-1.));
#1226=CARTESIAN_POINT('',(2.,-8.5,12.));
#1227=AXIS2_PLACEMENT_3D('',#1228,#1229,#1230);
#1228=CARTESIAN_POINT('',(2.,-8.5,15.5));
#1229=DIRECTION('',(-1.,0.,1.83697019872103E-16));
#1230=DIRECTION('',(0.,1.,0.));
#1231=CARTESIAN_POINT('',(2.,-12.,8.49999999999999));
#1232=AXIS2_PLACEMENT_3D('',#1233,#1234,#1235);
#1233=CARTESIAN_POINT('',(2.,-8.5,8.5));
#1234=DIRECTION('',(1.,0.,-1.83697019872103E-16));
#1235=DIRECTION('',(1.83697019872103E-16,0.,1.));
#1236=CARTESIAN_POINT('',(2.,-12.,-8.5));
#1237=CARTESIAN_POINT('',(2.,-12.,8.49999999999999));
#1238=VECTOR('',#1239,1.);
#1239=DIRECTION('',(-7.83686840911875E-17,3.1347473636475E-16,-1.));
#1240=CARTESIAN_POINT('',(2.,-8.5,-12.));
#1241=AXIS2_PLACEMENT_3D('',#1242,#1243,#1244);
#1242=CARTESIAN_POINT('',(2.,-8.5,-8.5));
#1243=DIRECTION('',(1.,4.95559055215198E-50,-1.83697019872103E-16));
#1244=DIRECTION('',(4.95559055215198E-50,-1.,-9.10327216136669E-66));
#1245=CARTESIAN_POINT('',(2.,-5.,-15.5));
#1246=AXIS2_PLACEMENT_3D('',#1247,#1248,#1249);
#1247=CARTESIAN_POINT('',(2.,-8.5,-15.5));
#1248=DIRECTION('',(-1.,0.,1.83697019872103E-16));
#1249=DIRECTION('',(1.83697019872103E-16,3.04518315325757E-15,1.));
#1250=CARTESIAN_POINT('',(2.,-5.,-15.7241851935164));
#1251=CARTESIAN_POINT('',(2.,-5.,-15.5));
#1252=VECTOR('',#1253,1.);
#1253=DIRECTION('',(0.,0.,-1.));
#1254=AXIS2_PLACEMENT_3D('',#1255,#1256,#1257);
#1255=CARTESIAN_POINT('',(2.,0.,-3.67394039744206E-16));
#1256=DIRECTION('',(1.,0.,-1.83697019872103E-16));
#1257=DIRECTION('',(1.75059755149455E-16,-0.303030303030303,0.952980920819175));
#1258=CARTESIAN_POINT('',(2.,5.,-15.7241851935164));
#1259=CARTESIAN_POINT('',(2.,5.,-15.5));
#1260=CARTESIAN_POINT('',(2.,5.,-15.7241851935164));
#1261=VECTOR('',#1262,1.);
#1262=DIRECTION('',(0.,0.,1.));
#1263=CARTESIAN_POINT('',(2.,8.5,-12.));
#1264=AXIS2_PLACEMENT_3D('',#1265,#1266,#1267);
#1265=CARTESIAN_POINT('',(2.,8.5,-15.5));
#1266=DIRECTION('',(-1.,0.,1.83697019872103E-16));
#1267=DIRECTION('',(0.,-1.,0.));
#1268=CARTESIAN_POINT('',(2.,12.,-8.5));
#1269=AXIS2_PLACEMENT_3D('',#1270,#1271,#1272);
#1270=CARTESIAN_POINT('',(2.,8.5,-8.5));
#1271=DIRECTION('',(1.,-1.3684555315672E-48,-1.83697019872103E-16));
#1272=DIRECTION('',(-1.83697019872103E-16,-9.06865519302168E-66,-1.));
#1273=CARTESIAN_POINT('',(2.,12.,8.5));
#1274=CARTESIAN_POINT('',(2.,12.,-8.49999999999999));
#1275=VECTOR('',#1276,1.);
#1276=DIRECTION('',(1.0449157878825E-16,-2.089831575765E-16,1.));
#1277=CARTESIAN_POINT('',(2.,8.5,12.));
#1278=AXIS2_PLACEMENT_3D('',#1279,#1280,#1281);
#1279=CARTESIAN_POINT('',(2.,8.5,8.5));
#1280=DIRECTION('',(1.,-2.73691106313441E-48,-1.83697019872103E-16));
#1281=DIRECTION('',(2.73691106313441E-48,1.,-5.0276240595278E-64));
#1282=CARTESIAN_POINT('',(2.,5.,15.5));
#1283=AXIS2_PLACEMENT_3D('',#1284,#1285,#1286);
#1284=CARTESIAN_POINT('',(2.,8.5,15.5));
#1285=DIRECTION('',(-1.,0.,1.83697019872103E-16));
#1286=DIRECTION('',(-1.83697019872103E-16,-1.01506105108586E-15,-1.));
#1287=CARTESIAN_POINT('',(2.,5.,15.7241851935164));
#1288=CARTESIAN_POINT('',(2.,5.,15.5));
#1289=VECTOR('',#1290,1.);
#1290=DIRECTION('',(1.98090339011438E-15,0.,1.));
#1291=CARTESIAN_POINT('',(2.,16.5,-1.37772764904077E-15));
#1292=AXIS2_PLACEMENT_3D('',#1293,#1294,#1295);
#1293=CARTESIAN_POINT('',(2.,0.,-3.67394039744206E-16));
#1294=DIRECTION('',(1.,0.,-1.83697019872103E-16));
#1295=DIRECTION('',(1.12481983699639E-32,1.,6.12323399573677E-17));
#1296=AXIS2_PLACEMENT_3D('',#1297,#1298,#1299);
#1297=CARTESIAN_POINT('',(2.,0.,-3.67394039744206E-16));
#1298=DIRECTION('',(1.,0.,-1.83697019872103E-16));
#1299=DIRECTION('',(-1.75059755149455E-16,0.303030303030303,-0.952980920819175));
#1300=CARTESIAN_POINT('',(2.,-5.,8.5));
#1301=CARTESIAN_POINT('',(2.,5.,8.5));
#1302=CARTESIAN_POINT('',(2.,-5.,8.5));
#1303=VECTOR('',#1304,1.);
#1304=DIRECTION('',(-4.44089209850063E-17,1.,1.77635683940025E-16));
#1305=CARTESIAN_POINT('',(2.,8.5,5.));
#1306=AXIS2_PLACEMENT_3D('',#1307,#1308,#1309);
#1307=CARTESIAN_POINT('',(2.,8.5,8.5));
#1308=DIRECTION('',(1.,-2.73691106313441E-48,-1.83697019872103E-16));
#1309=DIRECTION('',(-2.73691106313441E-48,-1.,5.0276240595278E-64));
#1310=CARTESIAN_POINT('',(2.,8.5,-5.));
#1311=CARTESIAN_POINT('',(2.,8.5,5.));
#1312=VECTOR('',#1313,1.);
#1313=DIRECTION('',(-1.33226762955019E-16,0.,-1.));
#1314=CARTESIAN_POINT('',(2.,5.,-8.5));
#1315=AXIS2_PLACEMENT_3D('',#1316,#1317,#1318);
#1316=CARTESIAN_POINT('',(2.,8.5,-8.5));
#1317=DIRECTION('',(1.,-1.3684555315672E-48,-1.83697019872103E-16));
#1318=DIRECTION('',(1.83697019872103E-16,9.06865519302168E-66,1.));
#1319=CARTESIAN_POINT('',(2.,-5.,-8.5));
#1320=CARTESIAN_POINT('',(2.,5.,-8.5));
#1321=VECTOR('',#1322,1.);
#1322=DIRECTION('',(-4.44089209850063E-17,-1.,0.));
#1323=CARTESIAN_POINT('',(2.,-8.5,-5.));
#1324=AXIS2_PLACEMENT_3D('',#1325,#1326,#1327);
#1325=CARTESIAN_POINT('',(2.,-8.5,-8.5));
#1326=DIRECTION('',(1.,4.95559055215198E-50,-1.83697019872103E-16));
#1327=DIRECTION('',(-4.95559055215198E-50,1.,9.10327216136669E-66));
#1328=CARTESIAN_POINT('',(2.,-8.5,5.));
#1329=CARTESIAN_POINT('',(2.,-8.5,-5.));
#1330=VECTOR('',#1331,1.);
#1331=DIRECTION('',(4.44089209850063E-17,0.,1.));
#1332=AXIS2_PLACEMENT_3D('',#1333,#1334,#1335);
#1333=CARTESIAN_POINT('',(2.,-8.5,8.5));
#1334=DIRECTION('',(1.,0.,-1.83697019872103E-16));
#1335=DIRECTION('',(-1.83697019872103E-16,0.,-1.));
#1336=CARTESIAN_POINT('',(2.,-6.9,8.5));
#1337=AXIS2_PLACEMENT_3D('',#1338,#1339,#1340);
#1338=CARTESIAN_POINT('',(2.,-8.5,8.5));
#1339=DIRECTION('',(1.,0.,-1.83697019872103E-16));
#1340=DIRECTION('',(1.12481983699639E-32,1.,6.12323399573677E-17));
#1341=CARTESIAN_POINT('',(2.,-8.5,-6.9));
#1342=AXIS2_PLACEMENT_3D('',#1343,#1344,#1345);
#1343=CARTESIAN_POINT('',(2.,-8.5,-8.5));
#1344=DIRECTION('',(1.,0.,-1.83697019872103E-16));
#1345=DIRECTION('',(1.83697019872103E-16,0.,1.));
#1346=CARTESIAN_POINT('',(2.,6.9,-8.5));
#1347=AXIS2_PLACEMENT_3D('',#1348,#1349,#1350);
#1348=CARTESIAN_POINT('',(2.,8.5,-8.5));
#1349=DIRECTION('',(1.,0.,-1.83697019872103E-16));
#1350=DIRECTION('',(1.12481983699639E-32,-1.,6.12323399573677E-17));
#1351=CARTESIAN_POINT('',(2.,8.5,6.9));
#1352=AXIS2_PLACEMENT_3D('',#1353,#1354,#1355);
#1353=CARTESIAN_POINT('',(2.,8.5,8.5));
#1354=DIRECTION('',(1.,0.,-1.83697019872103E-16));
#1355=DIRECTION('',(-1.83697019872103E-16,-1.22464679914735E-16,-1.));
#1356=CARTESIAN_POINT('',(-5.,16.5,-9.18485099360517E-17));
#1357=AXIS2_PLACEMENT_3D('',#1358,#1359,#1360);
#1358=CARTESIAN_POINT('',(-5.,0.,9.18485099360515E-16));
#1359=DIRECTION('',(1.,0.,-1.83697019872103E-16));
#1360=DIRECTION('',(1.12481983699639E-32,1.,6.12323399573677E-17));
#1361=CARTESIAN_POINT('',(2.88753291199571E-15,-5.,15.7241851935164));
#1362=CARTESIAN_POINT('',(-1.77635683940025E-15,-5.00000000000001,15.7241851935164));
#1363=VECTOR('',#1364,1.);
#1364=DIRECTION('',(1.,0.,-8.88178419700123E-16));
#1365=CARTESIAN_POINT('',(2.1333391622727E-15,-5.,15.5));
#1366=CARTESIAN_POINT('',(2.88753291199571E-15,-5.,15.7241851935164));
#1367=VECTOR('',#1368,1.);
#1368=DIRECTION('',(-9.1848509936051E-17,0.,-1.));
#1369=CARTESIAN_POINT('',(1.22124532708767E-15,-5.,15.5));
#1370=VECTOR('',#1371,1.);
#1371=DIRECTION('',(1.,0.,0.));
#1372=CARTESIAN_POINT('',(2.06169510544357E-15,-8.5,12.));
#1373=CARTESIAN_POINT('',(1.77635683940025E-15,-8.5,12.));
#1374=VECTOR('',#1375,1.);
#1375=DIRECTION('',(1.,0.,0.));
#1376=AXIS2_PLACEMENT_3D('',#1377,#1378,#1379);
#1377=CARTESIAN_POINT('',(2.84730380801759E-15,-8.5,15.5));
#1378=DIRECTION('',(1.,0.,-1.83697019872103E-16));
#1379=DIRECTION('',(-1.83697019872103E-16,-1.01506105108586E-15,-1.));
#1380=CARTESIAN_POINT('',(1.56142466891287E-15,-12.,8.5));
#1381=AXIS2_PLACEMENT_3D('',#1382,#1383,#1384);
#1382=CARTESIAN_POINT('',(1.56142466891287E-15,-8.5,8.5));
#1383=DIRECTION('',(1.,0.,-1.83697019872103E-16));
#1384=DIRECTION('',(1.83697019872103E-16,0.,1.));
#1385=CARTESIAN_POINT('',(1.56142466891287E-15,-12.,8.5));
#1386=VECTOR('',#1387,1.);
#1387=DIRECTION('',(1.,0.,0.));
#1388=CARTESIAN_POINT('',(2.20436423846523E-15,-12.,-8.5));
#1389=CARTESIAN_POINT('',(1.56142466891287E-15,-12.,8.49999999999999));
#1390=VECTOR('',#1391,1.);
#1391=DIRECTION('',(-7.29385225962762E-17,3.1347473636475E-16,-1.));
#1392=CARTESIAN_POINT('',(2.20436423846523E-15,-12.,-8.5));
#1393=VECTOR('',#1394,1.);
#1394=DIRECTION('',(1.,0.,0.));
#1395=CARTESIAN_POINT('',(-2.14313189850787E-16,-8.5,-12.));
#1396=AXIS2_PLACEMENT_3D('',#1397,#1398,#1399);
#1397=CARTESIAN_POINT('',(-1.56142466891288E-15,-8.5,-8.5));
#1398=DIRECTION('',(1.,4.95559055215198E-50,-1.83697019872103E-16));
#1399=DIRECTION('',(0.,-1.,-1.0350814098765E-47));
#1400=CARTESIAN_POINT('',(1.56142466891288E-15,-8.5,-12.));
#1401=VECTOR('',#1402,1.);
#1402=DIRECTION('',(1.,8.88178419700125E-16,0.));
#1403=CARTESIAN_POINT('',(-1.39319047918926E-15,-5.,-15.5));
#1404=AXIS2_PLACEMENT_3D('',#1405,#1406,#1407);
#1405=CARTESIAN_POINT('',(-2.8473038080176E-15,-8.5,-15.5));
#1406=DIRECTION('',(1.,0.,-1.83697019872103E-16));
#1407=DIRECTION('',(0.,1.,0.));
#1408=CARTESIAN_POINT('',(1.99999999999999,-5.,-15.5));
#1409=VECTOR('',#1410,1.);
#1410=DIRECTION('',(-1.,0.,0.));
#1411=CARTESIAN_POINT('',(-2.88753291199571E-15,-5.,-15.7241851935164));
#1412=CARTESIAN_POINT('',(-3.5527136788005E-15,-5.,-15.7241851935164));
#1413=VECTOR('',#1414,1.);
#1414=DIRECTION('',(1.,0.,0.));
#1415=CARTESIAN_POINT('',(-2.8669418360215E-15,-5.,-15.5));
#1416=VECTOR('',#1417,1.);
#1417=DIRECTION('',(-9.18485099360501E-17,0.,-1.));
#1418=CARTESIAN_POINT('',(2.88753291199571E-15,5.,15.7241851935164));
#1419=CARTESIAN_POINT('',(-3.33066907387547E-15,5.,15.7241851935164));
#1420=VECTOR('',#1421,1.);
#1421=DIRECTION('',(1.,0.,0.));
#1422=AXIS2_PLACEMENT_3D('',#1423,#1424,#1425);
#1423=CARTESIAN_POINT('',(0.,0.,0.));
#1424=DIRECTION('',(1.,0.,-1.83697019872103E-16));
#1425=DIRECTION('',(1.75059755149455E-16,0.303030303030303,0.952980920819175));
#1426=CARTESIAN_POINT('',(-2.88753291199571E-15,5.,-15.7241851935164));
#1427=AXIS2_PLACEMENT_3D('',#1428,#1429,#1430);
#1428=CARTESIAN_POINT('',(0.,0.,0.));
#1429=DIRECTION('',(1.,0.,-1.83697019872103E-16));
#1430=DIRECTION('',(-1.75059755149455E-16,-0.303030303030303,-0.952980920819175));
#1431=CARTESIAN_POINT('',(-4.88498130835069E-15,5.00000000000001,-15.7241851935164));
#1432=VECTOR('',#1433,1.);
#1433=DIRECTION('',(1.,0.,0.));
#1434=CARTESIAN_POINT('',(-3.16954731858951E-15,5.,-15.5));
#1435=CARTESIAN_POINT('',(-2.88753291199571E-15,5.,-15.7241851935164));
#1436=VECTOR('',#1437,1.);
#1437=DIRECTION('',(9.18485099360508E-17,0.,1.));
#1438=CARTESIAN_POINT('',(-3.44169137633798E-15,5.,-15.5));
#1439=VECTOR('',#1440,1.);
#1440=DIRECTION('',(1.,0.,0.));
#1441=CARTESIAN_POINT('',(-1.1842378929335E-15,8.5,-12.));
#1442=CARTESIAN_POINT('',(-3.5527136788005E-15,8.5,-12.));
#1443=VECTOR('',#1444,1.);
#1444=DIRECTION('',(1.,0.,0.));
#1445=AXIS2_PLACEMENT_3D('',#1446,#1447,#1448);
#1446=CARTESIAN_POINT('',(-2.8473038080176E-15,8.5,-15.5));
#1447=DIRECTION('',(1.,0.,-1.83697019872103E-16));
#1448=DIRECTION('',(1.83697019872103E-16,0.,1.));
#1449=CARTESIAN_POINT('',(1.56142466891287E-15,12.,-8.5));
#1450=AXIS2_PLACEMENT_3D('',#1451,#1452,#1453);
#1451=CARTESIAN_POINT('',(-1.56142466891287E-15,8.5,-8.5));
#1452=DIRECTION('',(1.,-1.3684555315672E-48,-1.83697019872103E-16));
#1453=DIRECTION('',(-1.83697019872103E-16,-3.85543239066716E-80,-1.));
#1454=CARTESIAN_POINT('',(1.56142466891287E-15,12.,-8.5));
#1455=VECTOR('',#1456,1.);
#1456=DIRECTION('',(1.,0.,1.77635683940025E-15));
#1457=CARTESIAN_POINT('',(2.20436423846523E-15,12.,8.5));
#1458=CARTESIAN_POINT('',(0.,12.,-8.5));
#1459=VECTOR('',#1460,1.);
#1460=DIRECTION('',(1.10758497275827E-16,-2.089831575765E-16,1.));
#1461=CARTESIAN_POINT('',(2.20436423846523E-15,12.,8.5));
#1462=VECTOR('',#1463,1.);
#1463=DIRECTION('',(1.,0.,0.));
#1464=CARTESIAN_POINT('',(2.43950086205954E-15,8.5,12.));
#1465=AXIS2_PLACEMENT_3D('',#1466,#1467,#1468);
#1466=CARTESIAN_POINT('',(1.56142466891287E-15,8.5,8.5));
#1467=DIRECTION('',(1.,-2.73691106313441E-48,-1.83697019872103E-16));
#1468=DIRECTION('',(0.,1.,1.0350814098765E-47));
#1469=CARTESIAN_POINT('',(1.56142466891288E-15,8.5,12.));
#1470=VECTOR('',#1471,1.);
#1471=DIRECTION('',(1.,0.,0.));
#1472=CARTESIAN_POINT('',(3.3175770552062E-15,5.,15.5));
#1473=AXIS2_PLACEMENT_3D('',#1474,#1475,#1476);
#1474=CARTESIAN_POINT('',(2.8473038080176E-15,8.5,15.5));
#1475=DIRECTION('',(1.,0.,-1.83697019872103E-16));
#1476=DIRECTION('',(0.,-1.,0.));
#1477=CARTESIAN_POINT('',(2.,5.,15.5));
#1478=VECTOR('',#1479,1.);
#1479=DIRECTION('',(-1.,0.,0.));
#1480=CARTESIAN_POINT('',(2.8669418360215E-15,5.,15.5));
#1481=VECTOR('',#1482,1.);
#1482=DIRECTION('',(9.18485099360511E-17,0.,1.));
#1483=CARTESIAN_POINT('',(1.56142466891287E-15,-5.,8.5));
#1484=CARTESIAN_POINT('',(9.18485099360514E-16,5.,8.5));
#1485=CARTESIAN_POINT('',(1.56142466891287E-15,-5.,8.5));
#1486=VECTOR('',#1487,1.);
#1487=DIRECTION('',(-3.2146978477618E-17,1.,1.77635683940025E-16));
#1488=CARTESIAN_POINT('',(9.18485099360514E-16,5.,8.5));
#1489=VECTOR('',#1490,1.);
#1490=DIRECTION('',(1.,0.,0.));
#1491=CARTESIAN_POINT('',(1.56142466891287E-15,-5.,8.5));
#1492=VECTOR('',#1493,1.);
#1493=DIRECTION('',(1.,0.,0.));
#1494=CARTESIAN_POINT('',(1.56142466891287E-15,8.5,5.));
#1495=AXIS2_PLACEMENT_3D('',#1496,#1497,#1498);
#1496=CARTESIAN_POINT('',(1.56142466891287E-15,8.5,8.5));
#1497=DIRECTION('',(1.,-2.73691106313441E-48,-1.83697019872103E-16));
#1498=DIRECTION('',(0.,-1.,1.0350814098765E-47));
#1499=CARTESIAN_POINT('',(1.56142466891287E-15,8.5,5.));
#1500=VECTOR('',#1501,1.);
#1501=DIRECTION('',(1.,0.,0.));
#1502=CARTESIAN_POINT('',(9.18485099360514E-16,8.5,-5.));
#1503=CARTESIAN_POINT('',(9.18485099360514E-16,8.5,-5.));
#1504=VECTOR('',#1505,1.);
#1505=DIRECTION('',(1.,0.,0.));
#1506=CARTESIAN_POINT('',(1.23995488413669E-15,8.5,5.));
#1507=VECTOR('',#1508,1.);
#1508=DIRECTION('',(-1.2399548841367E-16,0.,-1.));
#1509=CARTESIAN_POINT('',(1.56142466891287E-15,5.,-8.5));
#1510=AXIS2_PLACEMENT_3D('',#1511,#1512,#1513);
#1511=CARTESIAN_POINT('',(-1.56142466891287E-15,8.5,-8.5));
#1512=DIRECTION('',(1.,-1.3684555315672E-48,-1.83697019872103E-16));
#1513=DIRECTION('',(1.83697019872103E-16,3.85543239066716E-80,1.));
#1514=CARTESIAN_POINT('',(1.56142466891287E-15,5.,-8.5));
#1515=VECTOR('',#1516,1.);
#1516=DIRECTION('',(1.,0.,0.));
#1517=CARTESIAN_POINT('',(9.18485099360514E-16,-5.,-8.5));
#1518=CARTESIAN_POINT('',(9.18485099360514E-16,-5.,-8.5));
#1519=VECTOR('',#1520,1.);
#1520=DIRECTION('',(1.,0.,0.));
#1521=CARTESIAN_POINT('',(0.,5.,-8.5));
#1522=VECTOR('',#1523,1.);
#1523=DIRECTION('',(-3.21469784776181E-17,-1.,0.));
#1524=CARTESIAN_POINT('',(1.56142466891287E-15,-8.5,-5.));
#1525=AXIS2_PLACEMENT_3D('',#1526,#1527,#1528);
#1526=CARTESIAN_POINT('',(-1.56142466891288E-15,-8.5,-8.5));
#1527=DIRECTION('',(1.,4.95559055215198E-50,-1.83697019872103E-16));
#1528=DIRECTION('',(0.,1.,-1.0350814098765E-47));
#1529=CARTESIAN_POINT('',(1.56142466891288E-15,-8.5,-5.));
#1530=VECTOR('',#1531,1.);
#1531=DIRECTION('',(1.,0.,0.));
#1532=CARTESIAN_POINT('',(9.18485099360514E-16,-8.5,5.));
#1533=CARTESIAN_POINT('',(9.18485099360514E-16,-8.5,5.));
#1534=VECTOR('',#1535,1.);
#1535=DIRECTION('',(1.,0.,0.));
#1536=CARTESIAN_POINT('',(3.2146978477618E-16,-8.5,-5.));
#1537=VECTOR('',#1538,1.);
#1538=DIRECTION('',(5.97015314584334E-17,0.,1.));
#1539=AXIS2_PLACEMENT_3D('',#1540,#1541,#1542);
#1540=CARTESIAN_POINT('',(1.56142466891287E-15,-8.5,8.5));
#1541=DIRECTION('',(1.,0.,-1.83697019872103E-16));
#1542=DIRECTION('',(-1.83697019872103E-16,0.,-1.));
#1543=CARTESIAN_POINT('',(1.56142466891287E-15,-6.9,8.5));
#1544=AXIS2_PLACEMENT_3D('',#1545,#1546,#1547);
#1545=CARTESIAN_POINT('',(1.56142466891287E-15,-8.5,8.5));
#1546=DIRECTION('',(1.,0.,-1.83697019872103E-16));
#1547=DIRECTION('',(1.12481983699639E-32,1.,6.12323399573677E-17));
#1548=CARTESIAN_POINT('',(1.56142466891287E-15,-8.5,-6.9));
#1549=AXIS2_PLACEMENT_3D('',#1550,#1551,#1552);
#1550=CARTESIAN_POINT('',(-1.56142466891288E-15,-8.5,-8.5));
#1551=DIRECTION('',(1.,0.,-1.83697019872103E-16));
#1552=DIRECTION('',(1.83697019872103E-16,0.,1.));
#1553=CARTESIAN_POINT('',(1.56142466891287E-15,6.9,-8.5));
#1554=AXIS2_PLACEMENT_3D('',#1555,#1556,#1557);
#1555=CARTESIAN_POINT('',(-1.56142466891287E-15,8.5,-8.5));
#1556=DIRECTION('',(1.,0.,-1.83697019872103E-16));
#1557=DIRECTION('',(1.12481983699639E-32,-1.,6.12323399573677E-17));
#1558=CARTESIAN_POINT('',(1.56142466891287E-15,8.5,6.9));
#1559=AXIS2_PLACEMENT_3D('',#1560,#1561,#1562);
#1560=CARTESIAN_POINT('',(1.56142466891287E-15,8.5,8.5));
#1561=DIRECTION('',(1.,0.,-1.83697019872103E-16));
#1562=DIRECTION('',(-1.83697019872103E-16,-1.22464679914735E-16,-1.));
ENDSEC;
END-ISO-10303-21;
