ISO-10303-21;
HEADER;
FILE_DESCRIPTION(('STEP AP242'),
    '1');
FILE_NAME('крепеж шестерни элевации',
    '',
    ('UNSPECIFIED'),
    ('UNSPECIFIED'),
    'C3D Converter',
    'C3D Toolkit',
    '');
FILE_SCHEMA(('AP242_MANAGED_MODEL_BASED_3D_ENGINEERING_MIM_LF { 1 0 10303 442 1 1 4 }'));
ENDSEC;

DATA;
#1=PRODUCT_DEFINITION('','UNSPECIFIED',#28,#31);
#2=SHAPE_DEFINITION_REPRESENTATION(#26,#3);
#3=SHAPE_REPRESENTATION('NONE',(#4),#8);
#4=AXIS2_PLACEMENT_3D('',#5,#6,#7);
#5=CARTESIAN_POINT('',(0.,0.,0.));
#6=DIRECTION('',(0.,0.,1.));
#7=DIRECTION('',(1.,0.,0.));
#8=(GEOMETRIC_REPRESENTATION_CONTEXT(3)GLOBAL_UNCERTAINTY_ASSIGNED_CONTEXT((#10))
GLOBAL_UNIT_ASSIGNED_CONTEXT((#9,#11,#12))REPRESENTATION_CONTEXT('NONE','NONE'));
#9=(LENGTH_UNIT()NAMED_UNIT(*)SI_UNIT(.MILLI.,.METRE.));
#10=UNCERTAINTY_MEASURE_WITH_UNIT(LENGTH_MEASURE(1.E-5),#9,'NONE','NONE');
#11=(NAMED_UNIT(*)PLANE_ANGLE_UNIT()SI_UNIT($,.RADIAN.));
#12=(NAMED_UNIT(*)SI_UNIT($,.STERADIAN.)SOLID_ANGLE_UNIT());
#13=MANIFOLD_SOLID_BREP('',#14);
#14=CLOSED_SHELL('',(#53,#54,#55,#56,#57,#58,#59,#60,#61,#62,#63,#64,#65));
#15=COLOUR_RGB('',0.4,0.4,0.);
#16=FILL_AREA_STYLE_COLOUR('',#15);
#17=FILL_AREA_STYLE($,(#16));
#18=SURFACE_STYLE_FILL_AREA(#17);
#19=SURFACE_SIDE_STYLE('',(#18));
#20=SURFACE_STYLE_USAGE(.BOTH.,#19);
#21=PRESENTATION_STYLE_ASSIGNMENT((#20));
#22=MECHANICAL_DESIGN_GEOMETRIC_PRESENTATION_REPRESENTATION('NONE',(#23),#8);
#23=STYLED_ITEM('',(#21),#13);
#24=ADVANCED_BREP_SHAPE_REPRESENTATION('NONE',(#13),#8);
#25=SHAPE_REPRESENTATION_RELATIONSHIP('','',#3,#24);
#26=PRODUCT_DEFINITION_SHAPE('NONE','NONE',#1);
#27=MECHANICAL_CONTEXT('NONE',#32,'mechanical');
#28=PRODUCT_DEFINITION_FORMATION_WITH_SPECIFIED_SOURCE('ANY','UNSPECIFIED',#29,.NOT_KNOWN.);
#29=PRODUCT('','\X2\043A04400435043F04350436\X0\ \X2\044804350441044204350440043D0438\X0\ \X2\044D043B043504320430044604380438\X0\',
'NONE',(#27));
#30=PRODUCT_RELATED_PRODUCT_CATEGORY('detail','',(#29));
#31=DESIGN_CONTEXT('detailed design',#32,'design');
#32=APPLICATION_CONTEXT('configuration controlled 3d designs of mechanical parts and assemblies');
#33=APPLICATION_PROTOCOL_DEFINITION('international standard','config_control_design',
1994,#32);
#34=CC_DESIGN_DATE_AND_TIME_ASSIGNMENT(#35,#39,(#1));
#35=DATE_AND_TIME(#36,#37);
#36=CALENDAR_DATE(0,1,1);
#37=LOCAL_TIME(0,0,0.,#38);
#38=COORDINATED_UNIVERSAL_TIME_OFFSET(0,0,.AHEAD.);
#39=DATE_TIME_ROLE('creation_date');
#40=CC_DESIGN_APPROVAL(#41,(#1));
#41=APPROVAL(#42,'UNSPECIFIED');
#42=APPROVAL_STATUS('not_yet_approved');
#43=APPROVAL_DATE_TIME(#44,#41);
#44=DATE_AND_TIME(#45,#46);
#45=CALENDAR_DATE(0,1,1);
#46=LOCAL_TIME(0,0,0.,#47);
#47=COORDINATED_UNIVERSAL_TIME_OFFSET(0,0,.AHEAD.);
#48=PERSON('UNSPECIFIED','yaros','UNSPECIFIED',('UNSPECIFIED'),('UNSPECIFIED'),(
'UNSPECIFIED'));
#49=ORGANIZATION('UNSPECIFIED','UNSPECIFIED','UNSPECIFIED');
#50=PERSON_AND_ORGANIZATION(#48,#49);
#51=PERSON_AND_ORGANIZATION_ROLE('creator');
#52=CC_DESIGN_PERSON_AND_ORGANIZATION_ASSIGNMENT(#50,#51,(#28,#1));
#53=ADVANCED_FACE('',(#66,#68,#70,#72,#74,#76),#78,.T.);
#54=ADVANCED_FACE('',(#83,#85,#87,#89,#91,#93),#95,.F.);
#55=ADVANCED_FACE('',(#100,#102),#104,.F.);
#56=ADVANCED_FACE('',(#109,#111),#113,.F.);
#57=ADVANCED_FACE('',(#118,#120),#122,.F.);
#58=ADVANCED_FACE('',(#127,#129),#131,.F.);
#59=ADVANCED_FACE('',(#136,#138),#140,.T.);
#60=ADVANCED_FACE('',(#145),#147,.F.);
#61=ADVANCED_FACE('',(#152),#154,.F.);
#62=ADVANCED_FACE('',(#159),#161,.F.);
#63=ADVANCED_FACE('',(#166),#168,.F.);
#64=ADVANCED_FACE('',(#173,#175),#177,.T.);
#65=ADVANCED_FACE('',(#182,#184),#186,.T.);
#66=FACE_BOUND('',#67,.T.);
#67=EDGE_LOOP('',(#191));
#68=FACE_BOUND('',#69,.T.);
#69=EDGE_LOOP('',(#192));
#70=FACE_BOUND('',#71,.T.);
#71=EDGE_LOOP('',(#193));
#72=FACE_BOUND('',#73,.T.);
#73=EDGE_LOOP('',(#194));
#74=FACE_BOUND('',#75,.T.);
#75=EDGE_LOOP('',(#195));
#76=FACE_BOUND('',#77,.T.);
#77=EDGE_LOOP('',(#196,#197,#198,#199));
#78=PLANE('',#79);
#79=AXIS2_PLACEMENT_3D('',#80,#81,#82);
#80=CARTESIAN_POINT('',(0.,24.,1.46957615897682E-15));
#81=DIRECTION('',(0.,1.,6.12323399573677E-17));
#82=DIRECTION('',(-1.,7.49879891330929E-33,-1.22464679914735E-16));
#83=FACE_BOUND('',#84,.T.);
#84=EDGE_LOOP('',(#200));
#85=FACE_BOUND('',#86,.T.);
#86=EDGE_LOOP('',(#201));
#87=FACE_BOUND('',#88,.T.);
#88=EDGE_LOOP('',(#202));
#89=FACE_BOUND('',#90,.T.);
#90=EDGE_LOOP('',(#203));
#91=FACE_BOUND('',#92,.T.);
#92=EDGE_LOOP('',(#204));
#93=FACE_BOUND('',#94,.T.);
#94=EDGE_LOOP('',(#205,#206,#207,#208));
#95=PLANE('',#96);
#96=AXIS2_PLACEMENT_3D('',#97,#98,#99);
#97=CARTESIAN_POINT('',(0.,0.,0.));
#98=DIRECTION('',(0.,1.,6.12323399573677E-17));
#99=DIRECTION('',(-1.,7.49879891330929E-33,-1.22464679914735E-16));
#100=FACE_OUTER_BOUND('',#101,.T.);
#101=EDGE_LOOP('',(#209));
#102=FACE_OUTER_BOUND('',#103,.T.);
#103=EDGE_LOOP('',(#210));
#104=CYLINDRICAL_SURFACE('',#105,1.6);
#105=AXIS2_PLACEMENT_3D('',#106,#107,#108);
#106=CARTESIAN_POINT('',(-15.,2.81204959249098E-31,-4.59242549680257E-15));
#107=DIRECTION('',(0.,1.,6.12323399573676E-17));
#108=DIRECTION('',(-1.,7.49879891330929E-33,-1.22464679914735E-16));
#109=FACE_OUTER_BOUND('',#110,.T.);
#110=EDGE_LOOP('',(#211));
#111=FACE_OUTER_BOUND('',#112,.T.);
#112=EDGE_LOOP('',(#212));
#113=CYLINDRICAL_SURFACE('',#114,1.6);
#114=AXIS2_PLACEMENT_3D('',#115,#116,#117);
#115=CARTESIAN_POINT('',(3.67394039744206E-15,9.18485099360515E-16,-15.));
#116=DIRECTION('',(0.,1.,6.12323399573676E-17));
#117=DIRECTION('',(-1.,7.49879891330929E-33,-1.22464679914735E-16));
#118=FACE_OUTER_BOUND('',#119,.T.);
#119=EDGE_LOOP('',(#213));
#120=FACE_OUTER_BOUND('',#121,.T.);
#121=EDGE_LOOP('',(#214));
#122=CYLINDRICAL_SURFACE('',#123,1.6);
#123=AXIS2_PLACEMENT_3D('',#124,#125,#126);
#124=CARTESIAN_POINT('',(15.,-1.68722975549459E-31,2.75545529808154E-15));
#125=DIRECTION('',(0.,1.,6.12323399573676E-17));
#126=DIRECTION('',(-1.,7.49879891330929E-33,-1.22464679914735E-16));
#127=FACE_OUTER_BOUND('',#128,.T.);
#128=EDGE_LOOP('',(#215));
#129=FACE_OUTER_BOUND('',#130,.T.);
#130=EDGE_LOOP('',(#216));
#131=CYLINDRICAL_SURFACE('',#132,1.6);
#132=AXIS2_PLACEMENT_3D('',#133,#134,#135);
#133=CARTESIAN_POINT('',(-1.83697019872103E-15,-9.18485099360515E-16,15.));
#134=DIRECTION('',(0.,1.,6.12323399573676E-17));
#135=DIRECTION('',(-1.,7.49879891330929E-33,-1.22464679914735E-16));
#136=FACE_OUTER_BOUND('',#137,.T.);
#137=EDGE_LOOP('',(#217));
#138=FACE_OUTER_BOUND('',#139,.T.);
#139=EDGE_LOOP('',(#218));
#140=CYLINDRICAL_SURFACE('',#141,19.9);
#141=AXIS2_PLACEMENT_3D('',#142,#143,#144);
#142=CARTESIAN_POINT('',(0.,2.,1.22464679914735E-16));
#143=DIRECTION('',(0.,1.,6.12323399573677E-17));
#144=DIRECTION('',(-1.,7.49879891330929E-33,-1.22464679914735E-16));
#145=FACE_BOUND('',#146,.T.);
#146=EDGE_LOOP('',(#219,#220,#221,#222));
#147=PLANE('',#148);
#148=AXIS2_PLACEMENT_3D('',#149,#150,#151);
#149=CARTESIAN_POINT('',(10.1,24.,-10.1));
#150=DIRECTION('',(1.,-6.50875334340769E-33,8.7938457396052E-17));
#151=DIRECTION('',(-8.7938457396052E-17,0.,1.));
#152=FACE_BOUND('',#153,.T.);
#153=EDGE_LOOP('',(#223,#224,#225,#226));
#154=PLANE('',#155);
#155=AXIS2_PLACEMENT_3D('',#156,#157,#158);
#156=CARTESIAN_POINT('',(10.1,24.,10.1));
#157=DIRECTION('',(0.,-7.40148683083438E-17,1.));
#158=DIRECTION('',(-1.,0.,0.));
#159=FACE_BOUND('',#160,.T.);
#160=EDGE_LOOP('',(#227,#228,#229,#230));
#161=PLANE('',#162);
#162=AXIS2_PLACEMENT_3D('',#163,#164,#165);
#163=CARTESIAN_POINT('',(-10.1,24.,10.1));
#164=DIRECTION('',(-1.,0.,0.));
#165=DIRECTION('',(0.,0.,-1.));
#166=FACE_BOUND('',#167,.T.);
#167=EDGE_LOOP('',(#231,#232,#233,#234));
#168=PLANE('',#169);
#169=AXIS2_PLACEMENT_3D('',#170,#171,#172);
#170=CARTESIAN_POINT('',(-10.1,24.,-10.1));
#171=DIRECTION('',(0.,7.40148683083438E-17,-1.));
#172=DIRECTION('',(1.,0.,0.));
#173=FACE_OUTER_BOUND('',#174,.T.);
#174=EDGE_LOOP('',(#235));
#175=FACE_OUTER_BOUND('',#176,.T.);
#176=EDGE_LOOP('',(#236));
#177=CYLINDRICAL_SURFACE('',#178,22.5);
#178=AXIS2_PLACEMENT_3D('',#179,#180,#181);
#179=CARTESIAN_POINT('',(0.,0.,0.));
#180=DIRECTION('',(0.,1.,6.12323399573677E-17));
#181=DIRECTION('',(-1.,7.49879891330929E-33,-1.22464679914735E-16));
#182=FACE_BOUND('',#183,.T.);
#183=EDGE_LOOP('',(#237));
#184=FACE_BOUND('',#185,.T.);
#185=EDGE_LOOP('',(#238));
#186=PLANE('',#187);
#187=AXIS2_PLACEMENT_3D('',#188,#189,#190);
#188=CARTESIAN_POINT('',(0.,2.,1.22464679914735E-16));
#189=DIRECTION('',(0.,1.,6.12323399573677E-17));
#190=DIRECTION('',(-1.,7.49879891330929E-33,-1.22464679914735E-16));
#191=ORIENTED_EDGE('',*,*,#239,.T.);
#192=ORIENTED_EDGE('',*,*,#240,.T.);
#193=ORIENTED_EDGE('',*,*,#241,.T.);
#194=ORIENTED_EDGE('',*,*,#242,.T.);
#195=ORIENTED_EDGE('',*,*,#243,.T.);
#196=ORIENTED_EDGE('',*,*,#244,.T.);
#197=ORIENTED_EDGE('',*,*,#245,.T.);
#198=ORIENTED_EDGE('',*,*,#246,.T.);
#199=ORIENTED_EDGE('',*,*,#247,.T.);
#200=ORIENTED_EDGE('',*,*,#248,.F.);
#201=ORIENTED_EDGE('',*,*,#249,.T.);
#202=ORIENTED_EDGE('',*,*,#250,.T.);
#203=ORIENTED_EDGE('',*,*,#251,.T.);
#204=ORIENTED_EDGE('',*,*,#252,.T.);
#205=ORIENTED_EDGE('',*,*,#253,.T.);
#206=ORIENTED_EDGE('',*,*,#254,.T.);
#207=ORIENTED_EDGE('',*,*,#255,.T.);
#208=ORIENTED_EDGE('',*,*,#256,.T.);
#209=ORIENTED_EDGE('',*,*,#243,.F.);
#210=ORIENTED_EDGE('',*,*,#252,.F.);
#211=ORIENTED_EDGE('',*,*,#242,.F.);
#212=ORIENTED_EDGE('',*,*,#251,.F.);
#213=ORIENTED_EDGE('',*,*,#241,.F.);
#214=ORIENTED_EDGE('',*,*,#250,.F.);
#215=ORIENTED_EDGE('',*,*,#240,.F.);
#216=ORIENTED_EDGE('',*,*,#249,.F.);
#217=ORIENTED_EDGE('',*,*,#239,.F.);
#218=ORIENTED_EDGE('',*,*,#257,.T.);
#219=ORIENTED_EDGE('',*,*,#244,.F.);
#220=ORIENTED_EDGE('',*,*,#258,.T.);
#221=ORIENTED_EDGE('',*,*,#253,.F.);
#222=ORIENTED_EDGE('',*,*,#259,.F.);
#223=ORIENTED_EDGE('',*,*,#245,.F.);
#224=ORIENTED_EDGE('',*,*,#259,.T.);
#225=ORIENTED_EDGE('',*,*,#256,.F.);
#226=ORIENTED_EDGE('',*,*,#260,.F.);
#227=ORIENTED_EDGE('',*,*,#246,.F.);
#228=ORIENTED_EDGE('',*,*,#260,.T.);
#229=ORIENTED_EDGE('',*,*,#255,.F.);
#230=ORIENTED_EDGE('',*,*,#261,.F.);
#231=ORIENTED_EDGE('',*,*,#247,.F.);
#232=ORIENTED_EDGE('',*,*,#261,.T.);
#233=ORIENTED_EDGE('',*,*,#254,.F.);
#234=ORIENTED_EDGE('',*,*,#258,.F.);
#235=ORIENTED_EDGE('',*,*,#262,.F.);
#236=ORIENTED_EDGE('',*,*,#248,.T.);
#237=ORIENTED_EDGE('',*,*,#262,.T.);
#238=ORIENTED_EDGE('',*,*,#257,.F.);
#239=EDGE_CURVE('',#263,#263,#264,.T.);
#240=EDGE_CURVE('',#265,#265,#266,.F.);
#241=EDGE_CURVE('',#267,#267,#268,.F.);
#242=EDGE_CURVE('',#269,#269,#270,.F.);
#243=EDGE_CURVE('',#271,#271,#272,.F.);
#244=EDGE_CURVE('',#273,#274,#275,.F.);
#245=EDGE_CURVE('',#274,#276,#277,.F.);
#246=EDGE_CURVE('',#276,#278,#279,.F.);
#247=EDGE_CURVE('',#278,#273,#280,.F.);
#248=EDGE_CURVE('',#281,#281,#282,.T.);
#249=EDGE_CURVE('',#283,#283,#284,.T.);
#250=EDGE_CURVE('',#285,#285,#286,.T.);
#251=EDGE_CURVE('',#287,#287,#288,.T.);
#252=EDGE_CURVE('',#289,#289,#290,.T.);
#253=EDGE_CURVE('',#291,#292,#293,.T.);
#254=EDGE_CURVE('',#292,#294,#295,.T.);
#255=EDGE_CURVE('',#294,#296,#297,.T.);
#256=EDGE_CURVE('',#296,#291,#298,.T.);
#257=EDGE_CURVE('',#299,#299,#300,.T.);
#258=EDGE_CURVE('',#273,#292,#301,.T.);
#259=EDGE_CURVE('',#274,#291,#302,.T.);
#260=EDGE_CURVE('',#276,#296,#303,.T.);
#261=EDGE_CURVE('',#278,#294,#304,.T.);
#262=EDGE_CURVE('',#305,#305,#306,.T.);
#263=VERTEX_POINT('',#307);
#264=CIRCLE('',#308,19.9);
#265=VERTEX_POINT('',#312);
#266=CIRCLE('',#313,1.6);
#267=VERTEX_POINT('',#317);
#268=CIRCLE('',#318,1.6);
#269=VERTEX_POINT('',#322);
#270=CIRCLE('',#323,1.6);
#271=VERTEX_POINT('',#327);
#272=CIRCLE('',#328,1.6);
#273=VERTEX_POINT('',#332);
#274=VERTEX_POINT('',#333);
#275=LINE('',#334,#335);
#276=VERTEX_POINT('',#337);
#277=LINE('',#338,#339);
#278=VERTEX_POINT('',#341);
#279=LINE('',#342,#343);
#280=LINE('',#345,#346);
#281=VERTEX_POINT('',#348);
#282=CIRCLE('',#349,22.5);
#283=VERTEX_POINT('',#353);
#284=CIRCLE('',#354,1.6);
#285=VERTEX_POINT('',#358);
#286=CIRCLE('',#359,1.6);
#287=VERTEX_POINT('',#363);
#288=CIRCLE('',#364,1.6);
#289=VERTEX_POINT('',#368);
#290=CIRCLE('',#369,1.6);
#291=VERTEX_POINT('',#373);
#292=VERTEX_POINT('',#374);
#293=LINE('',#375,#376);
#294=VERTEX_POINT('',#378);
#295=LINE('',#379,#380);
#296=VERTEX_POINT('',#382);
#297=LINE('',#383,#384);
#298=LINE('',#386,#387);
#299=VERTEX_POINT('',#389);
#300=CIRCLE('',#390,19.9);
#301=LINE('',#394,#395);
#302=LINE('',#397,#398);
#303=LINE('',#400,#401);
#304=LINE('',#403,#404);
#305=VERTEX_POINT('',#406);
#306=CIRCLE('',#407,22.5);
#307=CARTESIAN_POINT('',(-19.9,24.,-3.40451810162964E-15));
#308=AXIS2_PLACEMENT_3D('',#309,#310,#311);
#309=CARTESIAN_POINT('',(0.,24.,1.46957615897682E-15));
#310=DIRECTION('',(0.,1.,6.12323399573677E-17));
#311=DIRECTION('',(-1.,7.49879891330929E-33,-1.22464679914735E-16));
#312=CARTESIAN_POINT('',(-1.6,24.,15.));
#313=AXIS2_PLACEMENT_3D('',#314,#315,#316);
#314=CARTESIAN_POINT('',(-1.83697019872103E-15,24.,15.));
#315=DIRECTION('',(0.,1.,6.12323399573677E-17));
#316=DIRECTION('',(-1.,7.49879891330929E-33,-1.22464679914735E-16));
#317=CARTESIAN_POINT('',(13.4,24.,3.83314448133121E-15));
#318=AXIS2_PLACEMENT_3D('',#319,#320,#321);
#319=CARTESIAN_POINT('',(15.,24.,4.22503145705837E-15));
#320=DIRECTION('',(0.,1.,6.12323399573677E-17));
#321=DIRECTION('',(-1.,7.49879891330929E-33,-1.22464679914735E-16));
#322=CARTESIAN_POINT('',(-1.6,24.,-15.));
#323=AXIS2_PLACEMENT_3D('',#324,#325,#326);
#324=CARTESIAN_POINT('',(3.67394039744206E-15,24.,-15.));
#325=DIRECTION('',(0.,1.,6.12323399573677E-17));
#326=DIRECTION('',(-1.,7.49879891330929E-33,-1.22464679914735E-16));
#327=CARTESIAN_POINT('',(-16.6,24.,-3.5147363135529E-15));
#328=AXIS2_PLACEMENT_3D('',#329,#330,#331);
#329=CARTESIAN_POINT('',(-15.,24.,-3.12284933782575E-15));
#330=DIRECTION('',(0.,1.,6.12323399573677E-17));
#331=DIRECTION('',(-1.,7.49879891330929E-33,-1.22464679914735E-16));
#332=CARTESIAN_POINT('',(10.1,24.,-10.1));
#333=CARTESIAN_POINT('',(10.1,24.,10.1));
#334=CARTESIAN_POINT('',(10.1,24.,10.1));
#335=VECTOR('',#336,1.);
#336=DIRECTION('',(1.75876914792104E-16,0.,-1.));
#337=CARTESIAN_POINT('',(-10.1,24.,10.1));
#338=CARTESIAN_POINT('',(-10.1,24.,10.1));
#339=VECTOR('',#340,1.);
#340=DIRECTION('',(1.,0.,8.7938457396052E-17));
#341=CARTESIAN_POINT('',(-10.1,24.,-10.1));
#342=CARTESIAN_POINT('',(-10.1,24.,-10.1));
#343=VECTOR('',#344,1.);
#344=DIRECTION('',(0.,0.,1.));
#345=CARTESIAN_POINT('',(10.1,24.,-10.1));
#346=VECTOR('',#347,1.);
#347=DIRECTION('',(-1.,0.,-8.7938457396052E-17));
#348=CARTESIAN_POINT('',(-22.5,3.37445951098918E-31,-5.51091059616309E-15));
#349=AXIS2_PLACEMENT_3D('',#350,#351,#352);
#350=CARTESIAN_POINT('',(0.,0.,0.));
#351=DIRECTION('',(0.,1.,6.12323399573677E-17));
#352=DIRECTION('',(-1.,7.49879891330929E-33,-1.22464679914735E-16));
#353=CARTESIAN_POINT('',(-1.6,-9.18485099360515E-16,15.));
#354=AXIS2_PLACEMENT_3D('',#355,#356,#357);
#355=CARTESIAN_POINT('',(-1.83697019872103E-15,-9.18485099360515E-16,15.));
#356=DIRECTION('',(0.,1.,6.12323399573677E-17));
#357=DIRECTION('',(-1.,7.49879891330929E-33,-1.22464679914735E-16));
#358=CARTESIAN_POINT('',(13.4,-1.44726819026869E-31,2.36356832235439E-15));
#359=AXIS2_PLACEMENT_3D('',#360,#361,#362);
#360=CARTESIAN_POINT('',(15.,-1.68722975549459E-31,2.75545529808154E-15));
#361=DIRECTION('',(0.,1.,6.12323399573677E-17));
#362=DIRECTION('',(-1.,7.49879891330929E-33,-1.22464679914735E-16));
#363=CARTESIAN_POINT('',(-1.6,9.18485099360515E-16,-15.));
#364=AXIS2_PLACEMENT_3D('',#365,#366,#367);
#365=CARTESIAN_POINT('',(3.67394039744206E-15,9.18485099360515E-16,-15.));
#366=DIRECTION('',(0.,1.,6.12323399573677E-17));
#367=DIRECTION('',(-1.,7.49879891330929E-33,-1.22464679914735E-16));
#368=CARTESIAN_POINT('',(-16.6,3.05201115771688E-31,-4.98431247252973E-15));
#369=AXIS2_PLACEMENT_3D('',#370,#371,#372);
#370=CARTESIAN_POINT('',(-15.,2.81204959249098E-31,-4.59242549680257E-15));
#371=DIRECTION('',(0.,1.,6.12323399573677E-17));
#372=DIRECTION('',(-1.,7.49879891330929E-33,-1.22464679914735E-16));
#373=CARTESIAN_POINT('',(10.1,-6.18446633569414E-16,10.1));
#374=CARTESIAN_POINT('',(10.1,6.18446633569413E-16,-10.1));
#375=CARTESIAN_POINT('',(10.1,-3.09223316784707E-16,10.1));
#376=VECTOR('',#377,1.);
#377=DIRECTION('',(1.75876914792104E-16,3.06161699786838E-17,-1.));
#378=CARTESIAN_POINT('',(-10.1,6.18446633569413E-16,-10.1));
#379=CARTESIAN_POINT('',(10.1,3.09223316784707E-16,-10.1));
#380=VECTOR('',#381,1.);
#381=DIRECTION('',(-1.,2.44078250377788E-33,0.));
#382=CARTESIAN_POINT('',(-10.1,-6.18446633569414E-16,10.1));
#383=CARTESIAN_POINT('',(-10.1,3.09223316784707E-16,-10.1));
#384=VECTOR('',#385,1.);
#385=DIRECTION('',(0.,-3.06161699786838E-17,1.));
#386=CARTESIAN_POINT('',(-10.1,-3.09223316784707E-16,10.1));
#387=VECTOR('',#388,1.);
#388=DIRECTION('',(1.,-2.44078250377788E-33,0.));
#389=CARTESIAN_POINT('',(-19.9,2.,-4.75162958069173E-15));
#390=AXIS2_PLACEMENT_3D('',#391,#392,#393);
#391=CARTESIAN_POINT('',(0.,2.,1.22464679914735E-16));
#392=DIRECTION('',(0.,1.,6.12323399573677E-17));
#393=DIRECTION('',(-1.,7.49879891330929E-33,-1.22464679914735E-16));
#394=CARTESIAN_POINT('',(10.1,24.,-10.1));
#395=VECTOR('',#396,1.);
#396=DIRECTION('',(0.,-1.,-7.40148683083438E-17));
#397=CARTESIAN_POINT('',(10.1,24.,10.1));
#398=VECTOR('',#399,1.);
#399=DIRECTION('',(0.,-1.,-7.40148683083438E-17));
#400=CARTESIAN_POINT('',(-10.1,24.,10.1));
#401=VECTOR('',#402,1.);
#402=DIRECTION('',(0.,-1.,-7.40148683083438E-17));
#403=CARTESIAN_POINT('',(-10.1,24.,-10.1));
#404=VECTOR('',#405,1.);
#405=DIRECTION('',(0.,-1.,-7.40148683083438E-17));
#406=CARTESIAN_POINT('',(-22.5,2.,-5.38844591624835E-15));
#407=AXIS2_PLACEMENT_3D('',#408,#409,#410);
#408=CARTESIAN_POINT('',(0.,2.,1.22464679914735E-16));
#409=DIRECTION('',(0.,1.,6.12323399573677E-17));
#410=DIRECTION('',(-1.,7.49879891330929E-33,-1.22464679914735E-16));
ENDSEC;
END-ISO-10303-21;
