ISO-10303-21;
HEADER;
FILE_DESCRIPTION(('STEP AP242'),
    '1');
FILE_NAME('Статор кожух',
    '',
    ('UNSPECIFIED'),
    ('UNSPECIFIED'),
    'C3D Converter',
    'C3D Toolkit',
    '');
FILE_SCHEMA(('AP242_MANAGED_MODEL_BASED_3D_ENGINEERING_MIM_LF { 1 0 10303 442 1 1 4 }'));
ENDSEC;

DATA;
#1=PRODUCT_DEFINITION('','UNSPECIFIED',#28,#31);
#2=SHAPE_DEFINITION_REPRESENTATION(#26,#3);
#3=SHAPE_REPRESENTATION('NONE',(#4),#8);
#4=AXIS2_PLACEMENT_3D('',#5,#6,#7);
#5=CARTESIAN_POINT('',(0.,0.,0.));
#6=DIRECTION('',(0.,0.,1.));
#7=DIRECTION('',(1.,0.,0.));
#8=(GEOMETRIC_REPRESENTATION_CONTEXT(3)GLOBAL_UNCERTAINTY_ASSIGNED_CONTEXT((#10))
GLOBAL_UNIT_ASSIGNED_CONTEXT((#9,#11,#12))REPRESENTATION_CONTEXT('NONE','NONE'));
#9=(LENGTH_UNIT()NAMED_UNIT(*)SI_UNIT(.MILLI.,.METRE.));
#10=UNCERTAINTY_MEASURE_WITH_UNIT(LENGTH_MEASURE(1.E-5),#9,'NONE','NONE');
#11=(NAMED_UNIT(*)PLANE_ANGLE_UNIT()SI_UNIT($,.RADIAN.));
#12=(NAMED_UNIT(*)SI_UNIT($,.STERADIAN.)SOLID_ANGLE_UNIT());
#13=MANIFOLD_SOLID_BREP('',#14);
#14=CLOSED_SHELL('',(#53,#54,#55,#56,#57,#58,#59,#60,#61,#62,#63,#64,#65,#66,#67,
#68,#69,#70,#71,#72,#73,#74,#75,#76,#77,#78));
#15=COLOUR_RGB('',0.,0.4,0.4);
#16=FILL_AREA_STYLE_COLOUR('',#15);
#17=FILL_AREA_STYLE($,(#16));
#18=SURFACE_STYLE_FILL_AREA(#17);
#19=SURFACE_SIDE_STYLE('',(#18));
#20=SURFACE_STYLE_USAGE(.BOTH.,#19);
#21=PRESENTATION_STYLE_ASSIGNMENT((#20));
#22=MECHANICAL_DESIGN_GEOMETRIC_PRESENTATION_REPRESENTATION('NONE',(#23),#8);
#23=STYLED_ITEM('',(#21),#13);
#24=ADVANCED_BREP_SHAPE_REPRESENTATION('NONE',(#13),#8);
#25=SHAPE_REPRESENTATION_RELATIONSHIP('','',#3,#24);
#26=PRODUCT_DEFINITION_SHAPE('NONE','NONE',#1);
#27=MECHANICAL_CONTEXT('NONE',#32,'mechanical');
#28=PRODUCT_DEFINITION_FORMATION_WITH_SPECIFIED_SOURCE('ANY','UNSPECIFIED',#29,.NOT_KNOWN.);
#29=PRODUCT('','\X2\0421044204300442043E0440\X0\ \X2\043A043E043604430445\X0\','NONE',
(#27));
#30=PRODUCT_RELATED_PRODUCT_CATEGORY('detail','',(#29));
#31=DESIGN_CONTEXT('detailed design',#32,'design');
#32=APPLICATION_CONTEXT('configuration controlled 3d designs of mechanical parts and assemblies');
#33=APPLICATION_PROTOCOL_DEFINITION('international standard','config_control_design',
1994,#32);
#34=CC_DESIGN_DATE_AND_TIME_ASSIGNMENT(#35,#39,(#1));
#35=DATE_AND_TIME(#36,#37);
#36=CALENDAR_DATE(0,1,1);
#37=LOCAL_TIME(0,0,0.,#38);
#38=COORDINATED_UNIVERSAL_TIME_OFFSET(0,0,.AHEAD.);
#39=DATE_TIME_ROLE('creation_date');
#40=CC_DESIGN_APPROVAL(#41,(#1));
#41=APPROVAL(#42,'UNSPECIFIED');
#42=APPROVAL_STATUS('not_yet_approved');
#43=APPROVAL_DATE_TIME(#44,#41);
#44=DATE_AND_TIME(#45,#46);
#45=CALENDAR_DATE(0,1,1);
#46=LOCAL_TIME(0,0,0.,#47);
#47=COORDINATED_UNIVERSAL_TIME_OFFSET(0,0,.AHEAD.);
#48=PERSON('UNSPECIFIED','yaros','UNSPECIFIED',('UNSPECIFIED'),('UNSPECIFIED'),(
'UNSPECIFIED'));
#49=ORGANIZATION('UNSPECIFIED','UNSPECIFIED','UNSPECIFIED');
#50=PERSON_AND_ORGANIZATION(#48,#49);
#51=PERSON_AND_ORGANIZATION_ROLE('creator');
#52=CC_DESIGN_PERSON_AND_ORGANIZATION_ASSIGNMENT(#50,#51,(#28,#1));
#53=ADVANCED_FACE('',(#79,#81,#83,#85,#87,#89,#91),#93,.T.);
#54=ADVANCED_FACE('',(#98),#100,.F.);
#55=ADVANCED_FACE('',(#105),#107,.F.);
#56=ADVANCED_FACE('',(#112,#114,#116,#118,#120,#122,#124),#126,.T.);
#57=ADVANCED_FACE('',(#131),#133,.F.);
#58=ADVANCED_FACE('',(#138,#140,#142,#144,#146,#148,#150),#152,.T.);
#59=ADVANCED_FACE('',(#157,#159,#161,#163,#165,#167,#169),#171,.T.);
#60=ADVANCED_FACE('',(#176),#178,.F.);
#61=ADVANCED_FACE('',(#183),#185,.T.);
#62=ADVANCED_FACE('',(#190),#192,.T.);
#63=ADVANCED_FACE('',(#197),#199,.F.);
#64=ADVANCED_FACE('',(#204),#206,.T.);
#65=ADVANCED_FACE('',(#211),#213,.T.);
#66=ADVANCED_FACE('',(#218),#220,.T.);
#67=ADVANCED_FACE('',(#225,#227),#229,.F.);
#68=ADVANCED_FACE('',(#234,#236),#238,.F.);
#69=ADVANCED_FACE('',(#243,#245),#247,.F.);
#70=ADVANCED_FACE('',(#252,#254),#256,.F.);
#71=ADVANCED_FACE('',(#261,#263),#265,.F.);
#72=ADVANCED_FACE('',(#270,#272),#274,.F.);
#73=ADVANCED_FACE('',(#279,#281),#283,.F.);
#74=ADVANCED_FACE('',(#288,#290),#292,.F.);
#75=ADVANCED_FACE('',(#297,#299),#301,.F.);
#76=ADVANCED_FACE('',(#306,#308),#310,.F.);
#77=ADVANCED_FACE('',(#315,#317),#319,.F.);
#78=ADVANCED_FACE('',(#324,#326),#328,.F.);
#79=FACE_BOUND('',#80,.T.);
#80=EDGE_LOOP('',(#333,#334,#335,#336));
#81=FACE_BOUND('',#82,.T.);
#82=EDGE_LOOP('',(#337));
#83=FACE_BOUND('',#84,.T.);
#84=EDGE_LOOP('',(#338));
#85=FACE_BOUND('',#86,.T.);
#86=EDGE_LOOP('',(#339));
#87=FACE_BOUND('',#88,.T.);
#88=EDGE_LOOP('',(#340));
#89=FACE_BOUND('',#90,.T.);
#90=EDGE_LOOP('',(#341));
#91=FACE_BOUND('',#92,.T.);
#92=EDGE_LOOP('',(#342));
#93=PLANE('',#94);
#94=AXIS2_PLACEMENT_3D('',#95,#96,#97);
#95=CARTESIAN_POINT('',(1.04707301327099E-14,-3.49024337756996E-15,57.));
#96=DIRECTION('',(1.83697019872103E-16,-6.12323399573677E-17,1.));
#97=DIRECTION('',(-1.42757092581085E-32,-1.,-6.12323399573677E-17));
#98=FACE_BOUND('',#99,.T.);
#99=EDGE_LOOP('',(#343,#344,#345,#346));
#100=CYLINDRICAL_SURFACE('',#101,80.);
#101=AXIS2_PLACEMENT_3D('',#102,#103,#104);
#102=CARTESIAN_POINT('',(1.10218211923262E-15,-3.67394039744206E-16,6.));
#103=DIRECTION('',(1.83697019872103E-16,-6.12323399573677E-17,1.));
#104=DIRECTION('',(-1.13374703530202E-32,-1.,-6.12323399573677E-17));
#105=FACE_BOUND('',#106,.T.);
#106=EDGE_LOOP('',(#347,#348,#349,#350));
#107=CYLINDRICAL_SURFACE('',#108,80.);
#108=AXIS2_PLACEMENT_3D('',#109,#110,#111);
#109=CARTESIAN_POINT('',(1.04707301327099E-14,-3.49024337756996E-15,57.));
#110=DIRECTION('',(1.83697019872103E-16,-6.12323399573677E-17,1.));
#111=DIRECTION('',(-1.46541481191265E-32,-1.,-6.12323399573677E-17));
#112=FACE_BOUND('',#113,.T.);
#113=EDGE_LOOP('',(#351,#352,#353,#354));
#114=FACE_BOUND('',#115,.T.);
#115=EDGE_LOOP('',(#355));
#116=FACE_BOUND('',#117,.T.);
#117=EDGE_LOOP('',(#356));
#118=FACE_BOUND('',#119,.T.);
#119=EDGE_LOOP('',(#357));
#120=FACE_BOUND('',#121,.T.);
#121=EDGE_LOOP('',(#358));
#122=FACE_BOUND('',#123,.T.);
#123=EDGE_LOOP('',(#359));
#124=FACE_BOUND('',#125,.T.);
#125=EDGE_LOOP('',(#360));
#126=PLANE('',#127);
#127=AXIS2_PLACEMENT_3D('',#128,#129,#130);
#128=CARTESIAN_POINT('',(5.51091059616309E-16,-1.83697019872103E-16,3.));
#129=DIRECTION('',(-1.83697019872103E-16,6.12323399573677E-17,-1.));
#130=DIRECTION('',(-1.13275512437917E-32,-1.,-6.12323399573677E-17));
#131=FACE_BOUND('',#132,.T.);
#132=EDGE_LOOP('',(#361,#362,#363,#364));
#133=CYLINDRICAL_SURFACE('',#134,90.);
#134=AXIS2_PLACEMENT_3D('',#135,#136,#137);
#135=CARTESIAN_POINT('',(1.10218211923262E-14,-3.67394039744206E-15,60.));
#136=DIRECTION('',(1.83697019872103E-16,-6.12323399573677E-17,1.));
#137=DIRECTION('',(-1.42757092581085E-32,-1.,-6.12323399573677E-17));
#138=FACE_BOUND('',#139,.T.);
#139=EDGE_LOOP('',(#365,#366,#367,#368));
#140=FACE_BOUND('',#141,.T.);
#141=EDGE_LOOP('',(#369));
#142=FACE_BOUND('',#143,.T.);
#143=EDGE_LOOP('',(#370));
#144=FACE_BOUND('',#145,.T.);
#145=EDGE_LOOP('',(#371));
#146=FACE_BOUND('',#147,.T.);
#147=EDGE_LOOP('',(#372));
#148=FACE_BOUND('',#149,.T.);
#149=EDGE_LOOP('',(#373));
#150=FACE_BOUND('',#151,.T.);
#151=EDGE_LOOP('',(#374));
#152=PLANE('',#153);
#153=AXIS2_PLACEMENT_3D('',#154,#155,#156);
#154=CARTESIAN_POINT('',(-8.5725275940315E-16,-4.28626379701575E-16,7.00000000000002));
#155=DIRECTION('',(-1.22464679914735E-16,-6.12323399573677E-17,1.));
#156=DIRECTION('',(-1.,-1.22464679914735E-16,-1.22464679914735E-16));
#157=FACE_BOUND('',#158,.T.);
#158=EDGE_LOOP('',(#375,#376,#377,#378));
#159=FACE_BOUND('',#160,.T.);
#160=EDGE_LOOP('',(#379));
#161=FACE_BOUND('',#162,.T.);
#162=EDGE_LOOP('',(#380));
#163=FACE_BOUND('',#164,.T.);
#164=EDGE_LOOP('',(#381));
#165=FACE_BOUND('',#166,.T.);
#166=EDGE_LOOP('',(#382));
#167=FACE_BOUND('',#168,.T.);
#168=EDGE_LOOP('',(#383));
#169=FACE_BOUND('',#170,.T.);
#170=EDGE_LOOP('',(#384));
#171=PLANE('',#172);
#172=AXIS2_PLACEMENT_3D('',#173,#174,#175);
#173=CARTESIAN_POINT('',(-6.49062803548097E-15,-3.24531401774049E-15,53.));
#174=DIRECTION('',(1.22464679914735E-16,6.12323399573677E-17,-1.));
#175=DIRECTION('',(-1.,-1.22464679914735E-16,-1.22464679914735E-16));
#176=FACE_BOUND('',#177,.T.);
#177=EDGE_LOOP('',(#385,#386,#387,#388));
#178=CYLINDRICAL_SURFACE('',#179,90.);
#179=AXIS2_PLACEMENT_3D('',#180,#181,#182);
#180=CARTESIAN_POINT('',(5.51091059616309E-16,-1.83697019872103E-16,3.));
#181=DIRECTION('',(1.83697019872103E-16,-6.12323399573677E-17,1.));
#182=DIRECTION('',(-1.13275512437917E-32,-1.,-6.12323399573677E-17));
#183=FACE_BOUND('',#184,.T.);
#184=EDGE_LOOP('',(#389,#390,#391,#392));
#185=DEGENERATE_TOROIDAL_SURFACE('',#186,41.0384757729325,60.,.T.);
#186=AXIS2_PLACEMENT_3D('',#187,#188,#189);
#187=CARTESIAN_POINT('',(5.51091059616309E-15,-1.83697019872103E-15,30.));
#188=DIRECTION('',(1.83697019872103E-16,-6.12323399573677E-17,1.));
#189=DIRECTION('',(-1.45679607977966E-32,-1.,-6.12323399573677E-17));
#190=FACE_BOUND('',#191,.T.);
#191=EDGE_LOOP('',(#393,#394,#395,#396));
#192=PLANE('',#193);
#193=AXIS2_PLACEMENT_3D('',#194,#195,#196);
#194=CARTESIAN_POINT('',(1.10218211923262E-14,-3.67394039744206E-15,60.));
#195=DIRECTION('',(1.83697019872103E-16,-6.12323399573677E-17,1.));
#196=DIRECTION('',(-1.41780476165554E-32,-1.,-6.12323399573677E-17));
#197=FACE_BOUND('',#198,.T.);
#198=EDGE_LOOP('',(#397,#398,#399,#400));
#199=DEGENERATE_TOROIDAL_SURFACE('',#200,41.0384757729337,57.,.T.);
#200=AXIS2_PLACEMENT_3D('',#201,#202,#203);
#201=CARTESIAN_POINT('',(5.51091059616309E-15,-1.83697019872103E-15,30.));
#202=DIRECTION('',(1.83697019872103E-16,-6.12323399573677E-17,1.));
#203=DIRECTION('',(-1.45679607977965E-32,-1.,-6.12323399573677E-17));
#204=FACE_BOUND('',#205,.T.);
#205=EDGE_LOOP('',(#401,#402,#403,#404));
#206=PLANE('',#207);
#207=AXIS2_PLACEMENT_3D('',#208,#209,#210);
#208=CARTESIAN_POINT('',(1.03114420610212E-28,-3.43714735367374E-29,5.61328761250479E-13));
#209=DIRECTION('',(-1.83697019872103E-16,6.12323399573677E-17,-1.));
#210=DIRECTION('',(-1.12481983699639E-32,-1.,-6.12323399573677E-17));
#211=FACE_BOUND('',#212,.T.);
#212=EDGE_LOOP('',(#405,#406,#407,#408,#409,#410,#411,#412,#413,#414,#415,#416));
#213=PLANE('',#214);
#214=AXIS2_PLACEMENT_3D('',#215,#216,#217);
#215=CARTESIAN_POINT('',(0.,0.,0.));
#216=DIRECTION('',(-1.,0.,6.12323399573677E-17));
#217=DIRECTION('',(-3.74939945665464E-33,-1.,-6.12323399573677E-17));
#218=FACE_BOUND('',#219,.T.);
#219=EDGE_LOOP('',(#417,#418,#419,#420,#421,#422,#423,#424,#425,#426,#427,#428));
#220=PLANE('',#221);
#221=AXIS2_PLACEMENT_3D('',#222,#223,#224);
#222=CARTESIAN_POINT('',(0.,0.,0.));
#223=DIRECTION('',(-1.,0.,6.12323399573677E-17));
#224=DIRECTION('',(-3.74939945665464E-33,-1.,-6.12323399573677E-17));
#225=FACE_OUTER_BOUND('',#226,.T.);
#226=EDGE_LOOP('',(#429));
#227=FACE_OUTER_BOUND('',#228,.T.);
#228=EDGE_LOOP('',(#430));
#229=CYLINDRICAL_SURFACE('',#230,1.85);
#230=AXIS2_PLACEMENT_3D('',#231,#232,#233);
#231=CARTESIAN_POINT('',(14.7600951016735,-83.7086590058857,4.39804860980033E-13));
#232=DIRECTION('',(1.83697019872103E-16,-6.12323399573677E-17,1.));
#233=DIRECTION('',(6.12323399573677E-17,-1.,-6.12323399573677E-17));
#234=FACE_OUTER_BOUND('',#235,.T.);
#235=EDGE_LOOP('',(#431));
#236=FACE_OUTER_BOUND('',#237,.T.);
#237=EDGE_LOOP('',(#432));
#238=CYLINDRICAL_SURFACE('',#239,1.85);
#239=AXIS2_PLACEMENT_3D('',#240,#241,#242);
#240=CARTESIAN_POINT('',(7.40823813355433,-84.6765493379126,4.4109610900575E-13));
#241=DIRECTION('',(1.83697019872103E-16,-6.12323399573677E-17,1.));
#242=DIRECTION('',(6.12323399573677E-17,-1.,-6.12323399573677E-17));
#243=FACE_OUTER_BOUND('',#244,.T.);
#244=EDGE_LOOP('',(#433));
#245=FACE_OUTER_BOUND('',#246,.T.);
#246=EDGE_LOOP('',(#434));
#247=CYLINDRICAL_SURFACE('',#248,1.85);
#248=AXIS2_PLACEMENT_3D('',#249,#250,#251);
#249=CARTESIAN_POINT('',(83.7086590061914,-14.7600951017219,4.31361097170864E-13));
#250=DIRECTION('',(1.83697019872103E-16,-6.12323399573677E-17,1.));
#251=DIRECTION('',(6.12323399573677E-17,-1.,-6.12323399573677E-17));
#252=FACE_OUTER_BOUND('',#253,.T.);
#253=EDGE_LOOP('',(#435));
#254=FACE_OUTER_BOUND('',#255,.T.);
#255=EDGE_LOOP('',(#436));
#256=CYLINDRICAL_SURFACE('',#257,1.85);
#257=AXIS2_PLACEMENT_3D('',#258,#259,#260);
#258=CARTESIAN_POINT('',(14.7600951016735,83.7086590058857,4.50056215111281E-13));
#259=DIRECTION('',(1.83697019872103E-16,-6.12323399573677E-17,1.));
#260=DIRECTION('',(6.12323399573677E-17,-1.,-6.12323399573677E-17));
#261=FACE_OUTER_BOUND('',#262,.T.);
#262=EDGE_LOOP('',(#437));
#263=FACE_OUTER_BOUND('',#264,.T.);
#264=EDGE_LOOP('',(#438));
#265=CYLINDRICAL_SURFACE('',#266,1.85);
#266=AXIS2_PLACEMENT_3D('',#267,#268,#269);
#267=CARTESIAN_POINT('',(7.40823813355432,84.6765493379126,4.51465995516702E-13));
#268=DIRECTION('',(1.83697019872103E-16,-6.12323399573677E-17,1.));
#269=DIRECTION('',(6.12323399573677E-17,-1.,-6.12323399573677E-17));
#270=FACE_OUTER_BOUND('',#271,.T.);
#271=EDGE_LOOP('',(#439));
#272=FACE_OUTER_BOUND('',#273,.T.);
#273=EDGE_LOOP('',(#440));
#274=CYLINDRICAL_SURFACE('',#275,1.85);
#275=AXIS2_PLACEMENT_3D('',#276,#277,#278);
#276=CARTESIAN_POINT('',(83.7086590061914,14.7600951017219,4.33168687493007E-13));
#277=DIRECTION('',(1.83697019872103E-16,-6.12323399573677E-17,1.));
#278=DIRECTION('',(6.12323399573677E-17,-1.,-6.12323399573677E-17));
#279=FACE_OUTER_BOUND('',#280,.T.);
#280=EDGE_LOOP('',(#441));
#281=FACE_OUTER_BOUND('',#282,.T.);
#282=EDGE_LOOP('',(#442));
#283=CYLINDRICAL_SURFACE('',#284,1.85);
#284=AXIS2_PLACEMENT_3D('',#285,#286,#287);
#285=CARTESIAN_POINT('',(14.7600951016735,-83.7086590058857,4.39804860980033E-13));
#286=DIRECTION('',(1.83697019872103E-16,-6.12323399573677E-17,1.));
#287=DIRECTION('',(6.12323399573677E-17,-1.,-6.12323399573677E-17));
#288=FACE_OUTER_BOUND('',#289,.T.);
#289=EDGE_LOOP('',(#443));
#290=FACE_OUTER_BOUND('',#291,.T.);
#291=EDGE_LOOP('',(#444));
#292=CYLINDRICAL_SURFACE('',#293,1.85);
#293=AXIS2_PLACEMENT_3D('',#294,#295,#296);
#294=CARTESIAN_POINT('',(7.40823813355433,-84.6765493379126,4.4109610900575E-13));
#295=DIRECTION('',(1.83697019872103E-16,-6.12323399573677E-17,1.));
#296=DIRECTION('',(6.12323399573677E-17,-1.,-6.12323399573677E-17));
#297=FACE_OUTER_BOUND('',#298,.T.);
#298=EDGE_LOOP('',(#445));
#299=FACE_OUTER_BOUND('',#300,.T.);
#300=EDGE_LOOP('',(#446));
#301=CYLINDRICAL_SURFACE('',#302,1.85);
#302=AXIS2_PLACEMENT_3D('',#303,#304,#305);
#303=CARTESIAN_POINT('',(83.7086590061914,-14.7600951017219,4.31361097170864E-13));
#304=DIRECTION('',(1.83697019872103E-16,-6.12323399573677E-17,1.));
#305=DIRECTION('',(6.12323399573677E-17,-1.,-6.12323399573677E-17));
#306=FACE_OUTER_BOUND('',#307,.T.);
#307=EDGE_LOOP('',(#447));
#308=FACE_OUTER_BOUND('',#309,.T.);
#309=EDGE_LOOP('',(#448));
#310=CYLINDRICAL_SURFACE('',#311,1.85);
#311=AXIS2_PLACEMENT_3D('',#312,#313,#314);
#312=CARTESIAN_POINT('',(14.7600951016735,83.7086590058857,4.50056215111281E-13));
#313=DIRECTION('',(1.83697019872103E-16,-6.12323399573677E-17,1.));
#314=DIRECTION('',(6.12323399573677E-17,-1.,-6.12323399573677E-17));
#315=FACE_OUTER_BOUND('',#316,.T.);
#316=EDGE_LOOP('',(#449));
#317=FACE_OUTER_BOUND('',#318,.T.);
#318=EDGE_LOOP('',(#450));
#319=CYLINDRICAL_SURFACE('',#320,1.85);
#320=AXIS2_PLACEMENT_3D('',#321,#322,#323);
#321=CARTESIAN_POINT('',(7.40823813355432,84.6765493379126,4.51465995516702E-13));
#322=DIRECTION('',(1.83697019872103E-16,-6.12323399573677E-17,1.));
#323=DIRECTION('',(6.12323399573677E-17,-1.,-6.12323399573677E-17));
#324=FACE_OUTER_BOUND('',#325,.T.);
#325=EDGE_LOOP('',(#451));
#326=FACE_OUTER_BOUND('',#327,.T.);
#327=EDGE_LOOP('',(#452));
#328=CYLINDRICAL_SURFACE('',#329,1.85);
#329=AXIS2_PLACEMENT_3D('',#330,#331,#332);
#330=CARTESIAN_POINT('',(83.7086590061914,14.7600951017219,4.33168687493007E-13));
#331=DIRECTION('',(1.83697019872103E-16,-6.12323399573677E-17,1.));
#332=DIRECTION('',(6.12323399573677E-17,-1.,-6.12323399573677E-17));
#333=ORIENTED_EDGE('',*,*,#453,.T.);
#334=ORIENTED_EDGE('',*,*,#454,.F.);
#335=ORIENTED_EDGE('',*,*,#455,.T.);
#336=ORIENTED_EDGE('',*,*,#456,.T.);
#337=ORIENTED_EDGE('',*,*,#457,.T.);
#338=ORIENTED_EDGE('',*,*,#458,.T.);
#339=ORIENTED_EDGE('',*,*,#459,.T.);
#340=ORIENTED_EDGE('',*,*,#460,.T.);
#341=ORIENTED_EDGE('',*,*,#461,.T.);
#342=ORIENTED_EDGE('',*,*,#462,.T.);
#343=ORIENTED_EDGE('',*,*,#463,.T.);
#344=ORIENTED_EDGE('',*,*,#464,.T.);
#345=ORIENTED_EDGE('',*,*,#465,.T.);
#346=ORIENTED_EDGE('',*,*,#466,.F.);
#347=ORIENTED_EDGE('',*,*,#467,.T.);
#348=ORIENTED_EDGE('',*,*,#454,.T.);
#349=ORIENTED_EDGE('',*,*,#468,.T.);
#350=ORIENTED_EDGE('',*,*,#469,.F.);
#351=ORIENTED_EDGE('',*,*,#470,.T.);
#352=ORIENTED_EDGE('',*,*,#466,.T.);
#353=ORIENTED_EDGE('',*,*,#471,.T.);
#354=ORIENTED_EDGE('',*,*,#472,.F.);
#355=ORIENTED_EDGE('',*,*,#473,.T.);
#356=ORIENTED_EDGE('',*,*,#474,.T.);
#357=ORIENTED_EDGE('',*,*,#475,.T.);
#358=ORIENTED_EDGE('',*,*,#476,.T.);
#359=ORIENTED_EDGE('',*,*,#477,.T.);
#360=ORIENTED_EDGE('',*,*,#478,.T.);
#361=ORIENTED_EDGE('',*,*,#479,.T.);
#362=ORIENTED_EDGE('',*,*,#480,.T.);
#363=ORIENTED_EDGE('',*,*,#481,.T.);
#364=ORIENTED_EDGE('',*,*,#456,.F.);
#365=ORIENTED_EDGE('',*,*,#482,.T.);
#366=ORIENTED_EDGE('',*,*,#464,.F.);
#367=ORIENTED_EDGE('',*,*,#483,.T.);
#368=ORIENTED_EDGE('',*,*,#484,.T.);
#369=ORIENTED_EDGE('',*,*,#485,.T.);
#370=ORIENTED_EDGE('',*,*,#486,.T.);
#371=ORIENTED_EDGE('',*,*,#487,.T.);
#372=ORIENTED_EDGE('',*,*,#488,.T.);
#373=ORIENTED_EDGE('',*,*,#489,.T.);
#374=ORIENTED_EDGE('',*,*,#490,.T.);
#375=ORIENTED_EDGE('',*,*,#491,.T.);
#376=ORIENTED_EDGE('',*,*,#469,.T.);
#377=ORIENTED_EDGE('',*,*,#492,.T.);
#378=ORIENTED_EDGE('',*,*,#493,.T.);
#379=ORIENTED_EDGE('',*,*,#494,.T.);
#380=ORIENTED_EDGE('',*,*,#495,.T.);
#381=ORIENTED_EDGE('',*,*,#496,.T.);
#382=ORIENTED_EDGE('',*,*,#497,.T.);
#383=ORIENTED_EDGE('',*,*,#498,.T.);
#384=ORIENTED_EDGE('',*,*,#499,.T.);
#385=ORIENTED_EDGE('',*,*,#500,.T.);
#386=ORIENTED_EDGE('',*,*,#472,.T.);
#387=ORIENTED_EDGE('',*,*,#501,.T.);
#388=ORIENTED_EDGE('',*,*,#502,.F.);
#389=ORIENTED_EDGE('',*,*,#503,.T.);
#390=ORIENTED_EDGE('',*,*,#504,.F.);
#391=ORIENTED_EDGE('',*,*,#505,.T.);
#392=ORIENTED_EDGE('',*,*,#506,.T.);
#393=ORIENTED_EDGE('',*,*,#507,.T.);
#394=ORIENTED_EDGE('',*,*,#480,.F.);
#395=ORIENTED_EDGE('',*,*,#508,.T.);
#396=ORIENTED_EDGE('',*,*,#504,.T.);
#397=ORIENTED_EDGE('',*,*,#509,.T.);
#398=ORIENTED_EDGE('',*,*,#484,.F.);
#399=ORIENTED_EDGE('',*,*,#510,.T.);
#400=ORIENTED_EDGE('',*,*,#493,.F.);
#401=ORIENTED_EDGE('',*,*,#511,.T.);
#402=ORIENTED_EDGE('',*,*,#502,.T.);
#403=ORIENTED_EDGE('',*,*,#512,.T.);
#404=ORIENTED_EDGE('',*,*,#506,.F.);
#405=ORIENTED_EDGE('',*,*,#511,.F.);
#406=ORIENTED_EDGE('',*,*,#505,.F.);
#407=ORIENTED_EDGE('',*,*,#508,.F.);
#408=ORIENTED_EDGE('',*,*,#479,.F.);
#409=ORIENTED_EDGE('',*,*,#455,.F.);
#410=ORIENTED_EDGE('',*,*,#467,.F.);
#411=ORIENTED_EDGE('',*,*,#491,.F.);
#412=ORIENTED_EDGE('',*,*,#510,.F.);
#413=ORIENTED_EDGE('',*,*,#483,.F.);
#414=ORIENTED_EDGE('',*,*,#463,.F.);
#415=ORIENTED_EDGE('',*,*,#470,.F.);
#416=ORIENTED_EDGE('',*,*,#500,.F.);
#417=ORIENTED_EDGE('',*,*,#512,.F.);
#418=ORIENTED_EDGE('',*,*,#501,.F.);
#419=ORIENTED_EDGE('',*,*,#471,.F.);
#420=ORIENTED_EDGE('',*,*,#465,.F.);
#421=ORIENTED_EDGE('',*,*,#482,.F.);
#422=ORIENTED_EDGE('',*,*,#509,.F.);
#423=ORIENTED_EDGE('',*,*,#492,.F.);
#424=ORIENTED_EDGE('',*,*,#468,.F.);
#425=ORIENTED_EDGE('',*,*,#453,.F.);
#426=ORIENTED_EDGE('',*,*,#481,.F.);
#427=ORIENTED_EDGE('',*,*,#507,.F.);
#428=ORIENTED_EDGE('',*,*,#503,.F.);
#429=ORIENTED_EDGE('',*,*,#457,.F.);
#430=ORIENTED_EDGE('',*,*,#494,.F.);
#431=ORIENTED_EDGE('',*,*,#458,.F.);
#432=ORIENTED_EDGE('',*,*,#495,.F.);
#433=ORIENTED_EDGE('',*,*,#459,.F.);
#434=ORIENTED_EDGE('',*,*,#496,.F.);
#435=ORIENTED_EDGE('',*,*,#460,.F.);
#436=ORIENTED_EDGE('',*,*,#497,.F.);
#437=ORIENTED_EDGE('',*,*,#461,.F.);
#438=ORIENTED_EDGE('',*,*,#498,.F.);
#439=ORIENTED_EDGE('',*,*,#462,.F.);
#440=ORIENTED_EDGE('',*,*,#499,.F.);
#441=ORIENTED_EDGE('',*,*,#485,.F.);
#442=ORIENTED_EDGE('',*,*,#473,.F.);
#443=ORIENTED_EDGE('',*,*,#486,.F.);
#444=ORIENTED_EDGE('',*,*,#474,.F.);
#445=ORIENTED_EDGE('',*,*,#487,.F.);
#446=ORIENTED_EDGE('',*,*,#475,.F.);
#447=ORIENTED_EDGE('',*,*,#488,.F.);
#448=ORIENTED_EDGE('',*,*,#476,.F.);
#449=ORIENTED_EDGE('',*,*,#489,.F.);
#450=ORIENTED_EDGE('',*,*,#477,.F.);
#451=ORIENTED_EDGE('',*,*,#490,.F.);
#452=ORIENTED_EDGE('',*,*,#478,.F.);
#453=EDGE_CURVE('',#513,#514,#515,.T.);
#454=EDGE_CURVE('',#516,#514,#517,.T.);
#455=EDGE_CURVE('',#516,#518,#519,.T.);
#456=EDGE_CURVE('',#518,#513,#520,.T.);
#457=EDGE_CURVE('',#521,#521,#522,.F.);
#458=EDGE_CURVE('',#523,#523,#524,.F.);
#459=EDGE_CURVE('',#525,#525,#526,.F.);
#460=EDGE_CURVE('',#527,#527,#528,.F.);
#461=EDGE_CURVE('',#529,#529,#530,.F.);
#462=EDGE_CURVE('',#531,#531,#532,.F.);
#463=EDGE_CURVE('',#533,#534,#535,.F.);
#464=EDGE_CURVE('',#534,#536,#537,.T.);
#465=EDGE_CURVE('',#536,#538,#539,.T.);
#466=EDGE_CURVE('',#533,#538,#540,.T.);
#467=EDGE_CURVE('',#541,#516,#542,.F.);
#468=EDGE_CURVE('',#514,#543,#544,.T.);
#469=EDGE_CURVE('',#541,#543,#545,.T.);
#470=EDGE_CURVE('',#546,#533,#547,.T.);
#471=EDGE_CURVE('',#538,#548,#549,.T.);
#472=EDGE_CURVE('',#546,#548,#550,.T.);
#473=EDGE_CURVE('',#551,#551,#552,.T.);
#474=EDGE_CURVE('',#553,#553,#554,.T.);
#475=EDGE_CURVE('',#555,#555,#556,.T.);
#476=EDGE_CURVE('',#557,#557,#558,.T.);
#477=EDGE_CURVE('',#559,#559,#560,.T.);
#478=EDGE_CURVE('',#561,#561,#562,.T.);
#479=EDGE_CURVE('',#518,#563,#564,.F.);
#480=EDGE_CURVE('',#563,#565,#566,.T.);
#481=EDGE_CURVE('',#565,#513,#567,.T.);
#482=EDGE_CURVE('',#568,#536,#569,.T.);
#483=EDGE_CURVE('',#534,#570,#571,.T.);
#484=EDGE_CURVE('',#570,#568,#572,.T.);
#485=EDGE_CURVE('',#573,#573,#574,.F.);
#486=EDGE_CURVE('',#575,#575,#576,.F.);
#487=EDGE_CURVE('',#577,#577,#578,.F.);
#488=EDGE_CURVE('',#579,#579,#580,.F.);
#489=EDGE_CURVE('',#581,#581,#582,.F.);
#490=EDGE_CURVE('',#583,#583,#584,.F.);
#491=EDGE_CURVE('',#585,#541,#586,.T.);
#492=EDGE_CURVE('',#543,#587,#588,.T.);
#493=EDGE_CURVE('',#587,#585,#589,.F.);
#494=EDGE_CURVE('',#590,#590,#591,.T.);
#495=EDGE_CURVE('',#592,#592,#593,.T.);
#496=EDGE_CURVE('',#594,#594,#595,.T.);
#497=EDGE_CURVE('',#596,#596,#597,.T.);
#498=EDGE_CURVE('',#598,#598,#599,.T.);
#499=EDGE_CURVE('',#600,#600,#601,.T.);
#500=EDGE_CURVE('',#602,#546,#603,.F.);
#501=EDGE_CURVE('',#548,#604,#605,.T.);
#502=EDGE_CURVE('',#602,#604,#606,.T.);
#503=EDGE_CURVE('',#607,#608,#609,.T.);
#504=EDGE_CURVE('',#610,#608,#611,.T.);
#505=EDGE_CURVE('',#610,#612,#613,.F.);
#506=EDGE_CURVE('',#612,#607,#614,.T.);
#507=EDGE_CURVE('',#608,#565,#615,.T.);
#508=EDGE_CURVE('',#563,#610,#616,.T.);
#509=EDGE_CURVE('',#587,#568,#617,.T.);
#510=EDGE_CURVE('',#570,#585,#618,.F.);
#511=EDGE_CURVE('',#612,#602,#619,.T.);
#512=EDGE_CURVE('',#604,#607,#620,.T.);
#513=VERTEX_POINT('',#621);
#514=VERTEX_POINT('',#622);
#515=LINE('',#623,#624);
#516=VERTEX_POINT('',#626);
#517=CIRCLE('',#627,80.);
#518=VERTEX_POINT('',#631);
#519=LINE('',#632,#633);
#520=CIRCLE('',#635,90.);
#521=VERTEX_POINT('',#639);
#522=CIRCLE('',#640,1.85);
#523=VERTEX_POINT('',#644);
#524=CIRCLE('',#645,1.85);
#525=VERTEX_POINT('',#649);
#526=CIRCLE('',#650,1.85);
#527=VERTEX_POINT('',#654);
#528=CIRCLE('',#655,1.85);
#529=VERTEX_POINT('',#659);
#530=CIRCLE('',#660,1.85);
#531=VERTEX_POINT('',#664);
#532=CIRCLE('',#665,1.85);
#533=VERTEX_POINT('',#669);
#534=VERTEX_POINT('',#670);
#535=LINE('',#671,#672);
#536=VERTEX_POINT('',#674);
#537=CIRCLE('',#675,80.);
#538=VERTEX_POINT('',#679);
#539=LINE('',#680,#681);
#540=CIRCLE('',#683,80.);
#541=VERTEX_POINT('',#687);
#542=LINE('',#688,#689);
#543=VERTEX_POINT('',#691);
#544=LINE('',#692,#693);
#545=CIRCLE('',#695,80.);
#546=VERTEX_POINT('',#699);
#547=LINE('',#700,#701);
#548=VERTEX_POINT('',#703);
#549=LINE('',#704,#705);
#550=CIRCLE('',#707,90.);
#551=VERTEX_POINT('',#711);
#552=CIRCLE('',#712,1.85);
#553=VERTEX_POINT('',#716);
#554=CIRCLE('',#717,1.85);
#555=VERTEX_POINT('',#721);
#556=CIRCLE('',#722,1.85);
#557=VERTEX_POINT('',#726);
#558=CIRCLE('',#727,1.85);
#559=VERTEX_POINT('',#731);
#560=CIRCLE('',#732,1.85);
#561=VERTEX_POINT('',#736);
#562=CIRCLE('',#737,1.85);
#563=VERTEX_POINT('',#741);
#564=LINE('',#742,#743);
#565=VERTEX_POINT('',#745);
#566=CIRCLE('',#746,90.);
#567=LINE('',#750,#751);
#568=VERTEX_POINT('',#753);
#569=LINE('',#754,#755);
#570=VERTEX_POINT('',#757);
#571=LINE('',#758,#759);
#572=CIRCLE('',#761,93.1920950145549);
#573=VERTEX_POINT('',#765);
#574=CIRCLE('',#766,1.85);
#575=VERTEX_POINT('',#770);
#576=CIRCLE('',#771,1.85);
#577=VERTEX_POINT('',#775);
#578=CIRCLE('',#776,1.85);
#579=VERTEX_POINT('',#780);
#580=CIRCLE('',#781,1.85);
#581=VERTEX_POINT('',#785);
#582=CIRCLE('',#786,1.85);
#583=VERTEX_POINT('',#790);
#584=CIRCLE('',#791,1.85);
#585=VERTEX_POINT('',#795);
#586=LINE('',#796,#797);
#587=VERTEX_POINT('',#799);
#588=LINE('',#800,#801);
#589=CIRCLE('',#803,93.1920950145549);
#590=VERTEX_POINT('',#807);
#591=CIRCLE('',#808,1.85);
#592=VERTEX_POINT('',#812);
#593=CIRCLE('',#813,1.85);
#594=VERTEX_POINT('',#817);
#595=CIRCLE('',#818,1.85);
#596=VERTEX_POINT('',#822);
#597=CIRCLE('',#823,1.85);
#598=VERTEX_POINT('',#827);
#599=CIRCLE('',#828,1.85);
#600=VERTEX_POINT('',#832);
#601=CIRCLE('',#833,1.85);
#602=VERTEX_POINT('',#837);
#603=LINE('',#838,#839);
#604=VERTEX_POINT('',#841);
#605=LINE('',#842,#843);
#606=CIRCLE('',#845,90.);
#607=VERTEX_POINT('',#849);
#608=VERTEX_POINT('',#850);
#609=CIRCLE('',#851,60.);
#610=VERTEX_POINT('',#855);
#611=CIRCLE('',#856,93.);
#612=VERTEX_POINT('',#860);
#613=CIRCLE('',#861,60.);
#614=CIRCLE('',#865,92.9999999999989);
#615=LINE('',#869,#870);
#616=LINE('',#872,#873);
#617=CIRCLE('',#875,57.);
#618=CIRCLE('',#879,57.);
#619=LINE('',#883,#884);
#620=LINE('',#886,#887);
#621=CARTESIAN_POINT('',(-5.84435064479752E-14,90.,57.));
#622=CARTESIAN_POINT('',(2.02679045258887E-14,80.,57.));
#623=CARTESIAN_POINT('',(3.49024337756996E-15,90.,57.));
#624=VECTOR('',#625,1.);
#625=DIRECTION('',(0.,-1.,0.));
#626=CARTESIAN_POINT('',(1.04707301327099E-14,-80.,57.));
#627=AXIS2_PLACEMENT_3D('',#628,#629,#630);
#628=CARTESIAN_POINT('',(1.04707301327099E-14,-3.49024337756996E-15,57.));
#629=DIRECTION('',(1.83697019872103E-16,-6.12323399573677E-17,1.));
#630=DIRECTION('',(-1.46541481191265E-32,-1.,-6.12323399573677E-17));
#631=CARTESIAN_POINT('',(4.54427554084023E-14,-90.,57.));
#632=CARTESIAN_POINT('',(3.49024337756996E-15,-80.,57.));
#633=VECTOR('',#634,1.);
#634=DIRECTION('',(0.,-1.,0.));
#635=AXIS2_PLACEMENT_3D('',#636,#637,#638);
#636=CARTESIAN_POINT('',(1.04707301327099E-14,-3.49024337756996E-15,57.));
#637=DIRECTION('',(1.83697019872103E-16,-6.12323399573677E-17,1.));
#638=DIRECTION('',(-1.42757092581085E-32,-1.,-6.12323399573677E-17));
#639=CARTESIAN_POINT('',(14.7600951016735,-85.5586590058857,57.));
#640=AXIS2_PLACEMENT_3D('',#641,#642,#643);
#641=CARTESIAN_POINT('',(14.7600951016735,-83.7086590058857,57.));
#642=DIRECTION('',(1.83697019872103E-16,-6.12323399573677E-17,1.));
#643=DIRECTION('',(6.12323399573677E-17,-1.,-6.12323399573677E-17));
#644=CARTESIAN_POINT('',(7.40823813355434,-86.5265493379126,57.));
#645=AXIS2_PLACEMENT_3D('',#646,#647,#648);
#646=CARTESIAN_POINT('',(7.40823813355434,-84.6765493379126,57.));
#647=DIRECTION('',(1.83697019872103E-16,-6.12323399573677E-17,1.));
#648=DIRECTION('',(6.12323399573677E-17,-1.,-6.12323399573677E-17));
#649=CARTESIAN_POINT('',(83.7086590061914,-16.6100951017219,57.));
#650=AXIS2_PLACEMENT_3D('',#651,#652,#653);
#651=CARTESIAN_POINT('',(83.7086590061914,-14.7600951017219,57.));
#652=DIRECTION('',(1.83697019872103E-16,-6.12323399573677E-17,1.));
#653=DIRECTION('',(6.12323399573677E-17,-1.,-6.12323399573677E-17));
#654=CARTESIAN_POINT('',(14.7600951016735,81.8586590058857,57.));
#655=AXIS2_PLACEMENT_3D('',#656,#657,#658);
#656=CARTESIAN_POINT('',(14.7600951016735,83.7086590058857,57.));
#657=DIRECTION('',(1.83697019872103E-16,-6.12323399573677E-17,1.));
#658=DIRECTION('',(6.12323399573677E-17,-1.,-6.12323399573677E-17));
#659=CARTESIAN_POINT('',(7.40823813355433,82.8265493379126,57.));
#660=AXIS2_PLACEMENT_3D('',#661,#662,#663);
#661=CARTESIAN_POINT('',(7.40823813355433,84.6765493379126,57.));
#662=DIRECTION('',(1.83697019872103E-16,-6.12323399573677E-17,1.));
#663=DIRECTION('',(6.12323399573677E-17,-1.,-6.12323399573677E-17));
#664=CARTESIAN_POINT('',(83.7086590061914,12.9100951017219,57.));
#665=AXIS2_PLACEMENT_3D('',#666,#667,#668);
#666=CARTESIAN_POINT('',(83.7086590061914,14.7600951017219,57.));
#667=DIRECTION('',(1.83697019872103E-16,-6.12323399573677E-17,1.));
#668=DIRECTION('',(6.12323399573677E-17,-1.,-6.12323399573677E-17));
#669=CARTESIAN_POINT('',(5.51091059616308E-16,-80.,3.));
#670=CARTESIAN_POINT('',(-4.32708535698732E-15,-80.,7.));
#671=CARTESIAN_POINT('',(8.57252759403147E-16,-80.,6.99999999999999));
#672=VECTOR('',#673,1.);
#673=DIRECTION('',(-1.22464679914735E-16,0.,-1.));
#674=CARTESIAN_POINT('',(7.5621939847349E-15,80.,7.00000000000002));
#675=AXIS2_PLACEMENT_3D('',#676,#677,#678);
#676=CARTESIAN_POINT('',(-8.5725275940315E-16,-4.28626379701575E-16,7.00000000000002));
#677=DIRECTION('',(-1.22464679914735E-16,-6.12323399573677E-17,1.));
#678=DIRECTION('',(6.12323399573677E-17,-1.,-6.12323399573677E-17));
#679=CARTESIAN_POINT('',(1.03482654527951E-14,80.,3.00000000000001));
#680=CARTESIAN_POINT('',(5.75583995599256E-15,80.,7.00000000000001));
#681=VECTOR('',#682,1.);
#682=DIRECTION('',(-1.22464679914735E-16,0.,-1.));
#683=AXIS2_PLACEMENT_3D('',#684,#685,#686);
#684=CARTESIAN_POINT('',(5.51091059616309E-16,-1.83697019872103E-16,3.));
#685=DIRECTION('',(1.83697019872103E-16,-6.12323399573677E-17,1.));
#686=DIRECTION('',(-1.11245984936976E-32,-1.,-6.12323399573677E-17));
#687=CARTESIAN_POINT('',(2.38909289273165E-15,-80.,53.));
#688=CARTESIAN_POINT('',(6.98048675513991E-15,-80.,57.));
#689=VECTOR('',#690,1.);
#690=DIRECTION('',(-1.22464679914735E-16,0.,-1.));
#691=CARTESIAN_POINT('',(8.97053780375436E-15,80.,53.));
#692=CARTESIAN_POINT('',(1.18790739517293E-14,80.,57.));
#693=VECTOR('',#694,1.);
#694=DIRECTION('',(-1.22464679914736E-16,0.,-1.));
#695=AXIS2_PLACEMENT_3D('',#696,#697,#698);
#696=CARTESIAN_POINT('',(-6.49062803548097E-15,-3.24531401774049E-15,53.));
#697=DIRECTION('',(-1.22464679914735E-16,-6.12323399573677E-17,1.));
#698=DIRECTION('',(2.83276944882399E-16,-1.,-6.12323399573676E-17));
#699=CARTESIAN_POINT('',(4.05191199461219E-14,-90.,3.));
#700=CARTESIAN_POINT('',(1.83697019872103E-16,-90.,3.));
#701=VECTOR('',#702,1.);
#702=DIRECTION('',(0.,1.,4.44089209850063E-17));
#703=CARTESIAN_POINT('',(3.15569266951953E-14,90.,3.00000000000001));
#704=CARTESIAN_POINT('',(1.83697019872103E-16,80.,3.00000000000001));
#705=VECTOR('',#706,1.);
#706=DIRECTION('',(4.93038065763132E-33,1.,4.44089209850063E-17));
#707=AXIS2_PLACEMENT_3D('',#708,#709,#710);
#708=CARTESIAN_POINT('',(5.51091059616309E-16,-1.83697019872103E-16,3.));
#709=DIRECTION('',(1.83697019872103E-16,-6.12323399573677E-17,1.));
#710=DIRECTION('',(-1.13275512437917E-32,-1.,-6.12323399573677E-17));
#711=CARTESIAN_POINT('',(14.7600951016735,-85.5586590058857,2.99999999999999));
#712=AXIS2_PLACEMENT_3D('',#713,#714,#715);
#713=CARTESIAN_POINT('',(14.7600951016735,-83.7086590058857,2.99999999999999));
#714=DIRECTION('',(1.83697019872103E-16,-6.12323399573677E-17,1.));
#715=DIRECTION('',(6.12323399573677E-17,-1.,-6.12323399573677E-17));
#716=CARTESIAN_POINT('',(7.40823813355433,-86.5265493379126,2.99999999999999));
#717=AXIS2_PLACEMENT_3D('',#718,#719,#720);
#718=CARTESIAN_POINT('',(7.40823813355433,-84.6765493379126,2.99999999999999));
#719=DIRECTION('',(1.83697019872103E-16,-6.12323399573677E-17,1.));
#720=DIRECTION('',(6.12323399573677E-17,-1.,-6.12323399573677E-17));
#721=CARTESIAN_POINT('',(83.7086590061914,-16.6100951017219,2.99999999999998));
#722=AXIS2_PLACEMENT_3D('',#723,#724,#725);
#723=CARTESIAN_POINT('',(83.7086590061914,-14.7600951017219,2.99999999999998));
#724=DIRECTION('',(1.83697019872103E-16,-6.12323399573677E-17,1.));
#725=DIRECTION('',(6.12323399573677E-17,-1.,-6.12323399573677E-17));
#726=CARTESIAN_POINT('',(14.7600951016735,81.8586590058857,3.));
#727=AXIS2_PLACEMENT_3D('',#728,#729,#730);
#728=CARTESIAN_POINT('',(14.7600951016735,83.7086590058857,3.));
#729=DIRECTION('',(1.83697019872103E-16,-6.12323399573677E-17,1.));
#730=DIRECTION('',(6.12323399573677E-17,-1.,-6.12323399573677E-17));
#731=CARTESIAN_POINT('',(7.40823813355432,82.8265493379126,3.));
#732=AXIS2_PLACEMENT_3D('',#733,#734,#735);
#733=CARTESIAN_POINT('',(7.40823813355432,84.6765493379126,3.));
#734=DIRECTION('',(1.83697019872103E-16,-6.12323399573677E-17,1.));
#735=DIRECTION('',(6.12323399573677E-17,-1.,-6.12323399573677E-17));
#736=CARTESIAN_POINT('',(83.7086590061914,12.9100951017219,2.99999999999999));
#737=AXIS2_PLACEMENT_3D('',#738,#739,#740);
#738=CARTESIAN_POINT('',(83.7086590061914,14.7600951017219,2.99999999999999));
#739=DIRECTION('',(1.83697019872103E-16,-6.12323399573677E-17,1.));
#740=DIRECTION('',(6.12323399573677E-17,-1.,-6.12323399573677E-17));
#741=CARTESIAN_POINT('',(2.4980018054066E-14,-90.,60.));
#742=CARTESIAN_POINT('',(7.34788079488412E-15,-90.,60.));
#743=VECTOR('',#744,1.);
#744=DIRECTION('',(-1.22464679914735E-16,0.,-1.));
#745=CARTESIAN_POINT('',(4.20276568279052E-14,90.,60.));
#746=AXIS2_PLACEMENT_3D('',#747,#748,#749);
#747=CARTESIAN_POINT('',(1.10218211923262E-14,-3.67394039744206E-15,60.));
#748=DIRECTION('',(1.83697019872103E-16,-6.12323399573677E-17,1.));
#749=DIRECTION('',(-1.42757092581085E-32,-1.,-6.12323399573677E-17));
#750=CARTESIAN_POINT('',(1.28587913910472E-14,90.,60.));
#751=VECTOR('',#752,1.);
#752=DIRECTION('',(-1.22464679914735E-16,0.,-1.));
#753=CARTESIAN_POINT('',(1.44251679050528E-14,93.1920950145549,7.00000000000003));
#754=CARTESIAN_POINT('',(4.28626379701575E-16,93.1920950145549,7.00000000000003));
#755=VECTOR('',#756,1.);
#756=DIRECTION('',(-3.73737503572527E-33,-1.,0.));
#757=CARTESIAN_POINT('',(3.98845635543102E-15,-93.1920950145549,7.00000000000002));
#758=CARTESIAN_POINT('',(4.28626379701575E-16,-80.,7.00000000000002));
#759=VECTOR('',#760,1.);
#760=DIRECTION('',(-5.97980005716043E-32,-1.,0.));
#761=AXIS2_PLACEMENT_3D('',#762,#763,#764);
#762=CARTESIAN_POINT('',(1.28587913910473E-15,-4.28626379701575E-16,7.00000000000002));
#763=DIRECTION('',(-1.22464679914735E-16,-6.12323399573677E-17,1.));
#764=DIRECTION('',(-1.37981567954223E-17,-1.,-6.12323399573677E-17));
#765=CARTESIAN_POINT('',(14.7600951016735,-85.5586590058857,7.00000000000002));
#766=AXIS2_PLACEMENT_3D('',#767,#768,#769);
#767=CARTESIAN_POINT('',(14.7600951016735,-83.7086590058857,7.00000000000002));
#768=DIRECTION('',(-1.22464679914735E-16,-6.12323399573677E-17,1.));
#769=DIRECTION('',(6.12323399573677E-17,-1.,-6.12323399573677E-17));
#770=CARTESIAN_POINT('',(7.40823813355433,-86.5265493379126,7.00000000000002));
#771=AXIS2_PLACEMENT_3D('',#772,#773,#774);
#772=CARTESIAN_POINT('',(7.40823813355433,-84.6765493379126,7.00000000000002));
#773=DIRECTION('',(-1.22464679914735E-16,-6.12323399573677E-17,1.));
#774=DIRECTION('',(6.12323399573677E-17,-1.,-6.12323399573677E-17));
#775=CARTESIAN_POINT('',(83.7086590061914,-16.6100951017219,7.00000000000001));
#776=AXIS2_PLACEMENT_3D('',#777,#778,#779);
#777=CARTESIAN_POINT('',(83.7086590061914,-14.7600951017219,7.00000000000003));
#778=DIRECTION('',(-1.22464679914735E-16,-6.12323399573677E-17,1.));
#779=DIRECTION('',(6.12323399573677E-17,-1.,-6.12323399573677E-17));
#780=CARTESIAN_POINT('',(14.7600951016735,81.8586590058857,7.00000000000003));
#781=AXIS2_PLACEMENT_3D('',#782,#783,#784);
#782=CARTESIAN_POINT('',(14.7600951016735,83.7086590058857,7.00000000000003));
#783=DIRECTION('',(-1.22464679914735E-16,-6.12323399573677E-17,1.));
#784=DIRECTION('',(6.12323399573677E-17,-1.,-6.12323399573677E-17));
#785=CARTESIAN_POINT('',(7.40823813355432,82.8265493379126,7.00000000000003));
#786=AXIS2_PLACEMENT_3D('',#787,#788,#789);
#787=CARTESIAN_POINT('',(7.40823813355432,84.6765493379126,7.00000000000003));
#788=DIRECTION('',(-1.22464679914735E-16,-6.12323399573677E-17,1.));
#789=DIRECTION('',(6.12323399573677E-17,-1.,-6.12323399573677E-17));
#790=CARTESIAN_POINT('',(83.7086590061914,12.9100951017219,7.00000000000001));
#791=AXIS2_PLACEMENT_3D('',#792,#793,#794);
#792=CARTESIAN_POINT('',(83.7086590061914,14.7600951017219,7.00000000000004));
#793=DIRECTION('',(-1.22464679914735E-16,-6.12323399573677E-17,1.));
#794=DIRECTION('',(6.12323399573677E-17,-1.,-6.12323399573677E-17));
#795=CARTESIAN_POINT('',(1.6054941210852E-14,-93.1920950145549,53.));
#796=CARTESIAN_POINT('',(3.24531401774049E-15,-93.1920950145549,53.));
#797=VECTOR('',#798,1.);
#798=DIRECTION('',(8.96970008574066E-32,1.,0.));
#799=CARTESIAN_POINT('',(1.93862254028727E-14,93.1920950145549,53.));
#800=CARTESIAN_POINT('',(3.24531401774049E-15,80.,53.));
#801=VECTOR('',#802,1.);
#802=DIRECTION('',(0.,1.,0.));
#803=AXIS2_PLACEMENT_3D('',#804,#805,#806);
#804=CARTESIAN_POINT('',(9.73594205322146E-15,-3.24531401774049E-15,53.));
#805=DIRECTION('',(-1.22464679914735E-16,-6.12323399573677E-17,1.));
#806=DIRECTION('',(4.80181571331951E-17,-1.,-6.12323399573677E-17));
#807=CARTESIAN_POINT('',(14.7600951016735,-85.5586590058857,53.));
#808=AXIS2_PLACEMENT_3D('',#809,#810,#811);
#809=CARTESIAN_POINT('',(14.7600951016735,-83.7086590058857,53.));
#810=DIRECTION('',(-1.22464679914735E-16,-6.12323399573677E-17,1.));
#811=DIRECTION('',(6.12323399573677E-17,-1.,-6.12323399573677E-17));
#812=CARTESIAN_POINT('',(7.40823813355434,-86.5265493379126,53.));
#813=AXIS2_PLACEMENT_3D('',#814,#815,#816);
#814=CARTESIAN_POINT('',(7.40823813355434,-84.6765493379126,53.));
#815=DIRECTION('',(-1.22464679914735E-16,-6.12323399573677E-17,1.));
#816=DIRECTION('',(6.12323399573677E-17,-1.,-6.12323399573677E-17));
#817=CARTESIAN_POINT('',(83.7086590061914,-16.6100951017219,53.));
#818=AXIS2_PLACEMENT_3D('',#819,#820,#821);
#819=CARTESIAN_POINT('',(83.7086590061914,-14.7600951017219,53.));
#820=DIRECTION('',(-1.22464679914735E-16,-6.12323399573677E-17,1.));
#821=DIRECTION('',(6.12323399573677E-17,-1.,-6.12323399573677E-17));
#822=CARTESIAN_POINT('',(14.7600951016735,81.8586590058857,53.));
#823=AXIS2_PLACEMENT_3D('',#824,#825,#826);
#824=CARTESIAN_POINT('',(14.7600951016735,83.7086590058857,53.));
#825=DIRECTION('',(-1.22464679914735E-16,-6.12323399573677E-17,1.));
#826=DIRECTION('',(6.12323399573677E-17,-1.,-6.12323399573677E-17));
#827=CARTESIAN_POINT('',(7.40823813355433,82.8265493379126,53.));
#828=AXIS2_PLACEMENT_3D('',#829,#830,#831);
#829=CARTESIAN_POINT('',(7.40823813355433,84.6765493379126,53.));
#830=DIRECTION('',(-1.22464679914735E-16,-6.12323399573677E-17,1.));
#831=DIRECTION('',(6.12323399573677E-17,-1.,-6.12323399573677E-17));
#832=CARTESIAN_POINT('',(83.7086590061914,12.9100951017219,53.));
#833=AXIS2_PLACEMENT_3D('',#834,#835,#836);
#834=CARTESIAN_POINT('',(83.7086590061914,14.7600951017219,53.));
#835=DIRECTION('',(-1.22464679914735E-16,-6.12323399573677E-17,1.));
#836=DIRECTION('',(6.12323399573677E-17,-1.,-6.12323399573677E-17));
#837=CARTESIAN_POINT('',(-4.09978428572053E-14,-90.,5.0395033314084E-13));
#838=CARTESIAN_POINT('',(3.67394039744205E-16,-90.,3.));
#839=VECTOR('',#840,1.);
#840=DIRECTION('',(-1.22464679914735E-16,0.,-1.));
#841=CARTESIAN_POINT('',(3.10058356355791E-14,90.,5.44988380525008E-13));
#842=CARTESIAN_POINT('',(5.8783046359073E-15,90.,3.00000000000001));
#843=VECTOR('',#844,1.);
#844=DIRECTION('',(-1.22464679914735E-16,0.,-1.));
#845=AXIS2_PLACEMENT_3D('',#846,#847,#848);
#846=CARTESIAN_POINT('',(1.03114420610212E-28,-3.43714735367374E-29,5.61328761250479E-13));
#847=DIRECTION('',(1.83697019872103E-16,-6.12323399573677E-17,1.));
#848=DIRECTION('',(-1.1248198369964E-32,-1.,-6.12323399573677E-17));
#849=CARTESIAN_POINT('',(3.20393634900981E-14,92.999999999999,5.37530712467493E-13));
#850=CARTESIAN_POINT('',(2.24110364243965E-14,92.9999999999996,59.9999999999998));
#851=AXIS2_PLACEMENT_3D('',#852,#853,#854);
#852=CARTESIAN_POINT('',(1.83697019872103E-15,41.0384757729325,30.));
#853=DIRECTION('',(1.,0.,-6.12323399573677E-17));
#854=DIRECTION('',(-3.06161699786833E-17,0.866025403784443,-0.499999999999992));
#855=CARTESIAN_POINT('',(-1.5855005233265E-14,-92.9999999999996,59.9999999999997));
#856=AXIS2_PLACEMENT_3D('',#857,#858,#859);
#857=CARTESIAN_POINT('',(1.10218211923262E-14,-3.67394039744206E-15,60.));
#858=DIRECTION('',(1.83697019872103E-16,-6.12323399573677E-17,1.));
#859=DIRECTION('',(-1.41780476165554E-32,-1.,-6.12323399573677E-17));
#860=CARTESIAN_POINT('',(-2.6876826425591E-14,-92.999999999999,5.24730677493857E-13));
#861=AXIS2_PLACEMENT_3D('',#862,#863,#864);
#862=CARTESIAN_POINT('',(1.83697019872103E-15,-41.0384757729325,30.));
#863=DIRECTION('',(-1.,0.,6.12323399573677E-17));
#864=DIRECTION('',(-3.06161699786833E-17,-0.866025403784443,-0.499999999999992));
#865=AXIS2_PLACEMENT_3D('',#866,#867,#868);
#866=CARTESIAN_POINT('',(1.03114420610212E-28,-3.43714735367374E-29,5.61328761250479E-13));
#867=DIRECTION('',(1.83697019872103E-16,-6.12323399573677E-17,1.));
#868=DIRECTION('',(-1.12481983699639E-32,-1.,-6.12323399573677E-17));
#869=CARTESIAN_POINT('',(3.67394039744206E-15,93.,60.));
#870=VECTOR('',#871,1.);
#871=DIRECTION('',(0.,-1.,0.));
#872=CARTESIAN_POINT('',(3.67394039744206E-15,-90.,60.));
#873=VECTOR('',#874,1.);
#874=DIRECTION('',(0.,-1.,0.));
#875=AXIS2_PLACEMENT_3D('',#876,#877,#878);
#876=CARTESIAN_POINT('',(1.83697019872103E-15,41.0384757729337,30.));
#877=DIRECTION('',(-1.,0.,6.12323399573677E-17));
#878=DIRECTION('',(2.4707786298587E-17,0.914975776168792,0.403508771929826));
#879=AXIS2_PLACEMENT_3D('',#880,#881,#882);
#880=CARTESIAN_POINT('',(1.83697019872103E-15,-41.0384757729337,30.));
#881=DIRECTION('',(1.,0.,-6.12323399573677E-17));
#882=DIRECTION('',(2.4707786298587E-17,-0.914975776168792,0.403508771929825));
#883=CARTESIAN_POINT('',(3.40227793872685E-29,-92.9999999999989,5.55634153634444E-13));
#884=VECTOR('',#885,1.);
#885=DIRECTION('',(3.74939945665458E-33,1.,6.12323399573683E-17));
#886=CARTESIAN_POINT('',(3.47089194878363E-29,90.,5.66839671846642E-13));
#887=VECTOR('',#888,1.);
#888=DIRECTION('',(3.7493994566546E-33,1.,6.12323399573686E-17));
ENDSEC;
END-ISO-10303-21;
