ISO-10303-21;
HEADER;
FILE_DESCRIPTION(('STEP AP242'),
    '1');
FILE_NAME('Статор крепление для стоек',
    '',
    ('UNSPECIFIED'),
    ('UNSPECIFIED'),
    'C3D Converter',
    'C3D Toolkit',
    '');
FILE_SCHEMA(('AP242_MANAGED_MODEL_BASED_3D_ENGINEERING_MIM_LF { 1 0 10303 442 1 1 4 }'));
ENDSEC;

DATA;
#1=PRODUCT_DEFINITION('','UNSPECIFIED',#28,#31);
#2=SHAPE_DEFINITION_REPRESENTATION(#26,#3);
#3=SHAPE_REPRESENTATION('NONE',(#4),#8);
#4=AXIS2_PLACEMENT_3D('',#5,#6,#7);
#5=CARTESIAN_POINT('',(0.,0.,0.));
#6=DIRECTION('',(0.,0.,1.));
#7=DIRECTION('',(1.,0.,0.));
#8=(GEOMETRIC_REPRESENTATION_CONTEXT(3)GLOBAL_UNCERTAINTY_ASSIGNED_CONTEXT((#10))
GLOBAL_UNIT_ASSIGNED_CONTEXT((#9,#11,#12))REPRESENTATION_CONTEXT('NONE','NONE'));
#9=(LENGTH_UNIT()NAMED_UNIT(*)SI_UNIT(.MILLI.,.METRE.));
#10=UNCERTAINTY_MEASURE_WITH_UNIT(LENGTH_MEASURE(1.E-5),#9,'NONE','NONE');
#11=(NAMED_UNIT(*)PLANE_ANGLE_UNIT()SI_UNIT($,.RADIAN.));
#12=(NAMED_UNIT(*)SI_UNIT($,.STERADIAN.)SOLID_ANGLE_UNIT());
#13=MANIFOLD_SOLID_BREP('',#14);
#14=CLOSED_SHELL('',(#53,#54,#55,#56,#57,#58,#59,#60,#61,#62,#63,#64,#65,#66,#67,
#68,#69,#70,#71,#72,#73,#74,#75,#76,#77,#78,#79,#80,#81,#82,#83,#84,#85,#86,#87,
#88,#89,#90,#91,#92,#93,#94,#95,#96,#97,#98,#99,#100,#101));
#15=COLOUR_RGB('',0.,0.4,0.4);
#16=FILL_AREA_STYLE_COLOUR('',#15);
#17=FILL_AREA_STYLE($,(#16));
#18=SURFACE_STYLE_FILL_AREA(#17);
#19=SURFACE_SIDE_STYLE('',(#18));
#20=SURFACE_STYLE_USAGE(.BOTH.,#19);
#21=PRESENTATION_STYLE_ASSIGNMENT((#20));
#22=MECHANICAL_DESIGN_GEOMETRIC_PRESENTATION_REPRESENTATION('NONE',(#23),#8);
#23=STYLED_ITEM('',(#21),#13);
#24=ADVANCED_BREP_SHAPE_REPRESENTATION('NONE',(#13),#8);
#25=SHAPE_REPRESENTATION_RELATIONSHIP('','',#3,#24);
#26=PRODUCT_DEFINITION_SHAPE('NONE','NONE',#1);
#27=MECHANICAL_CONTEXT('NONE',#32,'mechanical');
#28=PRODUCT_DEFINITION_FORMATION_WITH_SPECIFIED_SOURCE('ANY','UNSPECIFIED',#29,.NOT_KNOWN.);
#29=PRODUCT('','\X2\0421044204300442043E0440\X0\ \X2\043A04400435043F043B0435043D04380435\X0\ \X2\0434043B044F\X0\ \X2\04410442043E0435043A\X0\',
'NONE',(#27));
#30=PRODUCT_RELATED_PRODUCT_CATEGORY('detail','',(#29));
#31=DESIGN_CONTEXT('detailed design',#32,'design');
#32=APPLICATION_CONTEXT('configuration controlled 3d designs of mechanical parts and assemblies');
#33=APPLICATION_PROTOCOL_DEFINITION('international standard','config_control_design',
1994,#32);
#34=CC_DESIGN_DATE_AND_TIME_ASSIGNMENT(#35,#39,(#1));
#35=DATE_AND_TIME(#36,#37);
#36=CALENDAR_DATE(0,1,1);
#37=LOCAL_TIME(0,0,0.,#38);
#38=COORDINATED_UNIVERSAL_TIME_OFFSET(0,0,.AHEAD.);
#39=DATE_TIME_ROLE('creation_date');
#40=CC_DESIGN_APPROVAL(#41,(#1));
#41=APPROVAL(#42,'UNSPECIFIED');
#42=APPROVAL_STATUS('not_yet_approved');
#43=APPROVAL_DATE_TIME(#44,#41);
#44=DATE_AND_TIME(#45,#46);
#45=CALENDAR_DATE(0,1,1);
#46=LOCAL_TIME(0,0,0.,#47);
#47=COORDINATED_UNIVERSAL_TIME_OFFSET(0,0,.AHEAD.);
#48=PERSON('UNSPECIFIED','yaros','UNSPECIFIED',('UNSPECIFIED'),('UNSPECIFIED'),(
'UNSPECIFIED'));
#49=ORGANIZATION('UNSPECIFIED','UNSPECIFIED','UNSPECIFIED');
#50=PERSON_AND_ORGANIZATION(#48,#49);
#51=PERSON_AND_ORGANIZATION_ROLE('creator');
#52=CC_DESIGN_PERSON_AND_ORGANIZATION_ASSIGNMENT(#50,#51,(#28,#1));
#53=ADVANCED_FACE('',(#102),#104,.F.);
#54=ADVANCED_FACE('',(#109),#111,.F.);
#55=ADVANCED_FACE('',(#116),#118,.F.);
#56=ADVANCED_FACE('',(#123),#125,.F.);
#57=ADVANCED_FACE('',(#130),#132,.F.);
#58=ADVANCED_FACE('',(#137),#139,.F.);
#59=ADVANCED_FACE('',(#144),#146,.F.);
#60=ADVANCED_FACE('',(#151),#153,.F.);
#61=ADVANCED_FACE('',(#158),#160,.T.);
#62=ADVANCED_FACE('',(#165),#167,.T.);
#63=ADVANCED_FACE('',(#172),#174,.T.);
#64=ADVANCED_FACE('',(#179),#181,.T.);
#65=ADVANCED_FACE('',(#186),#188,.T.);
#66=ADVANCED_FACE('',(#193),#195,.T.);
#67=ADVANCED_FACE('',(#200),#202,.T.);
#68=ADVANCED_FACE('',(#207),#209,.T.);
#69=ADVANCED_FACE('',(#214),#216,.T.);
#70=ADVANCED_FACE('',(#221),#223,.T.);
#71=ADVANCED_FACE('',(#228),#230,.T.);
#72=ADVANCED_FACE('',(#235),#237,.T.);
#73=ADVANCED_FACE('',(#242),#244,.F.);
#74=ADVANCED_FACE('',(#249),#251,.F.);
#75=ADVANCED_FACE('',(#256),#258,.F.);
#76=ADVANCED_FACE('',(#263),#265,.F.);
#77=ADVANCED_FACE('',(#270,#272),#274,.T.);
#78=ADVANCED_FACE('',(#279,#281),#283,.T.);
#79=ADVANCED_FACE('',(#288,#290),#292,.T.);
#80=ADVANCED_FACE('',(#297),#299,.F.);
#81=ADVANCED_FACE('',(#304),#306,.F.);
#82=ADVANCED_FACE('',(#311),#313,.F.);
#83=ADVANCED_FACE('',(#318),#320,.F.);
#84=ADVANCED_FACE('',(#325),#327,.F.);
#85=ADVANCED_FACE('',(#332),#334,.F.);
#86=ADVANCED_FACE('',(#339),#341,.F.);
#87=ADVANCED_FACE('',(#346),#348,.F.);
#88=ADVANCED_FACE('',(#353),#355,.F.);
#89=ADVANCED_FACE('',(#360),#362,.F.);
#90=ADVANCED_FACE('',(#367),#369,.F.);
#91=ADVANCED_FACE('',(#374),#376,.F.);
#92=ADVANCED_FACE('',(#381),#383,.F.);
#93=ADVANCED_FACE('',(#388),#390,.F.);
#94=ADVANCED_FACE('',(#395),#397,.F.);
#95=ADVANCED_FACE('',(#402,#404,#406,#408,#410,#412,#414,#416),#418,.F.);
#96=ADVANCED_FACE('',(#423,#425),#427,.T.);
#97=ADVANCED_FACE('',(#432,#434),#436,.F.);
#98=ADVANCED_FACE('',(#441,#443),#445,.F.);
#99=ADVANCED_FACE('',(#450,#452),#454,.F.);
#100=ADVANCED_FACE('',(#459,#461),#463,.F.);
#101=ADVANCED_FACE('',(#468,#470,#472,#474,#476),#478,.T.);
#102=FACE_BOUND('',#103,.T.);
#103=EDGE_LOOP('',(#483,#484,#485,#486));
#104=PLANE('',#105);
#105=AXIS2_PLACEMENT_3D('',#106,#107,#108);
#106=CARTESIAN_POINT('',(-9.17026636782971,36.1833672680212,-68.2095761929253));
#107=DIRECTION('',(0.866025403784439,0.5,-3.2171792772786E-17));
#108=DIRECTION('',(-0.482962913144533,0.836516303737807,0.258819045102527));
#109=FACE_BOUND('',#110,.T.);
#110=EDGE_LOOP('',(#487,#488,#489,#490));
#111=PLANE('',#112);
#112=AXIS2_PLACEMENT_3D('',#113,#114,#115);
#113=CARTESIAN_POINT('',(-26.7505820646538,26.0333672680212,-68.2095761929253));
#114=DIRECTION('',(0.482962913144533,-0.836516303737807,-0.258819045102526));
#115=DIRECTION('',(0.866025403784439,0.5,5.361965462131E-17));
#116=FACE_BOUND('',#117,.T.);
#117=EDGE_LOOP('',(#491,#492,#493,#494));
#118=PLANE('',#119);
#119=AXIS2_PLACEMENT_3D('',#120,#121,#122);
#120=CARTESIAN_POINT('',(-36.5547292014878,43.0146482338986,-62.955549577344));
#121=DIRECTION('',(-0.866025403784439,-0.5,5.48198213902695E-17));
#122=DIRECTION('',(0.482962913144533,-0.836516303737807,-0.258819045102527));
#123=FACE_BOUND('',#124,.T.);
#124=EDGE_LOOP('',(#495,#496,#497,#498));
#125=PLANE('',#126);
#126=AXIS2_PLACEMENT_3D('',#127,#128,#129);
#127=CARTESIAN_POINT('',(-18.9744135046637,53.1646482338986,-62.955549577344));
#128=DIRECTION('',(-0.482962913144533,0.836516303737807,0.258819045102526));
#129=DIRECTION('',(-0.866025403784439,-0.5,-5.361965462131E-17));
#130=FACE_BOUND('',#131,.T.);
#131=EDGE_LOOP('',(#499,#500,#501,#502));
#132=PLANE('',#133);
#133=AXIS2_PLACEMENT_3D('',#134,#135,#136);
#134=CARTESIAN_POINT('',(-26.7505820646538,-26.0333672680211,-68.2095761929253));
#135=DIRECTION('',(-0.866025403784439,0.5,-3.21717927727861E-17));
#136=DIRECTION('',(-0.482962913144534,-0.836516303737806,0.258819045102527));
#137=FACE_BOUND('',#138,.T.);
#138=EDGE_LOOP('',(#503,#504,#505,#506));
#139=PLANE('',#140);
#140=AXIS2_PLACEMENT_3D('',#141,#142,#143);
#141=CARTESIAN_POINT('',(-9.17026636782972,-36.1833672680212,-68.2095761929253));
#142=DIRECTION('',(0.482962913144534,0.836516303737806,-0.258819045102526));
#143=DIRECTION('',(-0.866025403784439,0.5,5.361965462131E-17));
#144=FACE_BOUND('',#145,.T.);
#145=EDGE_LOOP('',(#507,#508,#509,#510));
#146=PLANE('',#147);
#147=AXIS2_PLACEMENT_3D('',#148,#149,#150);
#148=CARTESIAN_POINT('',(-18.9744135046638,-53.1646482338986,-62.955549577344));
#149=DIRECTION('',(0.866025403784439,-0.5,5.48198213902695E-17));
#150=DIRECTION('',(0.482962913144534,0.836516303737806,-0.258819045102527));
#151=FACE_BOUND('',#152,.T.);
#152=EDGE_LOOP('',(#511,#512,#513,#514));
#153=PLANE('',#154);
#154=AXIS2_PLACEMENT_3D('',#155,#156,#157);
#155=CARTESIAN_POINT('',(-36.5547292014879,-43.0146482338986,-62.955549577344));
#156=DIRECTION('',(-0.482962913144534,-0.836516303737806,0.258819045102526));
#157=DIRECTION('',(0.866025403784439,-0.5,-5.361965462131E-17));
#158=FACE_BOUND('',#159,.T.);
#159=EDGE_LOOP('',(#515,#516,#517,#518,#519));
#160=PLANE('',#161);
#161=AXIS2_PLACEMENT_3D('',#162,#163,#164);
#162=CARTESIAN_POINT('',(-43.2996707861327,44.6972297525877,-61.6614543518314));
#163=DIRECTION('',(-0.866025403784439,-0.5,4.73452244868096E-17));
#164=DIRECTION('',(0.482962913144533,-0.836516303737807,-0.258819045102527));
#165=FACE_BOUND('',#166,.T.);
#166=EDGE_LOOP('',(#520,#521,#522,#523));
#167=PLANE('',#168);
#168=AXIS2_PLACEMENT_3D('',#169,#170,#171);
#169=CARTESIAN_POINT('',(-17.0591010514642,59.8472297525877,-61.6614543518314));
#170=DIRECTION('',(-0.482962913144533,0.836516303737807,0.258819045102526));
#171=DIRECTION('',(-0.866025403784439,-0.5,-5.361965462131E-17));
#172=FACE_BOUND('',#173,.T.);
#173=EDGE_LOOP('',(#524,#525,#526,#527,#528));
#174=PLANE('',#175);
#175=AXIS2_PLACEMENT_3D('',#176,#177,#178);
#176=CARTESIAN_POINT('',(-2.42532478318484,34.5007857493321,-69.5036714184379));
#177=DIRECTION('',(0.866025403784439,0.5,-4.73452244868096E-17));
#178=DIRECTION('',(-0.482962913144533,0.836516303737807,0.258819045102527));
#179=FACE_BOUND('',#180,.T.);
#180=EDGE_LOOP('',(#529,#530,#531,#532,#533,#534));
#181=PLANE('',#182);
#182=AXIS2_PLACEMENT_3D('',#183,#184,#185);
#183=CARTESIAN_POINT('',(-28.6658945178533,19.3507857493321,-69.5036714184379));
#184=DIRECTION('',(0.482962913144533,-0.836516303737807,-0.258819045102526));
#185=DIRECTION('',(0.866025403784439,0.5,5.361965462131E-17));
#186=FACE_BOUND('',#187,.T.);
#187=EDGE_LOOP('',(#535,#536,#537,#538,#539));
#188=PLANE('',#189);
#189=AXIS2_PLACEMENT_3D('',#190,#191,#192);
#190=CARTESIAN_POINT('',(-17.0591010514642,-59.8472297525877,-61.6614543518314));
#191=DIRECTION('',(0.866025403784439,-0.5,4.73452244868097E-17));
#192=DIRECTION('',(0.482962913144534,0.836516303737806,-0.258819045102527));
#193=FACE_BOUND('',#194,.T.);
#194=EDGE_LOOP('',(#540,#541,#542,#543));
#195=PLANE('',#196);
#196=AXIS2_PLACEMENT_3D('',#197,#198,#199);
#197=CARTESIAN_POINT('',(-43.2996707861327,-44.6972297525876,-61.6614543518314));
#198=DIRECTION('',(-0.482962913144534,-0.836516303737806,0.258819045102526));
#199=DIRECTION('',(0.866025403784438,-0.5,-5.361965462131E-17));
#200=FACE_BOUND('',#201,.T.);
#201=EDGE_LOOP('',(#544,#545,#546,#547,#548));
#202=PLANE('',#203);
#203=AXIS2_PLACEMENT_3D('',#204,#205,#206);
#204=CARTESIAN_POINT('',(-28.6658945178533,-19.3507857493321,-69.5036714184379));
#205=DIRECTION('',(-0.866025403784439,0.5,-4.73452244868096E-17));
#206=DIRECTION('',(-0.482962913144534,-0.836516303737806,0.258819045102527));
#207=FACE_BOUND('',#208,.T.);
#208=EDGE_LOOP('',(#549,#550,#551,#552,#553,#554));
#209=PLANE('',#210);
#210=AXIS2_PLACEMENT_3D('',#211,#212,#213);
#211=CARTESIAN_POINT('',(-2.42532478318486,-34.5007857493321,-69.5036714184379));
#212=DIRECTION('',(0.482962913144534,0.836516303737806,-0.258819045102526));
#213=DIRECTION('',(-0.866025403784438,0.5,5.361965462131E-17));
#214=FACE_BOUND('',#215,.T.);
#215=EDGE_LOOP('',(#555,#556,#557,#558,#559,#560));
#216=PLANE('',#217);
#217=AXIS2_PLACEMENT_3D('',#218,#219,#220);
#218=CARTESIAN_POINT('',(31.0912193010382,15.15,-69.5036714184379));
#219=DIRECTION('',(-0.965925826289067,0.,-0.258819045102526));
#220=DIRECTION('',(0.,-1.,0.));
#221=FACE_BOUND('',#222,.T.);
#222=EDGE_LOOP('',(#561,#562,#563,#564,#565));
#223=PLANE('',#224);
#224=AXIS2_PLACEMENT_3D('',#225,#226,#227);
#225=CARTESIAN_POINT('',(31.0912193010382,-15.15,-69.5036714184379));
#226=DIRECTION('',(-3.36402690351659E-17,-1.,-1.0096487910812E-16));
#227=DIRECTION('',(0.965925826289067,-5.86256382640347E-17,0.258819045102527));
#228=FACE_BOUND('',#229,.T.);
#229=EDGE_LOOP('',(#566,#567,#568,#569));
#230=PLANE('',#231);
#231=AXIS2_PLACEMENT_3D('',#232,#233,#234);
#232=CARTESIAN_POINT('',(60.3587718375969,-15.15,-61.6614543518314));
#233=DIRECTION('',(0.965925826289067,0.,0.258819045102526));
#234=DIRECTION('',(0.,1.,0.));
#235=FACE_BOUND('',#236,.T.);
#236=EDGE_LOOP('',(#570,#571,#572,#573,#574));
#237=PLANE('',#238);
#238=AXIS2_PLACEMENT_3D('',#239,#240,#241);
#239=CARTESIAN_POINT('',(60.3587718375969,15.15,-61.6614543518314));
#240=DIRECTION('',(3.36402690351659E-17,1.,1.0096487910812E-16));
#241=DIRECTION('',(-0.965925826289067,5.86256382640347E-17,-0.258819045102527));
#242=FACE_BOUND('',#243,.T.);
#243=EDGE_LOOP('',(#575,#576,#577,#578));
#244=PLANE('',#245);
#245=AXIS2_PLACEMENT_3D('',#246,#247,#248);
#246=CARTESIAN_POINT('',(35.9208484324835,-10.15,-68.2095761929253));
#247=DIRECTION('',(2.29877490467457E-17,-1.,-8.57914473940961E-17));
#248=DIRECTION('',(0.965925826289067,0.,0.258819045102527));
#249=FACE_BOUND('',#250,.T.);
#250=EDGE_LOOP('',(#579,#580,#581,#582));
#251=PLANE('',#252);
#252=AXIS2_PLACEMENT_3D('',#253,#254,#255);
#253=CARTESIAN_POINT('',(35.9208484324835,10.15,-68.2095761929253));
#254=DIRECTION('',(-0.965925826289067,0.,-0.258819045102526));
#255=DIRECTION('',(0.,-1.,0.));
#256=FACE_BOUND('',#257,.T.);
#257=EDGE_LOOP('',(#583,#584,#585,#586));
#258=PLANE('',#259);
#259=AXIS2_PLACEMENT_3D('',#260,#261,#262);
#260=CARTESIAN_POINT('',(55.5291427061516,10.15,-62.955549577344));
#261=DIRECTION('',(6.15358444449746E-17,1.,1.0843947601158E-16));
#262=DIRECTION('',(-0.965925826289067,8.75052630246429E-17,-0.258819045102527));
#263=FACE_BOUND('',#264,.T.);
#264=EDGE_LOOP('',(#587,#588,#589,#590));
#265=PLANE('',#266);
#266=AXIS2_PLACEMENT_3D('',#267,#268,#269);
#267=CARTESIAN_POINT('',(55.5291427061516,-10.15,-62.955549577344));
#268=DIRECTION('',(0.965925826289067,0.,0.258819045102526));
#269=DIRECTION('',(0.,1.,0.));
#270=FACE_BOUND('',#271,.T.);
#271=EDGE_LOOP('',(#591,#592,#593,#594));
#272=FACE_BOUND('',#273,.T.);
#273=EDGE_LOOP('',(#595,#596,#597,#598));
#274=PLANE('',#275);
#275=AXIS2_PLACEMENT_3D('',#276,#277,#278);
#276=CARTESIAN_POINT('',(0.,0.,-55.));
#277=DIRECTION('',(0.,0.,-1.));
#278=DIRECTION('',(-1.,1.22464679914735E-16,0.));
#279=FACE_BOUND('',#280,.T.);
#280=EDGE_LOOP('',(#599,#600,#601,#602));
#281=FACE_BOUND('',#282,.T.);
#282=EDGE_LOOP('',(#603,#604,#605,#606));
#283=PLANE('',#284);
#284=AXIS2_PLACEMENT_3D('',#285,#286,#287);
#285=CARTESIAN_POINT('',(0.,0.,-55.));
#286=DIRECTION('',(0.,0.,-1.));
#287=DIRECTION('',(-1.,1.22464679914735E-16,0.));
#288=FACE_BOUND('',#289,.T.);
#289=EDGE_LOOP('',(#607,#608,#609,#610));
#290=FACE_BOUND('',#291,.T.);
#291=EDGE_LOOP('',(#611,#612,#613,#614));
#292=PLANE('',#293);
#293=AXIS2_PLACEMENT_3D('',#294,#295,#296);
#294=CARTESIAN_POINT('',(0.,0.,-55.));
#295=DIRECTION('',(0.,0.,-1.));
#296=DIRECTION('',(-1.,1.22464679914735E-16,0.));
#297=FACE_BOUND('',#298,.T.);
#298=EDGE_LOOP('',(#615,#616,#617,#618));
#299=PLANE('',#300);
#300=AXIS2_PLACEMENT_3D('',#301,#302,#303);
#301=CARTESIAN_POINT('',(-1.96474596215569,3.40303983041943,-14.6650635094613));
#302=DIRECTION('',(0.129409522551263,-0.224143868042018,0.965925826289067));
#303=DIRECTION('',(-0.866025403784439,-0.5,-3.88595046081803E-18));
#304=FACE_BOUND('',#305,.T.);
#305=EDGE_LOOP('',(#619,#620,#621,#622));
#306=PLANE('',#307);
#307=AXIS2_PLACEMENT_3D('',#308,#309,#310);
#308=CARTESIAN_POINT('',(-1.96474596215567,-3.40303983041944,-14.6650635094613));
#309=DIRECTION('',(0.129409522551263,0.224143868042018,0.965925826289067));
#310=DIRECTION('',(0.866025403784439,-0.500000000000001,-3.88595046081802E-18));
#311=FACE_BOUND('',#312,.T.);
#312=EDGE_LOOP('',(#623,#624,#625,#626,#627));
#313=CYLINDRICAL_SURFACE('',#314,3.);
#314=AXIS2_PLACEMENT_3D('',#315,#316,#317);
#315=CARTESIAN_POINT('',(-44.3065515297127,40.4411983576311,-8.));
#316=DIRECTION('',(0.5,-0.866025403784439,-6.41644626309761E-17));
#317=DIRECTION('',(0.866025403784439,0.5,1.1842378929335E-15));
#318=FACE_BOUND('',#319,.T.);
#319=EDGE_LOOP('',(#628,#629,#630,#631,#632,#633));
#320=CYLINDRICAL_SURFACE('',#321,3.);
#321=AXIS2_PLACEMENT_3D('',#322,#323,#324);
#322=CARTESIAN_POINT('',(11.9599422592271,63.5847723514286,-8.));
#323=DIRECTION('',(-0.866025403784439,-0.5,0.));
#324=DIRECTION('',(0.482962913144533,-0.836516303737807,-0.258819045102526));
#325=FACE_BOUND('',#326,.T.);
#326=EDGE_LOOP('',(#634,#635,#636,#637,#638));
#327=CYLINDRICAL_SURFACE('',#328,3.);
#328=AXIS2_PLACEMENT_3D('',#329,#330,#331);
#329=CARTESIAN_POINT('',(14.8146047608751,10.6403518601125,-7.99999999999999));
#330=DIRECTION('',(-0.5,0.866025403784439,-1.28328925261952E-16));
#331=DIRECTION('',(-0.866025403784439,-0.5,2.368475785867E-15));
#332=FACE_BOUND('',#333,.T.);
#333=EDGE_LOOP('',(#639,#640,#641,#642));
#334=CYLINDRICAL_SURFACE('',#335,3.);
#335=AXIS2_PLACEMENT_3D('',#336,#337,#338);
#336=CARTESIAN_POINT('',(-42.2557366053581,-11.1109172882718,-8.));
#337=DIRECTION('',(0.866025403784439,0.5,0.));
#338=DIRECTION('',(-0.482962913144533,0.836516303737806,0.258819045102526));
#339=FACE_BOUND('',#340,.T.);
#340=EDGE_LOOP('',(#643,#644,#645,#646,#647));
#341=CYLINDRICAL_SURFACE('',#342,3.);
#342=AXIS2_PLACEMENT_3D('',#343,#344,#345);
#343=CARTESIAN_POINT('',(-12.8698293723377,-58.5911983576311,-8.));
#344=DIRECTION('',(0.5,0.866025403784439,-3.2082231315488E-16));
#345=DIRECTION('',(-0.866025403784439,0.5,1.1842378929335E-15));
#346=FACE_BOUND('',#347,.T.);
#347=EDGE_LOOP('',(#648,#649,#650,#651,#652,#653));
#348=CYLINDRICAL_SURFACE('',#349,3.);
#349=AXIS2_PLACEMENT_3D('',#350,#351,#352);
#350=CARTESIAN_POINT('',(-61.0459992798011,-21.4347723514286,-8.));
#351=DIRECTION('',(0.866025403784438,-0.5,0.));
#352=DIRECTION('',(0.482962913144534,0.836516303737806,-0.258819045102527));
#353=FACE_BOUND('',#354,.T.);
#354=EDGE_LOOP('',(#654,#655,#656,#657,#658));
#355=CYLINDRICAL_SURFACE('',#356,3.);
#356=AXIS2_PLACEMENT_3D('',#357,#358,#359);
#357=CARTESIAN_POINT('',(-16.6221173965,7.50964813988753,-8.));
#358=DIRECTION('',(-0.5,-0.866025403784438,1.28328925261952E-16));
#359=DIRECTION('',(0.866025403784438,-0.5,-1.13978982040976E-31));
#360=FACE_BOUND('',#361,.T.);
#361=EDGE_LOOP('',(#659,#660,#661,#662));
#362=CYLINDRICAL_SURFACE('',#363,3.);
#363=AXIS2_PLACEMENT_3D('',#364,#365,#366);
#364=CARTESIAN_POINT('',(30.7502049336701,-31.0390827117282,-8.));
#365=DIRECTION('',(-0.866025403784438,0.5,0.));
#366=DIRECTION('',(-0.482962913144534,-0.836516303737806,0.258819045102527));
#367=FACE_BOUND('',#368,.T.);
#368=EDGE_LOOP('',(#663,#664,#665,#666,#667));
#369=CYLINDRICAL_SURFACE('',#370,3.);
#370=AXIS2_PLACEMENT_3D('',#371,#372,#373);
#371=CARTESIAN_POINT('',(1.80751263562484,-18.15,-8.));
#372=DIRECTION('',(1.,0.,1.28328925261952E-16));
#373=DIRECTION('',(0.,1.,-4.74912425170734E-32));
#374=FACE_BOUND('',#375,.T.);
#375=EDGE_LOOP('',(#668,#669,#670,#671));
#376=CYLINDRICAL_SURFACE('',#377,3.);
#377=AXIS2_PLACEMENT_3D('',#378,#379,#380);
#378=CARTESIAN_POINT('',(11.505531671688,42.15,-8.));
#379=DIRECTION('',(0.,-1.,0.));
#380=DIRECTION('',(0.965925826289067,0.,0.258819045102527));
#381=FACE_BOUND('',#382,.T.);
#382=EDGE_LOOP('',(#672,#673,#674,#675,#676));
#383=CYLINDRICAL_SURFACE('',#384,3.);
#384=AXIS2_PLACEMENT_3D('',#385,#386,#387);
#385=CARTESIAN_POINT('',(57.1763809020504,18.15,-7.99999999999999));
#386=DIRECTION('',(-1.,0.,-2.56657850523904E-16));
#387=DIRECTION('',(-6.07887904218539E-31,-1.,2.368475785867E-15));
#388=FACE_BOUND('',#389,.T.);
#389=EDGE_LOOP('',(#677,#678,#679,#680,#681,#682));
#390=CYLINDRICAL_SURFACE('',#391,3.);
#391=AXIS2_PLACEMENT_3D('',#392,#393,#394);
#392=CARTESIAN_POINT('',(49.086057020574,-42.15,-8.));
#393=DIRECTION('',(0.,1.,-3.1607772943065E-17));
#394=DIRECTION('',(-0.965925826289067,-8.18069361094152E-18,-0.258819045102526));
#395=FACE_BOUND('',#396,.T.);
#396=EDGE_LOOP('',(#683,#684,#685,#686));
#397=PLANE('',#398);
#398=AXIS2_PLACEMENT_3D('',#399,#400,#401);
#399=CARTESIAN_POINT('',(3.92949192431136,8.40794665086592E-15,-14.6650635094613));
#400=DIRECTION('',(-0.258819045102526,-2.90124422604625E-17,0.965925826289067));
#401=DIRECTION('',(7.35132417231495E-17,1.,4.9733704160492E-17));
#402=FACE_BOUND('',#403,.T.);
#403=EDGE_LOOP('',(#687));
#404=FACE_BOUND('',#405,.T.);
#405=EDGE_LOOP('',(#688));
#406=FACE_BOUND('',#407,.T.);
#407=EDGE_LOOP('',(#689));
#408=FACE_BOUND('',#409,.T.);
#409=EDGE_LOOP('',(#690));
#410=FACE_BOUND('',#411,.T.);
#411=EDGE_LOOP('',(#691,#692,#693,#694));
#412=FACE_BOUND('',#413,.T.);
#413=EDGE_LOOP('',(#695,#696,#697,#698));
#414=FACE_BOUND('',#415,.T.);
#415=EDGE_LOOP('',(#699,#700,#701,#702));
#416=FACE_BOUND('',#417,.T.);
#417=EDGE_LOOP('',(#703));
#418=PLANE('',#419);
#419=AXIS2_PLACEMENT_3D('',#420,#421,#422);
#420=CARTESIAN_POINT('',(0.,0.,-5.));
#421=DIRECTION('',(0.,0.,1.));
#422=DIRECTION('',(-1.,1.22464679914735E-16,0.));
#423=FACE_OUTER_BOUND('',#424,.T.);
#424=EDGE_LOOP('',(#704));
#425=FACE_OUTER_BOUND('',#426,.T.);
#426=EDGE_LOOP('',(#705));
#427=CYLINDRICAL_SURFACE('',#428,58.5);
#428=AXIS2_PLACEMENT_3D('',#429,#430,#431);
#429=CARTESIAN_POINT('',(0.,0.,-5.));
#430=DIRECTION('',(0.,0.,1.));
#431=DIRECTION('',(-1.,1.22464679914735E-16,0.));
#432=FACE_OUTER_BOUND('',#433,.T.);
#433=EDGE_LOOP('',(#706));
#434=FACE_OUTER_BOUND('',#435,.T.);
#435=EDGE_LOOP('',(#707));
#436=CYLINDRICAL_SURFACE('',#437,1.6);
#437=AXIS2_PLACEMENT_3D('',#438,#439,#440);
#438=CARTESIAN_POINT('',(-50.,0.,-10.));
#439=DIRECTION('',(0.,0.,1.));
#440=DIRECTION('',(1.,0.,0.));
#441=FACE_OUTER_BOUND('',#442,.T.);
#442=EDGE_LOOP('',(#708));
#443=FACE_OUTER_BOUND('',#444,.T.);
#444=EDGE_LOOP('',(#709));
#445=CYLINDRICAL_SURFACE('',#446,1.6);
#446=AXIS2_PLACEMENT_3D('',#447,#448,#449);
#447=CARTESIAN_POINT('',(25.,-43.3012701892219,-10.));
#448=DIRECTION('',(0.,0.,1.));
#449=DIRECTION('',(1.,0.,0.));
#450=FACE_OUTER_BOUND('',#451,.T.);
#451=EDGE_LOOP('',(#710));
#452=FACE_OUTER_BOUND('',#453,.T.);
#453=EDGE_LOOP('',(#711));
#454=CYLINDRICAL_SURFACE('',#455,1.6);
#455=AXIS2_PLACEMENT_3D('',#456,#457,#458);
#456=CARTESIAN_POINT('',(25.0000000000001,43.3012701892219,-10.));
#457=DIRECTION('',(0.,0.,1.));
#458=DIRECTION('',(1.,0.,0.));
#459=FACE_OUTER_BOUND('',#460,.T.);
#460=EDGE_LOOP('',(#712));
#461=FACE_OUTER_BOUND('',#462,.T.);
#462=EDGE_LOOP('',(#713));
#463=CYLINDRICAL_SURFACE('',#464,11.15);
#464=AXIS2_PLACEMENT_3D('',#465,#466,#467);
#465=CARTESIAN_POINT('',(0.,0.,0.));
#466=DIRECTION('',(0.,0.,-1.));
#467=DIRECTION('',(1.,1.22464679914735E-16,0.));
#468=FACE_BOUND('',#469,.T.);
#469=EDGE_LOOP('',(#714));
#470=FACE_BOUND('',#471,.T.);
#471=EDGE_LOOP('',(#715));
#472=FACE_BOUND('',#473,.T.);
#473=EDGE_LOOP('',(#716));
#474=FACE_BOUND('',#475,.T.);
#475=EDGE_LOOP('',(#717));
#476=FACE_BOUND('',#477,.T.);
#477=EDGE_LOOP('',(#718));
#478=PLANE('',#479);
#479=AXIS2_PLACEMENT_3D('',#480,#481,#482);
#480=CARTESIAN_POINT('',(0.,0.,0.));
#481=DIRECTION('',(0.,0.,1.));
#482=DIRECTION('',(-1.,1.22464679914735E-16,0.));
#483=ORIENTED_EDGE('',*,*,#719,.T.);
#484=ORIENTED_EDGE('',*,*,#720,.T.);
#485=ORIENTED_EDGE('',*,*,#721,.F.);
#486=ORIENTED_EDGE('',*,*,#722,.F.);
#487=ORIENTED_EDGE('',*,*,#723,.T.);
#488=ORIENTED_EDGE('',*,*,#724,.T.);
#489=ORIENTED_EDGE('',*,*,#725,.F.);
#490=ORIENTED_EDGE('',*,*,#720,.F.);
#491=ORIENTED_EDGE('',*,*,#726,.T.);
#492=ORIENTED_EDGE('',*,*,#727,.T.);
#493=ORIENTED_EDGE('',*,*,#728,.F.);
#494=ORIENTED_EDGE('',*,*,#724,.F.);
#495=ORIENTED_EDGE('',*,*,#729,.T.);
#496=ORIENTED_EDGE('',*,*,#722,.T.);
#497=ORIENTED_EDGE('',*,*,#730,.F.);
#498=ORIENTED_EDGE('',*,*,#727,.F.);
#499=ORIENTED_EDGE('',*,*,#731,.T.);
#500=ORIENTED_EDGE('',*,*,#732,.T.);
#501=ORIENTED_EDGE('',*,*,#733,.F.);
#502=ORIENTED_EDGE('',*,*,#734,.F.);
#503=ORIENTED_EDGE('',*,*,#735,.T.);
#504=ORIENTED_EDGE('',*,*,#736,.T.);
#505=ORIENTED_EDGE('',*,*,#737,.F.);
#506=ORIENTED_EDGE('',*,*,#732,.F.);
#507=ORIENTED_EDGE('',*,*,#738,.T.);
#508=ORIENTED_EDGE('',*,*,#739,.T.);
#509=ORIENTED_EDGE('',*,*,#740,.F.);
#510=ORIENTED_EDGE('',*,*,#736,.F.);
#511=ORIENTED_EDGE('',*,*,#741,.T.);
#512=ORIENTED_EDGE('',*,*,#734,.T.);
#513=ORIENTED_EDGE('',*,*,#742,.F.);
#514=ORIENTED_EDGE('',*,*,#739,.F.);
#515=ORIENTED_EDGE('',*,*,#743,.T.);
#516=ORIENTED_EDGE('',*,*,#744,.T.);
#517=ORIENTED_EDGE('',*,*,#745,.T.);
#518=ORIENTED_EDGE('',*,*,#746,.F.);
#519=ORIENTED_EDGE('',*,*,#747,.F.);
#520=ORIENTED_EDGE('',*,*,#748,.T.);
#521=ORIENTED_EDGE('',*,*,#747,.T.);
#522=ORIENTED_EDGE('',*,*,#749,.T.);
#523=ORIENTED_EDGE('',*,*,#750,.F.);
#524=ORIENTED_EDGE('',*,*,#751,.T.);
#525=ORIENTED_EDGE('',*,*,#750,.T.);
#526=ORIENTED_EDGE('',*,*,#752,.F.);
#527=ORIENTED_EDGE('',*,*,#753,.T.);
#528=ORIENTED_EDGE('',*,*,#754,.F.);
#529=ORIENTED_EDGE('',*,*,#755,.T.);
#530=ORIENTED_EDGE('',*,*,#754,.T.);
#531=ORIENTED_EDGE('',*,*,#756,.F.);
#532=ORIENTED_EDGE('',*,*,#757,.T.);
#533=ORIENTED_EDGE('',*,*,#758,.F.);
#534=ORIENTED_EDGE('',*,*,#744,.F.);
#535=ORIENTED_EDGE('',*,*,#759,.T.);
#536=ORIENTED_EDGE('',*,*,#760,.T.);
#537=ORIENTED_EDGE('',*,*,#761,.T.);
#538=ORIENTED_EDGE('',*,*,#762,.F.);
#539=ORIENTED_EDGE('',*,*,#763,.F.);
#540=ORIENTED_EDGE('',*,*,#764,.T.);
#541=ORIENTED_EDGE('',*,*,#763,.T.);
#542=ORIENTED_EDGE('',*,*,#765,.T.);
#543=ORIENTED_EDGE('',*,*,#766,.F.);
#544=ORIENTED_EDGE('',*,*,#767,.T.);
#545=ORIENTED_EDGE('',*,*,#766,.T.);
#546=ORIENTED_EDGE('',*,*,#768,.F.);
#547=ORIENTED_EDGE('',*,*,#769,.T.);
#548=ORIENTED_EDGE('',*,*,#770,.F.);
#549=ORIENTED_EDGE('',*,*,#771,.T.);
#550=ORIENTED_EDGE('',*,*,#770,.T.);
#551=ORIENTED_EDGE('',*,*,#772,.F.);
#552=ORIENTED_EDGE('',*,*,#773,.T.);
#553=ORIENTED_EDGE('',*,*,#774,.F.);
#554=ORIENTED_EDGE('',*,*,#760,.F.);
#555=ORIENTED_EDGE('',*,*,#775,.T.);
#556=ORIENTED_EDGE('',*,*,#776,.T.);
#557=ORIENTED_EDGE('',*,*,#777,.F.);
#558=ORIENTED_EDGE('',*,*,#778,.T.);
#559=ORIENTED_EDGE('',*,*,#779,.F.);
#560=ORIENTED_EDGE('',*,*,#780,.F.);
#561=ORIENTED_EDGE('',*,*,#781,.T.);
#562=ORIENTED_EDGE('',*,*,#782,.T.);
#563=ORIENTED_EDGE('',*,*,#783,.F.);
#564=ORIENTED_EDGE('',*,*,#784,.T.);
#565=ORIENTED_EDGE('',*,*,#776,.F.);
#566=ORIENTED_EDGE('',*,*,#785,.T.);
#567=ORIENTED_EDGE('',*,*,#786,.T.);
#568=ORIENTED_EDGE('',*,*,#787,.T.);
#569=ORIENTED_EDGE('',*,*,#782,.F.);
#570=ORIENTED_EDGE('',*,*,#788,.T.);
#571=ORIENTED_EDGE('',*,*,#780,.T.);
#572=ORIENTED_EDGE('',*,*,#789,.T.);
#573=ORIENTED_EDGE('',*,*,#790,.F.);
#574=ORIENTED_EDGE('',*,*,#786,.F.);
#575=ORIENTED_EDGE('',*,*,#791,.T.);
#576=ORIENTED_EDGE('',*,*,#792,.T.);
#577=ORIENTED_EDGE('',*,*,#793,.F.);
#578=ORIENTED_EDGE('',*,*,#794,.F.);
#579=ORIENTED_EDGE('',*,*,#795,.T.);
#580=ORIENTED_EDGE('',*,*,#796,.T.);
#581=ORIENTED_EDGE('',*,*,#797,.F.);
#582=ORIENTED_EDGE('',*,*,#792,.F.);
#583=ORIENTED_EDGE('',*,*,#798,.T.);
#584=ORIENTED_EDGE('',*,*,#799,.T.);
#585=ORIENTED_EDGE('',*,*,#800,.F.);
#586=ORIENTED_EDGE('',*,*,#796,.F.);
#587=ORIENTED_EDGE('',*,*,#801,.T.);
#588=ORIENTED_EDGE('',*,*,#794,.T.);
#589=ORIENTED_EDGE('',*,*,#802,.F.);
#590=ORIENTED_EDGE('',*,*,#799,.F.);
#591=ORIENTED_EDGE('',*,*,#788,.F.);
#592=ORIENTED_EDGE('',*,*,#785,.F.);
#593=ORIENTED_EDGE('',*,*,#781,.F.);
#594=ORIENTED_EDGE('',*,*,#775,.F.);
#595=ORIENTED_EDGE('',*,*,#801,.F.);
#596=ORIENTED_EDGE('',*,*,#798,.F.);
#597=ORIENTED_EDGE('',*,*,#795,.F.);
#598=ORIENTED_EDGE('',*,*,#791,.F.);
#599=ORIENTED_EDGE('',*,*,#771,.F.);
#600=ORIENTED_EDGE('',*,*,#759,.F.);
#601=ORIENTED_EDGE('',*,*,#764,.F.);
#602=ORIENTED_EDGE('',*,*,#767,.F.);
#603=ORIENTED_EDGE('',*,*,#741,.F.);
#604=ORIENTED_EDGE('',*,*,#738,.F.);
#605=ORIENTED_EDGE('',*,*,#735,.F.);
#606=ORIENTED_EDGE('',*,*,#731,.F.);
#607=ORIENTED_EDGE('',*,*,#755,.F.);
#608=ORIENTED_EDGE('',*,*,#743,.F.);
#609=ORIENTED_EDGE('',*,*,#748,.F.);
#610=ORIENTED_EDGE('',*,*,#751,.F.);
#611=ORIENTED_EDGE('',*,*,#729,.F.);
#612=ORIENTED_EDGE('',*,*,#726,.F.);
#613=ORIENTED_EDGE('',*,*,#723,.F.);
#614=ORIENTED_EDGE('',*,*,#719,.F.);
#615=ORIENTED_EDGE('',*,*,#730,.T.);
#616=ORIENTED_EDGE('',*,*,#721,.T.);
#617=ORIENTED_EDGE('',*,*,#725,.T.);
#618=ORIENTED_EDGE('',*,*,#728,.T.);
#619=ORIENTED_EDGE('',*,*,#742,.T.);
#620=ORIENTED_EDGE('',*,*,#733,.T.);
#621=ORIENTED_EDGE('',*,*,#737,.T.);
#622=ORIENTED_EDGE('',*,*,#740,.T.);
#623=ORIENTED_EDGE('',*,*,#803,.F.);
#624=ORIENTED_EDGE('',*,*,#804,.T.);
#625=ORIENTED_EDGE('',*,*,#805,.F.);
#626=ORIENTED_EDGE('',*,*,#745,.F.);
#627=ORIENTED_EDGE('',*,*,#758,.T.);
#628=ORIENTED_EDGE('',*,*,#806,.T.);
#629=ORIENTED_EDGE('',*,*,#807,.T.);
#630=ORIENTED_EDGE('',*,*,#752,.T.);
#631=ORIENTED_EDGE('',*,*,#749,.F.);
#632=ORIENTED_EDGE('',*,*,#746,.T.);
#633=ORIENTED_EDGE('',*,*,#805,.T.);
#634=ORIENTED_EDGE('',*,*,#808,.F.);
#635=ORIENTED_EDGE('',*,*,#756,.T.);
#636=ORIENTED_EDGE('',*,*,#753,.F.);
#637=ORIENTED_EDGE('',*,*,#807,.F.);
#638=ORIENTED_EDGE('',*,*,#809,.T.);
#639=ORIENTED_EDGE('',*,*,#810,.T.);
#640=ORIENTED_EDGE('',*,*,#803,.T.);
#641=ORIENTED_EDGE('',*,*,#757,.F.);
#642=ORIENTED_EDGE('',*,*,#808,.T.);
#643=ORIENTED_EDGE('',*,*,#811,.F.);
#644=ORIENTED_EDGE('',*,*,#812,.T.);
#645=ORIENTED_EDGE('',*,*,#813,.F.);
#646=ORIENTED_EDGE('',*,*,#761,.F.);
#647=ORIENTED_EDGE('',*,*,#774,.T.);
#648=ORIENTED_EDGE('',*,*,#814,.T.);
#649=ORIENTED_EDGE('',*,*,#815,.T.);
#650=ORIENTED_EDGE('',*,*,#768,.T.);
#651=ORIENTED_EDGE('',*,*,#765,.F.);
#652=ORIENTED_EDGE('',*,*,#762,.T.);
#653=ORIENTED_EDGE('',*,*,#813,.T.);
#654=ORIENTED_EDGE('',*,*,#816,.F.);
#655=ORIENTED_EDGE('',*,*,#772,.T.);
#656=ORIENTED_EDGE('',*,*,#769,.F.);
#657=ORIENTED_EDGE('',*,*,#815,.F.);
#658=ORIENTED_EDGE('',*,*,#817,.T.);
#659=ORIENTED_EDGE('',*,*,#818,.T.);
#660=ORIENTED_EDGE('',*,*,#811,.T.);
#661=ORIENTED_EDGE('',*,*,#773,.F.);
#662=ORIENTED_EDGE('',*,*,#816,.T.);
#663=ORIENTED_EDGE('',*,*,#819,.F.);
#664=ORIENTED_EDGE('',*,*,#820,.T.);
#665=ORIENTED_EDGE('',*,*,#821,.F.);
#666=ORIENTED_EDGE('',*,*,#777,.T.);
#667=ORIENTED_EDGE('',*,*,#784,.F.);
#668=ORIENTED_EDGE('',*,*,#822,.T.);
#669=ORIENTED_EDGE('',*,*,#823,.T.);
#670=ORIENTED_EDGE('',*,*,#778,.F.);
#671=ORIENTED_EDGE('',*,*,#821,.T.);
#672=ORIENTED_EDGE('',*,*,#824,.F.);
#673=ORIENTED_EDGE('',*,*,#789,.F.);
#674=ORIENTED_EDGE('',*,*,#779,.T.);
#675=ORIENTED_EDGE('',*,*,#823,.F.);
#676=ORIENTED_EDGE('',*,*,#825,.T.);
#677=ORIENTED_EDGE('',*,*,#826,.T.);
#678=ORIENTED_EDGE('',*,*,#819,.T.);
#679=ORIENTED_EDGE('',*,*,#783,.T.);
#680=ORIENTED_EDGE('',*,*,#787,.F.);
#681=ORIENTED_EDGE('',*,*,#790,.T.);
#682=ORIENTED_EDGE('',*,*,#824,.T.);
#683=ORIENTED_EDGE('',*,*,#802,.T.);
#684=ORIENTED_EDGE('',*,*,#793,.T.);
#685=ORIENTED_EDGE('',*,*,#797,.T.);
#686=ORIENTED_EDGE('',*,*,#800,.T.);
#687=ORIENTED_EDGE('',*,*,#827,.F.);
#688=ORIENTED_EDGE('',*,*,#828,.T.);
#689=ORIENTED_EDGE('',*,*,#829,.T.);
#690=ORIENTED_EDGE('',*,*,#830,.T.);
#691=ORIENTED_EDGE('',*,*,#826,.F.);
#692=ORIENTED_EDGE('',*,*,#825,.F.);
#693=ORIENTED_EDGE('',*,*,#822,.F.);
#694=ORIENTED_EDGE('',*,*,#820,.F.);
#695=ORIENTED_EDGE('',*,*,#818,.F.);
#696=ORIENTED_EDGE('',*,*,#817,.F.);
#697=ORIENTED_EDGE('',*,*,#814,.F.);
#698=ORIENTED_EDGE('',*,*,#812,.F.);
#699=ORIENTED_EDGE('',*,*,#810,.F.);
#700=ORIENTED_EDGE('',*,*,#809,.F.);
#701=ORIENTED_EDGE('',*,*,#806,.F.);
#702=ORIENTED_EDGE('',*,*,#804,.F.);
#703=ORIENTED_EDGE('',*,*,#831,.T.);
#704=ORIENTED_EDGE('',*,*,#832,.F.);
#705=ORIENTED_EDGE('',*,*,#827,.T.);
#706=ORIENTED_EDGE('',*,*,#833,.F.);
#707=ORIENTED_EDGE('',*,*,#828,.F.);
#708=ORIENTED_EDGE('',*,*,#834,.F.);
#709=ORIENTED_EDGE('',*,*,#829,.F.);
#710=ORIENTED_EDGE('',*,*,#835,.F.);
#711=ORIENTED_EDGE('',*,*,#830,.F.);
#712=ORIENTED_EDGE('',*,*,#836,.F.);
#713=ORIENTED_EDGE('',*,*,#831,.F.);
#714=ORIENTED_EDGE('',*,*,#832,.T.);
#715=ORIENTED_EDGE('',*,*,#833,.T.);
#716=ORIENTED_EDGE('',*,*,#834,.T.);
#717=ORIENTED_EDGE('',*,*,#835,.T.);
#718=ORIENTED_EDGE('',*,*,#836,.T.);
#719=EDGE_CURVE('',#837,#838,#839,.F.);
#720=EDGE_CURVE('',#838,#840,#841,.T.);
#721=EDGE_CURVE('',#842,#840,#843,.T.);
#722=EDGE_CURVE('',#837,#842,#844,.T.);
#723=EDGE_CURVE('',#838,#845,#846,.F.);
#724=EDGE_CURVE('',#845,#847,#848,.T.);
#725=EDGE_CURVE('',#840,#847,#849,.T.);
#726=EDGE_CURVE('',#845,#850,#851,.F.);
#727=EDGE_CURVE('',#850,#852,#853,.T.);
#728=EDGE_CURVE('',#847,#852,#854,.T.);
#729=EDGE_CURVE('',#850,#837,#855,.F.);
#730=EDGE_CURVE('',#852,#842,#856,.F.);
#731=EDGE_CURVE('',#857,#858,#859,.F.);
#732=EDGE_CURVE('',#858,#860,#861,.T.);
#733=EDGE_CURVE('',#862,#860,#863,.T.);
#734=EDGE_CURVE('',#857,#862,#864,.T.);
#735=EDGE_CURVE('',#858,#865,#866,.F.);
#736=EDGE_CURVE('',#865,#867,#868,.T.);
#737=EDGE_CURVE('',#860,#867,#869,.T.);
#738=EDGE_CURVE('',#865,#870,#871,.F.);
#739=EDGE_CURVE('',#870,#872,#873,.T.);
#740=EDGE_CURVE('',#867,#872,#874,.T.);
#741=EDGE_CURVE('',#870,#857,#875,.F.);
#742=EDGE_CURVE('',#872,#862,#876,.F.);
#743=EDGE_CURVE('',#877,#878,#879,.T.);
#744=EDGE_CURVE('',#878,#880,#881,.T.);
#745=EDGE_CURVE('',#880,#882,#883,.F.);
#746=EDGE_CURVE('',#884,#882,#885,.F.);
#747=EDGE_CURVE('',#877,#884,#886,.T.);
#748=EDGE_CURVE('',#887,#877,#888,.T.);
#749=EDGE_CURVE('',#884,#889,#890,.F.);
#750=EDGE_CURVE('',#887,#889,#891,.T.);
#751=EDGE_CURVE('',#892,#887,#893,.T.);
#752=EDGE_CURVE('',#894,#889,#895,.F.);
#753=EDGE_CURVE('',#894,#896,#897,.F.);
#754=EDGE_CURVE('',#892,#896,#898,.T.);
#755=EDGE_CURVE('',#878,#892,#899,.T.);
#756=EDGE_CURVE('',#900,#896,#901,.F.);
#757=EDGE_CURVE('',#900,#902,#903,.F.);
#758=EDGE_CURVE('',#880,#902,#904,.T.);
#759=EDGE_CURVE('',#905,#906,#907,.T.);
#760=EDGE_CURVE('',#906,#908,#909,.T.);
#761=EDGE_CURVE('',#908,#910,#911,.F.);
#762=EDGE_CURVE('',#912,#910,#913,.F.);
#763=EDGE_CURVE('',#905,#912,#914,.T.);
#764=EDGE_CURVE('',#915,#905,#916,.T.);
#765=EDGE_CURVE('',#912,#917,#918,.F.);
#766=EDGE_CURVE('',#915,#917,#919,.T.);
#767=EDGE_CURVE('',#920,#915,#921,.T.);
#768=EDGE_CURVE('',#922,#917,#923,.F.);
#769=EDGE_CURVE('',#922,#924,#925,.F.);
#770=EDGE_CURVE('',#920,#924,#926,.T.);
#771=EDGE_CURVE('',#906,#920,#927,.T.);
#772=EDGE_CURVE('',#928,#924,#929,.F.);
#773=EDGE_CURVE('',#928,#930,#931,.F.);
#774=EDGE_CURVE('',#908,#930,#932,.T.);
#775=EDGE_CURVE('',#933,#934,#935,.T.);
#776=EDGE_CURVE('',#934,#936,#937,.T.);
#777=EDGE_CURVE('',#938,#936,#939,.F.);
#778=EDGE_CURVE('',#938,#940,#941,.F.);
#779=EDGE_CURVE('',#942,#940,#943,.T.);
#780=EDGE_CURVE('',#933,#942,#944,.T.);
#781=EDGE_CURVE('',#934,#945,#946,.T.);
#782=EDGE_CURVE('',#945,#947,#948,.T.);
#783=EDGE_CURVE('',#949,#947,#950,.F.);
#784=EDGE_CURVE('',#949,#936,#951,.F.);
#785=EDGE_CURVE('',#945,#952,#953,.T.);
#786=EDGE_CURVE('',#952,#954,#955,.T.);
#787=EDGE_CURVE('',#954,#947,#956,.F.);
#788=EDGE_CURVE('',#952,#933,#957,.T.);
#789=EDGE_CURVE('',#942,#958,#959,.F.);
#790=EDGE_CURVE('',#954,#958,#960,.F.);
#791=EDGE_CURVE('',#961,#962,#963,.F.);
#792=EDGE_CURVE('',#962,#964,#965,.T.);
#793=EDGE_CURVE('',#966,#964,#967,.T.);
#794=EDGE_CURVE('',#961,#966,#968,.T.);
#795=EDGE_CURVE('',#962,#969,#970,.F.);
#796=EDGE_CURVE('',#969,#971,#972,.T.);
#797=EDGE_CURVE('',#964,#971,#973,.T.);
#798=EDGE_CURVE('',#969,#974,#975,.F.);
#799=EDGE_CURVE('',#974,#976,#977,.T.);
#800=EDGE_CURVE('',#971,#976,#978,.T.);
#801=EDGE_CURVE('',#974,#961,#979,.F.);
#802=EDGE_CURVE('',#976,#966,#980,.T.);
#803=EDGE_CURVE('',#981,#902,#982,.F.);
#804=EDGE_CURVE('',#981,#983,#984,.F.);
#805=EDGE_CURVE('',#882,#983,#985,.T.);
#806=EDGE_CURVE('',#983,#986,#987,.F.);
#807=EDGE_CURVE('',#986,#894,#988,.F.);
#808=EDGE_CURVE('',#900,#989,#990,.T.);
#809=EDGE_CURVE('',#986,#989,#991,.F.);
#810=EDGE_CURVE('',#989,#981,#992,.F.);
#811=EDGE_CURVE('',#993,#930,#994,.F.);
#812=EDGE_CURVE('',#993,#995,#996,.F.);
#813=EDGE_CURVE('',#910,#995,#997,.T.);
#814=EDGE_CURVE('',#995,#998,#999,.F.);
#815=EDGE_CURVE('',#998,#922,#1000,.F.);
#816=EDGE_CURVE('',#928,#1001,#1002,.T.);
#817=EDGE_CURVE('',#998,#1001,#1003,.F.);
#818=EDGE_CURVE('',#1001,#993,#1004,.F.);
#819=EDGE_CURVE('',#1005,#949,#1006,.F.);
#820=EDGE_CURVE('',#1005,#1007,#1008,.F.);
#821=EDGE_CURVE('',#938,#1007,#1009,.T.);
#822=EDGE_CURVE('',#1007,#1010,#1011,.F.);
#823=EDGE_CURVE('',#1010,#940,#1012,.F.);
#824=EDGE_CURVE('',#958,#1013,#1014,.T.);
#825=EDGE_CURVE('',#1010,#1013,#1015,.F.);
#826=EDGE_CURVE('',#1013,#1005,#1016,.F.);
#827=EDGE_CURVE('',#1017,#1017,#1018,.T.);
#828=EDGE_CURVE('',#1019,#1019,#1020,.T.);
#829=EDGE_CURVE('',#1021,#1021,#1022,.T.);
#830=EDGE_CURVE('',#1023,#1023,#1024,.T.);
#831=EDGE_CURVE('',#1025,#1025,#1026,.F.);
#832=EDGE_CURVE('',#1027,#1027,#1028,.T.);
#833=EDGE_CURVE('',#1029,#1029,#1030,.F.);
#834=EDGE_CURVE('',#1031,#1031,#1032,.F.);
#835=EDGE_CURVE('',#1033,#1033,#1034,.F.);
#836=EDGE_CURVE('',#1035,#1035,#1036,.T.);
#837=VERTEX_POINT('',#1037);
#838=VERTEX_POINT('',#1038);
#839=LINE('',#1039,#1040);
#840=VERTEX_POINT('',#1042);
#841=LINE('',#1043,#1044);
#842=VERTEX_POINT('',#1046);
#843=LINE('',#1047,#1048);
#844=LINE('',#1050,#1051);
#845=VERTEX_POINT('',#1053);
#846=LINE('',#1054,#1055);
#847=VERTEX_POINT('',#1057);
#848=LINE('',#1058,#1059);
#849=LINE('',#1061,#1062);
#850=VERTEX_POINT('',#1064);
#851=LINE('',#1065,#1066);
#852=VERTEX_POINT('',#1068);
#853=LINE('',#1069,#1070);
#854=LINE('',#1072,#1073);
#855=LINE('',#1075,#1076);
#856=LINE('',#1078,#1079);
#857=VERTEX_POINT('',#1081);
#858=VERTEX_POINT('',#1082);
#859=LINE('',#1083,#1084);
#860=VERTEX_POINT('',#1086);
#861=LINE('',#1087,#1088);
#862=VERTEX_POINT('',#1090);
#863=LINE('',#1091,#1092);
#864=LINE('',#1094,#1095);
#865=VERTEX_POINT('',#1097);
#866=LINE('',#1098,#1099);
#867=VERTEX_POINT('',#1101);
#868=LINE('',#1102,#1103);
#869=LINE('',#1105,#1106);
#870=VERTEX_POINT('',#1108);
#871=LINE('',#1109,#1110);
#872=VERTEX_POINT('',#1112);
#873=LINE('',#1113,#1114);
#874=LINE('',#1116,#1117);
#875=LINE('',#1119,#1120);
#876=LINE('',#1122,#1123);
#877=VERTEX_POINT('',#1125);
#878=VERTEX_POINT('',#1126);
#879=LINE('',#1127,#1128);
#880=VERTEX_POINT('',#1130);
#881=LINE('',#1131,#1132);
#882=VERTEX_POINT('',#1134);
#883=LINE('',#1135,#1136);
#884=VERTEX_POINT('',#1138);
#885=CIRCLE('',#1139,3.);
#886=LINE('',#1143,#1144);
#887=VERTEX_POINT('',#1146);
#888=LINE('',#1147,#1148);
#889=VERTEX_POINT('',#1150);
#890=LINE('',#1151,#1152);
#891=LINE('',#1154,#1155);
#892=VERTEX_POINT('',#1157);
#893=LINE('',#1158,#1159);
#894=VERTEX_POINT('',#1161);
#895=CIRCLE('',#1162,3.00000000000001);
#896=VERTEX_POINT('',#1166);
#897=LINE('',#1167,#1168);
#898=LINE('',#1170,#1171);
#899=LINE('',#1173,#1174);
#900=VERTEX_POINT('',#1176);
#901=(BOUNDED_CURVE()B_SPLINE_CURVE(3,
(#1177,#1178,#1179,#1180),
.UNSPECIFIED.,.F.,.F.)B_SPLINE_CURVE_WITH_KNOTS((4,4),
(0.,1.),
.UNSPECIFIED.)CURVE()GEOMETRIC_REPRESENTATION_ITEM()RATIONAL_B_SPLINE_CURVE((1.,
0.994296574249207,0.994296574249207,1.))REPRESENTATION_ITEM(''));
#902=VERTEX_POINT('',#1181);
#903=LINE('',#1182,#1183);
#904=(BOUNDED_CURVE()B_SPLINE_CURVE(3,
(#1185,#1186,#1187,#1188),
.UNSPECIFIED.,.F.,.F.)B_SPLINE_CURVE_WITH_KNOTS((4,4),
(0.,1.),
.UNSPECIFIED.)CURVE()GEOMETRIC_REPRESENTATION_ITEM()RATIONAL_B_SPLINE_CURVE((1.,
0.994296574249206,0.994296574249206,1.))REPRESENTATION_ITEM(''));
#905=VERTEX_POINT('',#1189);
#906=VERTEX_POINT('',#1190);
#907=LINE('',#1191,#1192);
#908=VERTEX_POINT('',#1194);
#909=LINE('',#1195,#1196);
#910=VERTEX_POINT('',#1198);
#911=LINE('',#1199,#1200);
#912=VERTEX_POINT('',#1202);
#913=CIRCLE('',#1203,3.00000000000001);
#914=LINE('',#1207,#1208);
#915=VERTEX_POINT('',#1210);
#916=LINE('',#1211,#1212);
#917=VERTEX_POINT('',#1214);
#918=LINE('',#1215,#1216);
#919=LINE('',#1218,#1219);
#920=VERTEX_POINT('',#1221);
#921=LINE('',#1222,#1223);
#922=VERTEX_POINT('',#1225);
#923=CIRCLE('',#1226,3.00000000000001);
#924=VERTEX_POINT('',#1230);
#925=LINE('',#1231,#1232);
#926=LINE('',#1234,#1235);
#927=LINE('',#1237,#1238);
#928=VERTEX_POINT('',#1240);
#929=(BOUNDED_CURVE()B_SPLINE_CURVE(3,
(#1241,#1242,#1243,#1244),
.UNSPECIFIED.,.F.,.F.)B_SPLINE_CURVE_WITH_KNOTS((4,4),
(0.,1.),
.UNSPECIFIED.)CURVE()GEOMETRIC_REPRESENTATION_ITEM()RATIONAL_B_SPLINE_CURVE((1.,
0.994296574249207,0.994296574249207,1.))REPRESENTATION_ITEM(''));
#930=VERTEX_POINT('',#1245);
#931=LINE('',#1246,#1247);
#932=(BOUNDED_CURVE()B_SPLINE_CURVE(3,
(#1249,#1250,#1251,#1252),
.UNSPECIFIED.,.F.,.F.)B_SPLINE_CURVE_WITH_KNOTS((4,4),
(0.,1.),
.UNSPECIFIED.)CURVE()GEOMETRIC_REPRESENTATION_ITEM()RATIONAL_B_SPLINE_CURVE((1.,
0.994296574249206,0.994296574249206,1.))REPRESENTATION_ITEM(''));
#933=VERTEX_POINT('',#1253);
#934=VERTEX_POINT('',#1254);
#935=LINE('',#1255,#1256);
#936=VERTEX_POINT('',#1258);
#937=LINE('',#1259,#1260);
#938=VERTEX_POINT('',#1262);
#939=(BOUNDED_CURVE()B_SPLINE_CURVE(3,
(#1263,#1264,#1265,#1266),
.UNSPECIFIED.,.F.,.F.)B_SPLINE_CURVE_WITH_KNOTS((4,4),
(0.,1.),
.UNSPECIFIED.)CURVE()GEOMETRIC_REPRESENTATION_ITEM()RATIONAL_B_SPLINE_CURVE((1.,
0.994296574249207,0.994296574249207,1.))REPRESENTATION_ITEM(''));
#940=VERTEX_POINT('',#1267);
#941=LINE('',#1268,#1269);
#942=VERTEX_POINT('',#1271);
#943=(BOUNDED_CURVE()B_SPLINE_CURVE(3,
(#1272,#1273,#1274,#1275),
.UNSPECIFIED.,.F.,.F.)B_SPLINE_CURVE_WITH_KNOTS((4,4),
(0.,1.),
.UNSPECIFIED.)CURVE()GEOMETRIC_REPRESENTATION_ITEM()RATIONAL_B_SPLINE_CURVE((1.,
0.994296574249207,0.994296574249207,1.))REPRESENTATION_ITEM(''));
#944=LINE('',#1276,#1277);
#945=VERTEX_POINT('',#1279);
#946=LINE('',#1280,#1281);
#947=VERTEX_POINT('',#1283);
#948=LINE('',#1284,#1285);
#949=VERTEX_POINT('',#1287);
#950=CIRCLE('',#1288,3.00000000000001);
#951=LINE('',#1292,#1293);
#952=VERTEX_POINT('',#1295);
#953=LINE('',#1296,#1297);
#954=VERTEX_POINT('',#1299);
#955=LINE('',#1300,#1301);
#956=LINE('',#1303,#1304);
#957=LINE('',#1306,#1307);
#958=VERTEX_POINT('',#1309);
#959=LINE('',#1310,#1311);
#960=CIRCLE('',#1313,3.);
#961=VERTEX_POINT('',#1317);
#962=VERTEX_POINT('',#1318);
#963=LINE('',#1319,#1320);
#964=VERTEX_POINT('',#1322);
#965=LINE('',#1323,#1324);
#966=VERTEX_POINT('',#1326);
#967=LINE('',#1327,#1328);
#968=LINE('',#1330,#1331);
#969=VERTEX_POINT('',#1333);
#970=LINE('',#1334,#1335);
#971=VERTEX_POINT('',#1337);
#972=LINE('',#1338,#1339);
#973=LINE('',#1341,#1342);
#974=VERTEX_POINT('',#1344);
#975=LINE('',#1345,#1346);
#976=VERTEX_POINT('',#1348);
#977=LINE('',#1349,#1350);
#978=LINE('',#1352,#1353);
#979=LINE('',#1355,#1356);
#980=LINE('',#1358,#1359);
#981=VERTEX_POINT('',#1361);
#982=(BOUNDED_CURVE()B_SPLINE_CURVE(3,
(#1362,#1363,#1364,#1365),
.UNSPECIFIED.,.F.,.F.)B_SPLINE_CURVE_WITH_KNOTS((4,4),
(0.,1.),
.UNSPECIFIED.)CURVE()GEOMETRIC_REPRESENTATION_ITEM()RATIONAL_B_SPLINE_CURVE((1.,
0.86223556019416,0.86223556019416,1.))REPRESENTATION_ITEM(''));
#983=VERTEX_POINT('',#1366);
#984=LINE('',#1367,#1368);
#985=(BOUNDED_CURVE()B_SPLINE_CURVE(3,
(#1370,#1371,#1372,#1373),
.UNSPECIFIED.,.F.,.F.)B_SPLINE_CURVE_WITH_KNOTS((4,4),
(0.,1.),
.UNSPECIFIED.)CURVE()GEOMETRIC_REPRESENTATION_ITEM()RATIONAL_B_SPLINE_CURVE((1.,
0.804737854124365,0.804737854124365,1.))REPRESENTATION_ITEM(''));
#986=VERTEX_POINT('',#1374);
#987=LINE('',#1375,#1376);
#988=(BOUNDED_CURVE()B_SPLINE_CURVE(3,
(#1378,#1379,#1380,#1381),
.UNSPECIFIED.,.F.,.F.)B_SPLINE_CURVE_WITH_KNOTS((4,4),
(0.,1.),
.UNSPECIFIED.)CURVE()GEOMETRIC_REPRESENTATION_ITEM()RATIONAL_B_SPLINE_CURVE((1.,
0.804737854124364,0.804737854124364,1.))REPRESENTATION_ITEM(''));
#989=VERTEX_POINT('',#1382);
#990=(BOUNDED_CURVE()B_SPLINE_CURVE(3,
(#1383,#1384,#1385,#1386),
.UNSPECIFIED.,.F.,.F.)B_SPLINE_CURVE_WITH_KNOTS((4,4),
(0.,1.),
.UNSPECIFIED.)CURVE()GEOMETRIC_REPRESENTATION_ITEM()RATIONAL_B_SPLINE_CURVE((1.,
0.862235560194158,0.862235560194158,1.))REPRESENTATION_ITEM(''));
#991=LINE('',#1387,#1388);
#992=LINE('',#1390,#1391);
#993=VERTEX_POINT('',#1393);
#994=(BOUNDED_CURVE()B_SPLINE_CURVE(3,
(#1394,#1395,#1396,#1397),
.UNSPECIFIED.,.F.,.F.)B_SPLINE_CURVE_WITH_KNOTS((4,4),
(0.,1.),
.UNSPECIFIED.)CURVE()GEOMETRIC_REPRESENTATION_ITEM()RATIONAL_B_SPLINE_CURVE((1.,
0.862235560194161,0.862235560194161,1.))REPRESENTATION_ITEM(''));
#995=VERTEX_POINT('',#1398);
#996=LINE('',#1399,#1400);
#997=(BOUNDED_CURVE()B_SPLINE_CURVE(3,
(#1402,#1403,#1404,#1405),
.UNSPECIFIED.,.F.,.F.)B_SPLINE_CURVE_WITH_KNOTS((4,4),
(0.,1.),
.UNSPECIFIED.)CURVE()GEOMETRIC_REPRESENTATION_ITEM()RATIONAL_B_SPLINE_CURVE((1.,
0.804737854124365,0.804737854124365,1.))REPRESENTATION_ITEM(''));
#998=VERTEX_POINT('',#1406);
#999=LINE('',#1407,#1408);
#1000=(BOUNDED_CURVE()B_SPLINE_CURVE(3,
(#1410,#1411,#1412,#1413),
.UNSPECIFIED.,.F.,.F.)B_SPLINE_CURVE_WITH_KNOTS((4,4),
(0.,1.),
.UNSPECIFIED.)CURVE()GEOMETRIC_REPRESENTATION_ITEM()RATIONAL_B_SPLINE_CURVE((1.,
0.804737854124365,0.804737854124365,1.))REPRESENTATION_ITEM(''));
#1001=VERTEX_POINT('',#1414);
#1002=(BOUNDED_CURVE()B_SPLINE_CURVE(3,
(#1415,#1416,#1417,#1418),
.UNSPECIFIED.,.F.,.F.)B_SPLINE_CURVE_WITH_KNOTS((4,4),
(0.,1.),
.UNSPECIFIED.)CURVE()GEOMETRIC_REPRESENTATION_ITEM()RATIONAL_B_SPLINE_CURVE((1.,
0.862235560194158,0.862235560194158,1.))REPRESENTATION_ITEM(''));
#1003=LINE('',#1419,#1420);
#1004=LINE('',#1422,#1423);
#1005=VERTEX_POINT('',#1425);
#1006=(BOUNDED_CURVE()B_SPLINE_CURVE(3,
(#1426,#1427,#1428,#1429),
.UNSPECIFIED.,.F.,.F.)B_SPLINE_CURVE_WITH_KNOTS((4,4),
(0.,1.),
.UNSPECIFIED.)CURVE()GEOMETRIC_REPRESENTATION_ITEM()RATIONAL_B_SPLINE_CURVE((1.,
0.804737854124365,0.804737854124365,1.))REPRESENTATION_ITEM(''));
#1007=VERTEX_POINT('',#1430);
#1008=LINE('',#1431,#1432);
#1009=(BOUNDED_CURVE()B_SPLINE_CURVE(3,
(#1434,#1435,#1436,#1437),
.UNSPECIFIED.,.F.,.F.)B_SPLINE_CURVE_WITH_KNOTS((4,4),
(0.,1.),
.UNSPECIFIED.)CURVE()GEOMETRIC_REPRESENTATION_ITEM()RATIONAL_B_SPLINE_CURVE((1.,
0.862235560194158,0.862235560194158,1.))REPRESENTATION_ITEM(''));
#1010=VERTEX_POINT('',#1438);
#1011=LINE('',#1439,#1440);
#1012=(BOUNDED_CURVE()B_SPLINE_CURVE(3,
(#1442,#1443,#1444,#1445),
.UNSPECIFIED.,.F.,.F.)B_SPLINE_CURVE_WITH_KNOTS((4,4),
(0.,1.),
.UNSPECIFIED.)CURVE()GEOMETRIC_REPRESENTATION_ITEM()RATIONAL_B_SPLINE_CURVE((1.,
0.862235560194157,0.862235560194157,1.))REPRESENTATION_ITEM(''));
#1013=VERTEX_POINT('',#1446);
#1014=(BOUNDED_CURVE()B_SPLINE_CURVE(3,
(#1447,#1448,#1449,#1450),
.UNSPECIFIED.,.F.,.F.)B_SPLINE_CURVE_WITH_KNOTS((4,4),
(0.,1.),
.UNSPECIFIED.)CURVE()GEOMETRIC_REPRESENTATION_ITEM()RATIONAL_B_SPLINE_CURVE((1.,
0.804737854124365,0.804737854124365,1.))REPRESENTATION_ITEM(''));
#1015=LINE('',#1451,#1452);
#1016=LINE('',#1454,#1455);
#1017=VERTEX_POINT('',#1457);
#1018=CIRCLE('',#1458,58.5);
#1019=VERTEX_POINT('',#1462);
#1020=CIRCLE('',#1463,1.6);
#1021=VERTEX_POINT('',#1467);
#1022=CIRCLE('',#1468,1.6);
#1023=VERTEX_POINT('',#1472);
#1024=CIRCLE('',#1473,1.6);
#1025=VERTEX_POINT('',#1477);
#1026=CIRCLE('',#1478,11.15);
#1027=VERTEX_POINT('',#1482);
#1028=CIRCLE('',#1483,58.5);
#1029=VERTEX_POINT('',#1487);
#1030=CIRCLE('',#1488,1.6);
#1031=VERTEX_POINT('',#1492);
#1032=CIRCLE('',#1493,1.6);
#1033=VERTEX_POINT('',#1497);
#1034=CIRCLE('',#1498,1.6);
#1035=VERTEX_POINT('',#1502);
#1036=CIRCLE('',#1503,11.15);
#1037=CARTESIAN_POINT('',(-17.9085719623662,51.3185565298217,-55.));
#1038=CARTESIAN_POINT('',(-7.40051873120381,33.1180744448102,-55.));
#1039=CARTESIAN_POINT('',(-7.4005187312038,33.1180744448102,-55.));
#1040=VECTOR('',#1041,1.);
#1041=DIRECTION('',(-0.5,0.866025403784439,0.));
#1042=CARTESIAN_POINT('',(-1.40569501475392,22.7347351855001,-10.2540266155813));
#1043=CARTESIAN_POINT('',(-7.40051873120381,33.1180744448102,-55.));
#1044=VECTOR('',#1045,1.);
#1045=DIRECTION('',(0.129409522551263,-0.224143868042018,0.965925826289067));
#1046=CARTESIAN_POINT('',(-11.2098421515879,39.7160161513775,-5.));
#1047=CARTESIAN_POINT('',(-11.2098421515879,39.7160161513776,-5.));
#1048=VECTOR('',#1049,1.);
#1049=DIRECTION('',(0.482962913144533,-0.836516303737806,-0.258819045102526));
#1050=CARTESIAN_POINT('',(-17.9085719623662,51.3185565298217,-55.));
#1051=VECTOR('',#1052,1.);
#1052=DIRECTION('',(0.129409522551263,-0.224143868042018,0.965925826289067));
#1053=CARTESIAN_POINT('',(-24.9808344280279,22.9680744448102,-55.));
#1054=CARTESIAN_POINT('',(-24.9808344280279,22.9680744448102,-55.));
#1055=VECTOR('',#1056,1.);
#1056=DIRECTION('',(0.866025403784439,0.5,0.));
#1057=CARTESIAN_POINT('',(-18.986010711578,12.5847351855001,-10.2540266155813));
#1058=CARTESIAN_POINT('',(-24.9808344280279,22.9680744448102,-55.));
#1059=VECTOR('',#1060,1.);
#1060=DIRECTION('',(0.129409522551263,-0.224143868042018,0.965925826289067));
#1061=CARTESIAN_POINT('',(-1.40569501475391,22.7347351855001,-10.2540266155813));
#1062=VECTOR('',#1063,1.);
#1063=DIRECTION('',(-0.866025403784439,-0.5,0.));
#1064=CARTESIAN_POINT('',(-35.4888876591903,41.1685565298217,-55.));
#1065=CARTESIAN_POINT('',(-35.4888876591903,41.1685565298217,-55.));
#1066=VECTOR('',#1067,1.);
#1067=DIRECTION('',(0.5,-0.866025403784439,0.));
#1068=CARTESIAN_POINT('',(-28.790157848412,29.5660161513775,-5.));
#1069=CARTESIAN_POINT('',(-35.4888876591903,41.1685565298217,-55.));
#1070=VECTOR('',#1071,1.);
#1071=DIRECTION('',(0.129409522551263,-0.224143868042018,0.965925826289067));
#1072=CARTESIAN_POINT('',(-18.986010711578,12.5847351855001,-10.2540266155813));
#1073=VECTOR('',#1074,1.);
#1074=DIRECTION('',(-0.482962913144533,0.836516303737807,0.258819045102526));
#1075=CARTESIAN_POINT('',(-17.9085719623662,51.3185565298217,-55.));
#1076=VECTOR('',#1077,1.);
#1077=DIRECTION('',(-0.866025403784439,-0.499999999999999,0.));
#1078=CARTESIAN_POINT('',(-11.2098421515879,39.7160161513775,-5.));
#1079=VECTOR('',#1080,1.);
#1080=DIRECTION('',(-0.866025403784439,-0.499999999999999,0.));
#1081=CARTESIAN_POINT('',(-35.4888876591903,-41.1685565298217,-55.));
#1082=CARTESIAN_POINT('',(-24.9808344280279,-22.9680744448101,-55.));
#1083=CARTESIAN_POINT('',(-24.9808344280279,-22.9680744448101,-55.));
#1084=VECTOR('',#1085,1.);
#1085=DIRECTION('',(-0.5,-0.866025403784439,0.));
#1086=CARTESIAN_POINT('',(-18.986010711578,-12.5847351855001,-10.2540266155813));
#1087=CARTESIAN_POINT('',(-24.9808344280279,-22.9680744448101,-55.));
#1088=VECTOR('',#1089,1.);
#1089=DIRECTION('',(0.129409522551263,0.224143868042018,0.965925826289067));
#1090=CARTESIAN_POINT('',(-28.7901578484121,-29.5660161513775,-5.));
#1091=CARTESIAN_POINT('',(-28.7901578484121,-29.5660161513775,-5.));
#1092=VECTOR('',#1093,1.);
#1093=DIRECTION('',(0.482962913144534,0.836516303737806,-0.258819045102526));
#1094=CARTESIAN_POINT('',(-35.4888876591903,-41.1685565298217,-55.));
#1095=VECTOR('',#1096,1.);
#1096=DIRECTION('',(0.129409522551263,0.224143868042018,0.965925826289067));
#1097=CARTESIAN_POINT('',(-7.40051873120382,-33.1180744448101,-55.));
#1098=CARTESIAN_POINT('',(-7.40051873120382,-33.1180744448102,-55.));
#1099=VECTOR('',#1100,1.);
#1100=DIRECTION('',(-0.866025403784438,0.5,0.));
#1101=CARTESIAN_POINT('',(-1.40569501475393,-22.7347351855001,-10.2540266155813));
#1102=CARTESIAN_POINT('',(-7.40051873120382,-33.1180744448101,-55.));
#1103=VECTOR('',#1104,1.);
#1104=DIRECTION('',(0.129409522551263,0.224143868042018,0.965925826289067));
#1105=CARTESIAN_POINT('',(-18.986010711578,-12.5847351855001,-10.2540266155813));
#1106=VECTOR('',#1107,1.);
#1107=DIRECTION('',(0.866025403784439,-0.5,0.));
#1108=CARTESIAN_POINT('',(-17.9085719623662,-51.3185565298217,-55.));
#1109=CARTESIAN_POINT('',(-17.9085719623662,-51.3185565298217,-55.));
#1110=VECTOR('',#1111,1.);
#1111=DIRECTION('',(0.5,0.866025403784438,0.));
#1112=CARTESIAN_POINT('',(-11.209842151588,-39.7160161513775,-5.));
#1113=CARTESIAN_POINT('',(-17.9085719623662,-51.3185565298217,-55.));
#1114=VECTOR('',#1115,1.);
#1115=DIRECTION('',(0.129409522551263,0.224143868042018,0.965925826289067));
#1116=CARTESIAN_POINT('',(-1.40569501475393,-22.7347351855001,-10.2540266155813));
#1117=VECTOR('',#1118,1.);
#1118=DIRECTION('',(-0.482962913144534,-0.836516303737806,0.258819045102526));
#1119=CARTESIAN_POINT('',(-35.4888876591903,-41.1685565298217,-55.));
#1120=VECTOR('',#1121,1.);
#1121=DIRECTION('',(0.866025403784438,-0.500000000000001,0.));
#1122=CARTESIAN_POINT('',(-28.7901578484121,-29.5660161513775,-5.00000000000001));
#1123=VECTOR('',#1124,1.);
#1124=DIRECTION('',(0.866025403784438,-0.500000000000001,0.));
#1125=CARTESIAN_POINT('',(-42.4072051291377,43.1514338906619,-55.));
#1126=CARTESIAN_POINT('',(-26.7227709959249,15.9851970839699,-55.));
#1127=CARTESIAN_POINT('',(-42.4072051291377,43.1514338906619,-55.));
#1128=VECTOR('',#1129,1.);
#1129=DIRECTION('',(0.5,-0.866025403784439,0.));
#1130=CARTESIAN_POINT('',(-20.4259649737934,5.07880912823241,-8.));
#1131=CARTESIAN_POINT('',(-26.7227709959249,15.9851970839699,-55.));
#1132=VECTOR('',#1133,1.);
#1133=DIRECTION('',(0.129409522551263,-0.224143868042018,0.965925826289067));
#1134=CARTESIAN_POINT('',(-36.1633133776213,32.3366961400753,-7.99999999999999));
#1135=CARTESIAN_POINT('',(-36.1633133776213,32.3366961400753,-8.));
#1136=VECTOR('',#1137,1.);
#1137=DIRECTION('',(0.5,-0.866025403784439,-5.6437615595019E-17));
#1138=CARTESIAN_POINT('',(-36.2144246381877,32.4252234402152,-8.77645713530757));
#1139=AXIS2_PLACEMENT_3D('',#1140,#1141,#1142);
#1140=CARTESIAN_POINT('',(-37.6633133776213,34.9347723514286,-7.99999999999999));
#1141=DIRECTION('',(0.866025403784439,0.5,-1.41695482195206E-16));
#1142=DIRECTION('',(0.5,-0.866025403784439,-2.368475785867E-15));
#1143=CARTESIAN_POINT('',(-42.4072051291377,43.1514338906619,-55.));
#1144=VECTOR('',#1145,1.);
#1145=DIRECTION('',(0.129409522551263,-0.224143868042018,0.965925826289067));
#1146=CARTESIAN_POINT('',(-16.1666353944692,58.3014338906619,-55.));
#1147=CARTESIAN_POINT('',(-16.1666353944692,58.3014338906619,-55.));
#1148=VECTOR('',#1149,1.);
#1149=DIRECTION('',(-0.866025403784439,-0.5,0.));
#1150=CARTESIAN_POINT('',(-9.97385490351917,47.5752234402152,-8.77645713530758));
#1151=CARTESIAN_POINT('',(-9.97385490351917,47.5752234402152,-8.77645713530757));
#1152=VECTOR('',#1153,1.);
#1153=DIRECTION('',(-0.866025403784439,-0.5,0.));
#1154=CARTESIAN_POINT('',(-16.1666353944692,58.3014338906619,-55.));
#1155=VECTOR('',#1156,1.);
#1156=DIRECTION('',(0.129409522551263,-0.224143868042018,0.965925826289067));
#1157=CARTESIAN_POINT('',(-0.482201261256403,31.1351970839699,-55.));
#1158=CARTESIAN_POINT('',(-0.482201261256398,31.1351970839699,-55.));
#1159=VECTOR('',#1160,1.);
#1160=DIRECTION('',(-0.5,0.866025403784439,0.));
#1161=CARTESIAN_POINT('',(-9.92274364295277,47.4866961400753,-8.));
#1162=AXIS2_PLACEMENT_3D('',#1163,#1164,#1165);
#1163=CARTESIAN_POINT('',(-11.4227436429528,50.0847723514286,-8.00000000000001));
#1164=DIRECTION('',(-0.866025403784439,-0.5,1.52798739664973E-16));
#1165=DIRECTION('',(0.482962913144534,-0.836516303737808,-0.258819045102522));
#1166=CARTESIAN_POINT('',(5.81460476087513,20.2288091282324,-7.99999999999999));
#1167=CARTESIAN_POINT('',(5.81460476087513,20.2288091282324,-7.99999999999999));
#1168=VECTOR('',#1169,1.);
#1169=DIRECTION('',(-0.5,0.866025403784439,-1.69312846785057E-16));
#1170=CARTESIAN_POINT('',(-0.482201261256403,31.1351970839699,-55.));
#1171=VECTOR('',#1172,1.);
#1172=DIRECTION('',(0.129409522551263,-0.224143868042018,0.965925826289067));
#1173=CARTESIAN_POINT('',(-26.7227709959249,15.9851970839699,-55.));
#1174=VECTOR('',#1175,1.);
#1175=DIRECTION('',(0.866025403784439,0.5,0.));
#1176=CARTESIAN_POINT('',(6.00715759219655,20.099742883508,-7.22354286469241));
#1177=CARTESIAN_POINT('',(5.81460476087512,20.2288091282324,-8.));
#1178=CARTESIAN_POINT('',(5.84977976670563,20.1678842309774,-7.737450182168));
#1179=CARTESIAN_POINT('',(5.91433221390239,20.1246153686591,-7.47714651442383));
#1180=CARTESIAN_POINT('',(6.00715759219654,20.099742883508,-7.22354286469242));
#1181=CARTESIAN_POINT('',(-20.4104667427517,4.84752036237526,-7.22354286469241));
#1182=CARTESIAN_POINT('',(-20.4104667427517,4.84752036237526,-7.22354286469242));
#1183=VECTOR('',#1184,1.);
#1184=DIRECTION('',(0.866025403784439,0.5,0.));
#1185=CARTESIAN_POINT('',(-20.4259649737934,5.07880912823242,-8.00000000000002));
#1186=CARTESIAN_POINT('',(-20.3907899679628,5.01788423097744,-7.73745018216801));
#1187=CARTESIAN_POINT('',(-20.3855942576007,4.94034574066942,-7.47714651442384));
#1188=CARTESIAN_POINT('',(-20.4104667427517,4.84752036237526,-7.22354286469241));
#1189=CARTESIAN_POINT('',(-16.1666353944692,-58.3014338906619,-55.));
#1190=CARTESIAN_POINT('',(-0.482201261256417,-31.1351970839699,-55.));
#1191=CARTESIAN_POINT('',(-16.1666353944692,-58.3014338906619,-55.));
#1192=VECTOR('',#1193,1.);
#1193=DIRECTION('',(0.5,0.866025403784439,0.));
#1194=CARTESIAN_POINT('',(5.81460476087511,-20.2288091282324,-8.00000000000001));
#1195=CARTESIAN_POINT('',(-0.482201261256417,-31.1351970839699,-55.));
#1196=VECTOR('',#1197,1.);
#1197=DIRECTION('',(0.129409522551263,0.224143868042018,0.965925826289067));
#1198=CARTESIAN_POINT('',(-9.92274364295281,-47.4866961400753,-7.99999999999999));
#1199=CARTESIAN_POINT('',(-9.92274364295281,-47.4866961400753,-7.99999999999999));
#1200=VECTOR('',#1201,1.);
#1201=DIRECTION('',(0.5,0.866025403784438,-5.07938540355171E-16));
#1202=CARTESIAN_POINT('',(-9.97385490351921,-47.5752234402152,-8.77645713530758));
#1203=AXIS2_PLACEMENT_3D('',#1204,#1205,#1206);
#1204=CARTESIAN_POINT('',(-11.4227436429528,-50.0847723514286,-7.99999999999999));
#1205=DIRECTION('',(-0.866025403784438,0.5,-1.86656502820984E-16));
#1206=DIRECTION('',(0.5,0.866025403784438,-2.66453525910037E-15));
#1207=CARTESIAN_POINT('',(-16.1666353944692,-58.3014338906619,-55.));
#1208=VECTOR('',#1209,1.);
#1209=DIRECTION('',(0.129409522551263,0.224143868042018,0.965925826289067));
#1210=CARTESIAN_POINT('',(-42.4072051291377,-43.1514338906619,-55.));
#1211=CARTESIAN_POINT('',(-42.4072051291377,-43.1514338906619,-55.));
#1212=VECTOR('',#1213,1.);
#1213=DIRECTION('',(0.866025403784439,-0.5,0.));
#1214=CARTESIAN_POINT('',(-36.2144246381877,-32.4252234402152,-8.77645713530758));
#1215=CARTESIAN_POINT('',(-36.2144246381877,-32.4252234402152,-8.77645713530758));
#1216=VECTOR('',#1217,1.);
#1217=DIRECTION('',(0.866025403784438,-0.5,0.));
#1218=CARTESIAN_POINT('',(-42.4072051291377,-43.1514338906619,-55.));
#1219=VECTOR('',#1220,1.);
#1220=DIRECTION('',(0.129409522551263,0.224143868042018,0.965925826289067));
#1221=CARTESIAN_POINT('',(-26.7227709959249,-15.9851970839699,-55.));
#1222=CARTESIAN_POINT('',(-26.7227709959249,-15.9851970839699,-55.));
#1223=VECTOR('',#1224,1.);
#1224=DIRECTION('',(-0.5,-0.866025403784438,0.));
#1225=CARTESIAN_POINT('',(-36.1633133776213,-32.3366961400753,-7.99999999999999));
#1226=AXIS2_PLACEMENT_3D('',#1227,#1228,#1229);
#1227=CARTESIAN_POINT('',(-37.6633133776213,-34.9347723514286,-8.00000000000001));
#1228=DIRECTION('',(0.866025403784439,-0.5,1.88558558350744E-16));
#1229=DIRECTION('',(0.482962913144535,0.836516303737808,-0.25881904510252));
#1230=CARTESIAN_POINT('',(-20.4259649737934,-5.07880912823239,-7.99999999999999));
#1231=CARTESIAN_POINT('',(-20.4259649737934,-5.07880912823239,-8.00000000000001));
#1232=VECTOR('',#1233,1.);
#1233=DIRECTION('',(-0.5,-0.866025403784438,3.10406885772604E-16));
#1234=CARTESIAN_POINT('',(-26.7227709959249,-15.9851970839699,-55.));
#1235=VECTOR('',#1236,1.);
#1236=DIRECTION('',(0.129409522551263,0.224143868042018,0.965925826289067));
#1237=CARTESIAN_POINT('',(-0.482201261256414,-31.1351970839699,-55.));
#1238=VECTOR('',#1239,1.);
#1239=DIRECTION('',(-0.866025403784439,0.5,0.));
#1240=CARTESIAN_POINT('',(-20.4104667427517,-4.84752036237524,-7.22354286469242));
#1241=CARTESIAN_POINT('',(-20.4259649737934,-5.07880912823239,-8.));
#1242=CARTESIAN_POINT('',(-20.3907899679629,-5.01788423097741,-7.73745018216801));
#1243=CARTESIAN_POINT('',(-20.3855942576007,-4.9403457406694,-7.47714651442384));
#1244=CARTESIAN_POINT('',(-20.4104667427517,-4.84752036237525,-7.22354286469243));
#1245=CARTESIAN_POINT('',(6.00715759219654,-20.099742883508,-7.22354286469241));
#1246=CARTESIAN_POINT('',(6.00715759219653,-20.099742883508,-7.22354286469242));
#1247=VECTOR('',#1248,1.);
#1248=DIRECTION('',(-0.866025403784438,0.5,0.));
#1249=CARTESIAN_POINT('',(5.81460476087509,-20.2288091282324,-8.00000000000003));
#1250=CARTESIAN_POINT('',(5.84977976670561,-20.1678842309774,-7.73745018216802));
#1251=CARTESIAN_POINT('',(5.91433221390237,-20.1246153686591,-7.47714651442384));
#1252=CARTESIAN_POINT('',(6.00715759219653,-20.099742883508,-7.22354286469241));
#1253=CARTESIAN_POINT('',(27.2049722571813,15.15,-55.));
#1254=CARTESIAN_POINT('',(27.2049722571813,-15.15,-55.));
#1255=CARTESIAN_POINT('',(27.2049722571813,15.15,-55.));
#1256=VECTOR('',#1257,1.);
#1257=DIRECTION('',(-1.17251276528069E-16,-1.,0.));
#1258=CARTESIAN_POINT('',(14.6113602129182,-15.15,-8.));
#1259=CARTESIAN_POINT('',(27.2049722571813,-15.15,-55.));
#1260=VECTOR('',#1261,1.);
#1261=DIRECTION('',(-0.258819045102526,-1.46027995564419E-16,0.965925826289067));
#1262=CARTESIAN_POINT('',(14.4033091505552,-15.2522225211328,-7.22354286469242));
#1263=CARTESIAN_POINT('',(14.6113602129182,-15.15,-8.00000000000001));
#1264=CARTESIAN_POINT('',(14.5410102012572,-15.15,-7.73745018216801));
#1265=CARTESIAN_POINT('',(14.4712620436983,-15.1842696279897,-7.47714651442385));
#1266=CARTESIAN_POINT('',(14.4033091505552,-15.2522225211328,-7.22354286469243));
#1267=CARTESIAN_POINT('',(14.4033091505552,15.2522225211328,-7.22354286469242));
#1268=CARTESIAN_POINT('',(14.4033091505552,15.2522225211328,-7.22354286469242));
#1269=VECTOR('',#1270,1.);
#1270=DIRECTION('',(0.,-1.,0.));
#1271=CARTESIAN_POINT('',(14.6113602129182,15.15,-8.));
#1272=CARTESIAN_POINT('',(14.6113602129182,15.15,-8.));
#1273=CARTESIAN_POINT('',(14.5410102012572,15.15,-7.73745018216801));
#1274=CARTESIAN_POINT('',(14.4712620436983,15.1842696279897,-7.47714651442385));
#1275=CARTESIAN_POINT('',(14.4033091505552,15.2522225211328,-7.22354286469243));
#1276=CARTESIAN_POINT('',(27.2049722571813,15.15,-55.));
#1277=VECTOR('',#1278,1.);
#1278=DIRECTION('',(-0.258819045102526,-7.30139977822094E-17,0.965925826289067));
#1279=CARTESIAN_POINT('',(58.5738405236068,-15.15,-55.));
#1280=CARTESIAN_POINT('',(27.2049722571813,-15.15,-55.));
#1281=VECTOR('',#1282,1.);
#1282=DIRECTION('',(1.,-5.66280180819116E-17,0.));
#1283=CARTESIAN_POINT('',(46.1882795417068,-15.15,-8.77645713530758));
#1284=CARTESIAN_POINT('',(58.5738405236068,-15.15,-55.));
#1285=VECTOR('',#1286,1.);
#1286=DIRECTION('',(-0.258819045102526,-1.11360716306704E-16,0.965925826289067));
#1287=CARTESIAN_POINT('',(46.086057020574,-15.15,-7.99999999999999));
#1288=AXIS2_PLACEMENT_3D('',#1289,#1290,#1291);
#1289=CARTESIAN_POINT('',(49.0860570205741,-15.15,-8.00000000000001));
#1290=DIRECTION('',(3.36402690351659E-17,1.,1.0096487910812E-16));
#1291=DIRECTION('',(-0.965925826289068,5.86256382640342E-17,-0.258819045102521));
#1292=CARTESIAN_POINT('',(14.6113602129182,-15.15,-8.));
#1293=VECTOR('',#1294,1.);
#1294=DIRECTION('',(1.,-5.6437615595019E-17,3.10406885772605E-16));
#1295=CARTESIAN_POINT('',(58.5738405236068,15.15,-55.));
#1296=CARTESIAN_POINT('',(58.5738405236068,-15.15,-55.));
#1297=VECTOR('',#1298,1.);
#1298=DIRECTION('',(0.,1.,0.));
#1299=CARTESIAN_POINT('',(46.1882795417068,15.15,-8.77645713530758));
#1300=CARTESIAN_POINT('',(58.5738405236068,15.15,-55.));
#1301=VECTOR('',#1302,1.);
#1302=DIRECTION('',(-0.258819045102526,-1.11360716306704E-16,0.965925826289067));
#1303=CARTESIAN_POINT('',(46.1882795417068,-15.15,-8.77645713530758));
#1304=VECTOR('',#1305,1.);
#1305=DIRECTION('',(0.,1.,-5.86256382640347E-17));
#1306=CARTESIAN_POINT('',(58.5738405236068,15.15,-55.));
#1307=VECTOR('',#1308,1.);
#1308=DIRECTION('',(-1.,5.66280180819116E-17,0.));
#1309=CARTESIAN_POINT('',(46.086057020574,15.15,-7.99999999999999));
#1310=CARTESIAN_POINT('',(46.086057020574,15.15,-7.99999999999999));
#1311=VECTOR('',#1312,1.);
#1312=DIRECTION('',(-1.,0.,-3.38625693570114E-16));
#1313=AXIS2_PLACEMENT_3D('',#1314,#1315,#1316);
#1314=CARTESIAN_POINT('',(49.086057020574,15.15,-7.99999999999999));
#1315=DIRECTION('',(-3.36402690351659E-17,-1.,-1.0096487910812E-16));
#1316=DIRECTION('',(-1.,3.36402690351659E-17,2.96059473233375E-16));
#1317=CARTESIAN_POINT('',(53.3974596215564,-10.15,-55.));
#1318=CARTESIAN_POINT('',(32.3813531592317,-10.15,-55.));
#1319=CARTESIAN_POINT('',(32.3813531592317,-10.15,-55.));
#1320=VECTOR('',#1321,1.);
#1321=DIRECTION('',(1.,8.45235934917202E-17,0.));
#1322=CARTESIAN_POINT('',(20.3917057263319,-10.15,-10.2540266155813));
#1323=CARTESIAN_POINT('',(32.3813531592317,-10.15,-55.));
#1324=VECTOR('',#1325,1.);
#1325=DIRECTION('',(-0.258819045102526,-7.66919934064682E-17,0.965925826289067));
#1326=CARTESIAN_POINT('',(40.,-10.15,-5.00000000000002));
#1327=CARTESIAN_POINT('',(40.,-10.15,-5.));
#1328=VECTOR('',#1329,1.);
#1329=DIRECTION('',(-0.965925826289067,8.75052630246428E-17,-0.258819045102526));
#1330=CARTESIAN_POINT('',(53.3974596215564,-10.15,-55.));
#1331=VECTOR('',#1332,1.);
#1332=DIRECTION('',(-0.258819045102526,-1.02949736872915E-16,0.965925826289067));
#1333=CARTESIAN_POINT('',(32.3813531592317,10.15,-55.));
#1334=CARTESIAN_POINT('',(32.3813531592317,10.15,-55.));
#1335=VECTOR('',#1336,1.);
#1336=DIRECTION('',(0.,-1.,0.));
#1337=CARTESIAN_POINT('',(20.3917057263319,10.15,-10.2540266155813));
#1338=CARTESIAN_POINT('',(32.3813531592317,10.15,-55.));
#1339=VECTOR('',#1340,1.);
#1340=DIRECTION('',(-0.258819045102526,-7.66919934064682E-17,0.965925826289067));
#1341=CARTESIAN_POINT('',(20.3917057263319,-10.15,-10.2540266155813));
#1342=VECTOR('',#1343,1.);
#1343=DIRECTION('',(0.,1.,0.));
#1344=CARTESIAN_POINT('',(53.3974596215564,10.15,-55.));
#1345=CARTESIAN_POINT('',(53.3974596215565,10.15,-55.));
#1346=VECTOR('',#1347,1.);
#1347=DIRECTION('',(-1.,8.45235934917159E-17,0.));
#1348=CARTESIAN_POINT('',(40.,10.15,-5.));
#1349=CARTESIAN_POINT('',(53.3974596215564,10.15,-55.));
#1350=VECTOR('',#1351,1.);
#1351=DIRECTION('',(-0.258819045102526,-6.86331579152769E-17,0.965925826289067));
#1352=CARTESIAN_POINT('',(20.3917057263319,10.15,-10.2540266155813));
#1353=VECTOR('',#1354,1.);
#1354=DIRECTION('',(0.965925826289067,-8.75052630246429E-17,0.258819045102527));
#1355=CARTESIAN_POINT('',(53.3974596215564,-10.15,-55.));
#1356=VECTOR('',#1357,1.);
#1357=DIRECTION('',(0.,1.,0.));
#1358=CARTESIAN_POINT('',(40.,10.15,-5.));
#1359=VECTOR('',#1360,1.);
#1360=DIRECTION('',(0.,-1.,0.));
#1361=CARTESIAN_POINT('',(-21.4711269145315,0.889082711728251,-5.));
#1362=CARTESIAN_POINT('',(-20.4104667427517,4.84752036237526,-7.22354286469238));
#1363=CARTESIAN_POINT('',(-20.5442367197733,4.34828401160358,-5.85960378939899));
#1364=CARTESIAN_POINT('',(-20.9542794121828,2.81798385025879,-5.));
#1365=CARTESIAN_POINT('',(-21.4711269145315,0.889082711728245,-5.));
#1366=CARTESIAN_POINT('',(-40.2613895889746,33.4347723514286,-5.));
#1367=CARTESIAN_POINT('',(-40.2613895889746,33.4347723514286,-5.));
#1368=VECTOR('',#1369,1.);
#1369=DIRECTION('',(0.5,-0.866025403784439,-2.36340075465829E-17));
#1370=CARTESIAN_POINT('',(-36.1633133776213,32.3366961400753,-7.99999999999999));
#1371=CARTESIAN_POINT('',(-36.1633133776213,32.3366961400753,-6.24264068711928));
#1372=CARTESIAN_POINT('',(-37.8607921240024,32.7915341993371,-4.99999999999999));
#1373=CARTESIAN_POINT('',(-40.2613895889746,33.4347723514286,-5.));
#1374=CARTESIAN_POINT('',(-8.82466743159945,51.5847723514286,-5.));
#1375=CARTESIAN_POINT('',(-8.82466743159944,51.5847723514286,-5.));
#1376=VECTOR('',#1377,1.);
#1377=DIRECTION('',(-0.866025403784439,-0.5,0.));
#1378=CARTESIAN_POINT('',(-9.92274364295276,47.4866961400753,-8.));
#1379=CARTESIAN_POINT('',(-9.92274364295276,47.4866961400753,-6.24264068711928));
#1380=CARTESIAN_POINT('',(-9.46790558369095,49.1841748864564,-4.99999999999999));
#1381=CARTESIAN_POINT('',(-8.82466743159944,51.5847723514286,-5.));
#1382=CARTESIAN_POINT('',(9.96559524284359,19.0390827117282,-5.));
#1383=CARTESIAN_POINT('',(6.00715759219656,20.0997428835081,-7.2235428646924));
#1384=CARTESIAN_POINT('',(6.50639394296823,19.9659729064865,-5.85960378939899));
#1385=CARTESIAN_POINT('',(8.03669410431303,19.555930214077,-4.99999999999999));
#1386=CARTESIAN_POINT('',(9.96559524284359,19.0390827117282,-4.99999999999999));
#1387=CARTESIAN_POINT('',(9.96559524284358,19.0390827117282,-5.));
#1388=VECTOR('',#1389,1.);
#1389=DIRECTION('',(-0.5,0.866025403784439,-7.09020226397488E-17));
#1390=CARTESIAN_POINT('',(-21.4711269145315,0.889082711728242,-5.));
#1391=VECTOR('',#1392,1.);
#1392=DIRECTION('',(0.866025403784439,0.5,0.));
#1393=CARTESIAN_POINT('',(9.96559524284354,-19.0390827117282,-5.));
#1394=CARTESIAN_POINT('',(6.00715759219655,-20.099742883508,-7.22354286469239));
#1395=CARTESIAN_POINT('',(6.50639394296823,-19.9659729064865,-5.859603789399));
#1396=CARTESIAN_POINT('',(8.03669410431302,-19.5559302140769,-5.00000000000001));
#1397=CARTESIAN_POINT('',(9.96559524284356,-19.0390827117282,-5.00000000000001));
#1398=CARTESIAN_POINT('',(-8.8246674315995,-51.5847723514286,-5.));
#1399=CARTESIAN_POINT('',(-8.8246674315995,-51.5847723514286,-5.));
#1400=VECTOR('',#1401,1.);
#1401=DIRECTION('',(0.5,0.866025403784438,-1.41804045279498E-16));
#1402=CARTESIAN_POINT('',(-9.92274364295281,-47.4866961400753,-8.));
#1403=CARTESIAN_POINT('',(-9.92274364295281,-47.4866961400753,-6.24264068711928));
#1404=CARTESIAN_POINT('',(-9.467905583691,-49.1841748864564,-5.));
#1405=CARTESIAN_POINT('',(-8.82466743159949,-51.5847723514286,-5.));
#1406=CARTESIAN_POINT('',(-40.2613895889746,-33.4347723514286,-5.));
#1407=CARTESIAN_POINT('',(-40.2613895889746,-33.4347723514286,-5.));
#1408=VECTOR('',#1409,1.);
#1409=DIRECTION('',(0.866025403784438,-0.5,0.));
#1410=CARTESIAN_POINT('',(-36.1633133776213,-32.3366961400753,-7.99999999999999));
#1411=CARTESIAN_POINT('',(-36.1633133776213,-32.3366961400753,-6.24264068711928));
#1412=CARTESIAN_POINT('',(-37.8607921240024,-32.7915341993371,-4.99999999999999));
#1413=CARTESIAN_POINT('',(-40.2613895889746,-33.4347723514286,-4.99999999999999));
#1414=CARTESIAN_POINT('',(-21.4711269145316,-0.889082711728222,-5.));
#1415=CARTESIAN_POINT('',(-20.4104667427517,-4.84752036237523,-7.22354286469242));
#1416=CARTESIAN_POINT('',(-20.5442367197733,-4.34828401160358,-5.85960378939901));
#1417=CARTESIAN_POINT('',(-20.9542794121828,-2.81798385025878,-5.));
#1418=CARTESIAN_POINT('',(-21.4711269145316,-0.889082711728217,-5.));
#1419=CARTESIAN_POINT('',(-21.4711269145316,-0.889082711728225,-5.));
#1420=VECTOR('',#1421,1.);
#1421=DIRECTION('',(-0.5,-0.866025403784438,7.09020226397489E-17));
#1422=CARTESIAN_POINT('',(9.96559524284356,-19.0390827117282,-5.));
#1423=VECTOR('',#1424,1.);
#1424=DIRECTION('',(-0.866025403784438,0.5,0.));
#1425=CARTESIAN_POINT('',(49.086057020574,-18.15,-5.));
#1426=CARTESIAN_POINT('',(46.086057020574,-15.15,-7.99999999999999));
#1427=CARTESIAN_POINT('',(46.086057020574,-15.15,-6.24264068711928));
#1428=CARTESIAN_POINT('',(47.3286977076933,-16.3926406871193,-4.99999999999999));
#1429=CARTESIAN_POINT('',(49.086057020574,-18.15,-4.99999999999999));
#1430=CARTESIAN_POINT('',(11.505531671688,-18.15,-5.));
#1431=CARTESIAN_POINT('',(11.505531671688,-18.15,-5.));
#1432=VECTOR('',#1433,1.);
#1433=DIRECTION('',(1.,0.,7.09020226397489E-17));
#1434=CARTESIAN_POINT('',(14.4033091505552,-15.2522225211328,-7.22354286469242));
#1435=CARTESIAN_POINT('',(14.0378427768051,-15.6176888948829,-5.85960378939901));
#1436=CARTESIAN_POINT('',(12.9175853078698,-16.7379463638182,-5.));
#1437=CARTESIAN_POINT('',(11.505531671688,-18.15,-5.));
#1438=CARTESIAN_POINT('',(11.505531671688,18.15,-5.));
#1439=CARTESIAN_POINT('',(11.505531671688,18.15,-5.));
#1440=VECTOR('',#1441,1.);
#1441=DIRECTION('',(0.,-1.,0.));
#1442=CARTESIAN_POINT('',(14.4033091505552,15.2522225211328,-7.22354286469242));
#1443=CARTESIAN_POINT('',(14.0378427768051,15.6176888948829,-5.85960378939901));
#1444=CARTESIAN_POINT('',(12.9175853078698,16.7379463638182,-5.));
#1445=CARTESIAN_POINT('',(11.505531671688,18.15,-5.));
#1446=CARTESIAN_POINT('',(49.086057020574,18.15,-5.));
#1447=CARTESIAN_POINT('',(46.086057020574,15.15,-7.99999999999999));
#1448=CARTESIAN_POINT('',(46.086057020574,15.15,-6.24264068711928));
#1449=CARTESIAN_POINT('',(47.3286977076933,16.3926406871193,-4.99999999999999));
#1450=CARTESIAN_POINT('',(49.0860570205741,18.15,-4.99999999999999));
#1451=CARTESIAN_POINT('',(49.0860570205741,18.15,-5.));
#1452=VECTOR('',#1453,1.);
#1453=DIRECTION('',(-1.,-9.45360301863318E-17,-1.18170037732915E-16));
#1454=CARTESIAN_POINT('',(49.086057020574,-18.15,-5.));
#1455=VECTOR('',#1456,1.);
#1456=DIRECTION('',(0.,1.,-2.44677250606095E-17));
#1457=CARTESIAN_POINT('',(-58.5,1.4328367550024E-14,-5.));
#1458=AXIS2_PLACEMENT_3D('',#1459,#1460,#1461);
#1459=CARTESIAN_POINT('',(0.,0.,-5.));
#1460=DIRECTION('',(0.,0.,1.));
#1461=DIRECTION('',(-1.,1.22464679914735E-16,0.));
#1462=CARTESIAN_POINT('',(-48.4,-1.95943487863577E-16,-5.));
#1463=AXIS2_PLACEMENT_3D('',#1464,#1465,#1466);
#1464=CARTESIAN_POINT('',(-50.,0.,-5.));
#1465=DIRECTION('',(0.,0.,1.));
#1466=DIRECTION('',(1.,0.,0.));
#1467=CARTESIAN_POINT('',(26.6,-43.3012701892219,-5.));
#1468=AXIS2_PLACEMENT_3D('',#1469,#1470,#1471);
#1469=CARTESIAN_POINT('',(25.,-43.3012701892219,-5.));
#1470=DIRECTION('',(0.,0.,1.));
#1471=DIRECTION('',(1.,0.,0.));
#1472=CARTESIAN_POINT('',(26.6000000000001,43.3012701892219,-5.));
#1473=AXIS2_PLACEMENT_3D('',#1474,#1475,#1476);
#1474=CARTESIAN_POINT('',(25.0000000000001,43.3012701892219,-5.));
#1475=DIRECTION('',(0.,0.,1.));
#1476=DIRECTION('',(1.,0.,0.));
#1477=CARTESIAN_POINT('',(11.15,2.7309623620986E-15,-5.));
#1478=AXIS2_PLACEMENT_3D('',#1479,#1480,#1481);
#1479=CARTESIAN_POINT('',(0.,0.,-5.));
#1480=DIRECTION('',(0.,0.,-1.));
#1481=DIRECTION('',(1.,1.22464679914735E-16,0.));
#1482=CARTESIAN_POINT('',(-58.5,1.4328367550024E-14,0.));
#1483=AXIS2_PLACEMENT_3D('',#1484,#1485,#1486);
#1484=CARTESIAN_POINT('',(0.,0.,0.));
#1485=DIRECTION('',(0.,0.,1.));
#1486=DIRECTION('',(-1.,1.22464679914735E-16,0.));
#1487=CARTESIAN_POINT('',(-48.4,-1.95943487863577E-16,0.));
#1488=AXIS2_PLACEMENT_3D('',#1489,#1490,#1491);
#1489=CARTESIAN_POINT('',(-50.,0.,0.));
#1490=DIRECTION('',(0.,0.,1.));
#1491=DIRECTION('',(1.,0.,0.));
#1492=CARTESIAN_POINT('',(26.6,-43.3012701892219,0.));
#1493=AXIS2_PLACEMENT_3D('',#1494,#1495,#1496);
#1494=CARTESIAN_POINT('',(25.,-43.3012701892219,0.));
#1495=DIRECTION('',(0.,0.,1.));
#1496=DIRECTION('',(1.,0.,0.));
#1497=CARTESIAN_POINT('',(26.6000000000001,43.3012701892219,0.));
#1498=AXIS2_PLACEMENT_3D('',#1499,#1500,#1501);
#1499=CARTESIAN_POINT('',(25.0000000000001,43.3012701892219,0.));
#1500=DIRECTION('',(0.,0.,1.));
#1501=DIRECTION('',(1.,0.,0.));
#1502=CARTESIAN_POINT('',(11.15,2.7309623620986E-15,0.));
#1503=AXIS2_PLACEMENT_3D('',#1504,#1505,#1506);
#1504=CARTESIAN_POINT('',(0.,0.,0.));
#1505=DIRECTION('',(0.,0.,-1.));
#1506=DIRECTION('',(1.,1.22464679914735E-16,0.));
ENDSEC;
END-ISO-10303-21;
